%TF.GenerationSoftware,KiCad,Pcbnew,9.0.6*%
%TF.CreationDate,2026-02-23T14:00:13-08:00*%
%TF.ProjectId,514_sensor_pcb,3531345f-7365-46e7-936f-725f7063622e,rev?*%
%TF.SameCoordinates,Original*%
%TF.FileFunction,Copper,L1,Top*%
%TF.FilePolarity,Positive*%
%FSLAX46Y46*%
G04 Gerber Fmt 4.6, Leading zero omitted, Abs format (unit mm)*
G04 Created by KiCad (PCBNEW 9.0.6) date 2026-02-23 14:00:13*
%MOMM*%
%LPD*%
G01*
G04 APERTURE LIST*
G04 Aperture macros list*
%AMRoundRect*
0 Rectangle with rounded corners*
0 $1 Rounding radius*
0 $2 $3 $4 $5 $6 $7 $8 $9 X,Y pos of 4 corners*
0 Add a 4 corners polygon primitive as box body*
4,1,4,$2,$3,$4,$5,$6,$7,$8,$9,$2,$3,0*
0 Add four circle primitives for the rounded corners*
1,1,$1+$1,$2,$3*
1,1,$1+$1,$4,$5*
1,1,$1+$1,$6,$7*
1,1,$1+$1,$8,$9*
0 Add four rect primitives between the rounded corners*
20,1,$1+$1,$2,$3,$4,$5,0*
20,1,$1+$1,$4,$5,$6,$7,0*
20,1,$1+$1,$6,$7,$8,$9,0*
20,1,$1+$1,$8,$9,$2,$3,0*%
%AMFreePoly0*
4,1,6,0.750000,-1.000000,-0.750000,-1.000000,-0.750000,1.150000,-0.500000,1.400000,0.750000,1.400000,0.750000,-1.000000,0.750000,-1.000000,$1*%
G04 Aperture macros list end*
%TA.AperFunction,SMDPad,CuDef*%
%ADD10RoundRect,0.250001X-0.872499X-0.944999X0.872499X-0.944999X0.872499X0.944999X-0.872499X0.944999X0*%
%TD*%
%TA.AperFunction,SMDPad,CuDef*%
%ADD11R,0.500000X0.500000*%
%TD*%
%TA.AperFunction,SMDPad,CuDef*%
%ADD12FreePoly0,180.000000*%
%TD*%
%TA.AperFunction,ComponentPad*%
%ADD13RoundRect,0.500000X-1.000000X-0.500000X1.000000X-0.500000X1.000000X0.500000X-1.000000X0.500000X0*%
%TD*%
%TA.AperFunction,HeatsinkPad*%
%ADD14RoundRect,0.250000X-1.500000X-1.500000X1.500000X-1.500000X1.500000X1.500000X-1.500000X1.500000X0*%
%TD*%
%TA.AperFunction,SMDPad,CuDef*%
%ADD15RoundRect,0.250000X-0.900000X-0.400000X0.900000X-0.400000X0.900000X0.400000X-0.900000X0.400000X0*%
%TD*%
%TA.AperFunction,SMDPad,CuDef*%
%ADD16C,1.300000*%
%TD*%
%TA.AperFunction,ComponentPad*%
%ADD17R,1.700000X1.700000*%
%TD*%
%TA.AperFunction,SMDPad,CuDef*%
%ADD18R,3.510000X3.075000*%
%TD*%
%TA.AperFunction,Conductor*%
%ADD19C,0.750000*%
%TD*%
%TA.AperFunction,Conductor*%
%ADD20C,0.200000*%
%TD*%
%TA.AperFunction,Conductor*%
%ADD21C,0.250000*%
%TD*%
%TA.AperFunction,Conductor*%
%ADD22C,0.800000*%
%TD*%
G04 APERTURE END LIST*
D10*
%TO.P,C1,1*%
%TO.N,VCC*%
X136400000Y-104100000D03*
%TO.P,C1,2*%
%TO.N,GND*%
X141515000Y-104100000D03*
%TD*%
D11*
%TO.P,U2,1,SDA*%
%TO.N,Net-(U1-D4)*%
X213350000Y-91250000D03*
%TO.P,U2,2,GND*%
%TO.N,GND*%
X213350000Y-90250000D03*
%TO.P,U2,3,NC*%
%TO.N,unconnected-(U2-NC-Pad3)*%
X213350000Y-89250000D03*
%TO.P,U2,4,NC*%
%TO.N,unconnected-(U2-NC-Pad4)*%
X210850000Y-89250000D03*
%TO.P,U2,5,VDD*%
%TO.N,Net-(U1-VCC_3V3)*%
X210850000Y-90250000D03*
%TO.P,U2,6,SCL*%
%TO.N,Net-(U1-D5)*%
X210850000Y-91250000D03*
D12*
%TO.P,U2,PAD*%
%TO.N,N/C*%
X212100000Y-90050000D03*
%TD*%
D13*
%TO.P,U1,1,D0*%
%TO.N,unconnected-(U1-D0-Pad1)*%
X126300000Y-77060000D03*
%TO.P,U1,2,D1*%
%TO.N,unconnected-(U1-D1-Pad2)*%
X126300000Y-79600000D03*
%TO.P,U1,3,D2*%
%TO.N,unconnected-(U1-D2-Pad3)*%
X126300000Y-82140000D03*
%TO.P,U1,4,D3*%
%TO.N,unconnected-(U1-D3-Pad4)*%
X126300000Y-84680000D03*
%TO.P,U1,5,D4*%
%TO.N,Net-(U1-D4)*%
X126300000Y-87220000D03*
%TO.P,U1,6,D5*%
%TO.N,Net-(U1-D5)*%
X126300000Y-89760000D03*
%TO.P,U1,7,D6*%
%TO.N,unconnected-(U1-D6-Pad7)*%
X126300000Y-92300000D03*
%TO.P,U1,8,D7*%
%TO.N,unconnected-(U1-D7-Pad8)*%
X143300000Y-92300000D03*
%TO.P,U1,9,D8*%
%TO.N,unconnected-(U1-D8-Pad9)*%
X143300000Y-89760000D03*
%TO.P,U1,10,D9*%
%TO.N,unconnected-(U1-D9-Pad10)*%
X143300000Y-87220000D03*
%TO.P,U1,11,D10*%
%TO.N,unconnected-(U1-D10-Pad11)*%
X143300000Y-84680000D03*
%TO.P,U1,12,VCC_3V3*%
%TO.N,Net-(U1-VCC_3V3)*%
X143300000Y-82140000D03*
%TO.P,U1,13,GND*%
%TO.N,GND*%
X143300000Y-79600000D03*
%TO.P,U1,14,VUSB*%
%TO.N,unconnected-(U1-VUSB-Pad14)*%
X143300000Y-77060000D03*
D14*
%TO.P,U1,15*%
%TO.N,N/C*%
X136900000Y-85280000D03*
D15*
%TO.P,U1,16*%
X130300000Y-84280000D03*
%TO.P,U1,17*%
X130300000Y-82380000D03*
D16*
%TO.P,U1,18*%
X133530000Y-76060000D03*
%TO.P,U1,19*%
X133530000Y-78640000D03*
%TO.P,U1,20*%
X133530000Y-81180000D03*
%TO.P,U1,21*%
X136070000Y-81180000D03*
%TO.P,U1,22*%
X136070000Y-78640000D03*
%TO.P,U1,23*%
X136070000Y-76060000D03*
%TD*%
D17*
%TO.P,J1,1*%
%TO.N,VCC*%
X126000000Y-104100000D03*
%TD*%
%TO.P,J2,1*%
%TO.N,GND*%
X119900000Y-74400000D03*
%TD*%
D18*
%TO.P,LIR2032,N*%
%TO.N,GND*%
X104500000Y-74562500D03*
%TO.P,LIR2032,P*%
%TO.N,VCC*%
X104500000Y-104637500D03*
%TD*%
D19*
%TO.N,Net-(U1-VCC_3V3)*%
X143300000Y-82140000D02*
X148840000Y-82140000D01*
X148840000Y-82140000D02*
X156950000Y-90250000D01*
X156950000Y-90250000D02*
X210769000Y-90250000D01*
D20*
%TO.N,Net-(U1-D4)*%
X124499000Y-93139058D02*
X125411942Y-94052000D01*
X126300000Y-87220000D02*
X127800000Y-87220000D01*
X126300000Y-87220000D02*
X126411000Y-87331000D01*
X210648000Y-94052000D02*
X213350000Y-91350000D01*
X124499000Y-87521000D02*
X124499000Y-93139058D01*
X213350000Y-91350000D02*
X213350000Y-91250000D01*
X125411942Y-94052000D02*
X210648000Y-94052000D01*
X124800000Y-87220000D02*
X124499000Y-87521000D01*
X126300000Y-87220000D02*
X124800000Y-87220000D01*
D21*
%TO.N,Net-(U1-D5)*%
X208474000Y-93626000D02*
X210850000Y-91250000D01*
X138084588Y-89760000D02*
X141950588Y-93626000D01*
X141950588Y-93626000D02*
X208474000Y-93626000D01*
X126300000Y-89760000D02*
X138084588Y-89760000D01*
D22*
%TO.N,VCC*%
X104500000Y-104637500D02*
X104968500Y-105106000D01*
X124994000Y-105106000D02*
X126000000Y-104100000D01*
X126000000Y-104100000D02*
X136400000Y-104100000D01*
X104968500Y-105106000D02*
X124994000Y-105106000D01*
X104500000Y-104637500D02*
X105758500Y-105896000D01*
%TD*%
%TA.AperFunction,Conductor*%
%TO.N,GND*%
G36*
X149402562Y-62200605D02*
G01*
X149849036Y-62219072D01*
X149859209Y-62219915D01*
X150300114Y-62274873D01*
X150310194Y-62276555D01*
X150745042Y-62367733D01*
X150754950Y-62370242D01*
X151180786Y-62497019D01*
X151190454Y-62500338D01*
X151531430Y-62633388D01*
X151604339Y-62661838D01*
X151613724Y-62665954D01*
X152012869Y-62861083D01*
X152021877Y-62865958D01*
X152403544Y-63093383D01*
X152412123Y-63098989D01*
X152773693Y-63357144D01*
X152781775Y-63363435D01*
X153120796Y-63650571D01*
X153128336Y-63657512D01*
X153442487Y-63971663D01*
X153449428Y-63979203D01*
X153736564Y-64318224D01*
X153742859Y-64326312D01*
X154001010Y-64687876D01*
X154006616Y-64696455D01*
X154234041Y-65078122D01*
X154238919Y-65087136D01*
X154434045Y-65486275D01*
X154438161Y-65495660D01*
X154599656Y-65909533D01*
X154602984Y-65919226D01*
X154729753Y-66345036D01*
X154732269Y-66354971D01*
X154823441Y-66789791D01*
X154825128Y-66799900D01*
X154880082Y-67240769D01*
X154880928Y-67250983D01*
X154899394Y-67697437D01*
X154899500Y-67702561D01*
X154899500Y-77243251D01*
X154935852Y-77728333D01*
X155008358Y-78209370D01*
X155116606Y-78683638D01*
X155259998Y-79148498D01*
X155437707Y-79601291D01*
X155437713Y-79601304D01*
X155437718Y-79601317D01*
X155468784Y-79665826D01*
X155648785Y-80039605D01*
X155648787Y-80039608D01*
X155786035Y-80277328D01*
X155892018Y-80460895D01*
X156134560Y-80816638D01*
X156166057Y-80862836D01*
X156342852Y-81084530D01*
X156469357Y-81243162D01*
X156800236Y-81599764D01*
X157151543Y-81925730D01*
X157156838Y-81930643D01*
X157289321Y-82036295D01*
X157537171Y-82233948D01*
X157939105Y-82507982D01*
X158112960Y-82608357D01*
X158360391Y-82751212D01*
X158360394Y-82751214D01*
X158467120Y-82802610D01*
X158798683Y-82962282D01*
X158798704Y-82962290D01*
X158798708Y-82962292D01*
X159251501Y-83140001D01*
X159251513Y-83140004D01*
X159251519Y-83140007D01*
X159431331Y-83195472D01*
X159716361Y-83283393D01*
X159716366Y-83283394D01*
X159716369Y-83283395D01*
X160190636Y-83391643D01*
X160666465Y-83463363D01*
X160671666Y-83464147D01*
X161156748Y-83500499D01*
X161156764Y-83500499D01*
X161156768Y-83500500D01*
X161334108Y-83500500D01*
X213034108Y-83500500D01*
X213097439Y-83500500D01*
X213102562Y-83500605D01*
X213549036Y-83519072D01*
X213559209Y-83519915D01*
X214000114Y-83574873D01*
X214010194Y-83576555D01*
X214445042Y-83667733D01*
X214454950Y-83670242D01*
X214880786Y-83797019D01*
X214890454Y-83800338D01*
X215121245Y-83890394D01*
X215304339Y-83961838D01*
X215313724Y-83965954D01*
X215470595Y-84042643D01*
X215712869Y-84161083D01*
X215721877Y-84165958D01*
X216103544Y-84393383D01*
X216112123Y-84398989D01*
X216473693Y-84657144D01*
X216481770Y-84663431D01*
X216752680Y-84892880D01*
X216820796Y-84950571D01*
X216828336Y-84957512D01*
X217142487Y-85271663D01*
X217149428Y-85279203D01*
X217436564Y-85618224D01*
X217442859Y-85626312D01*
X217701010Y-85987876D01*
X217706616Y-85996455D01*
X217934041Y-86378122D01*
X217938919Y-86387136D01*
X218134045Y-86786275D01*
X218138161Y-86795660D01*
X218299656Y-87209533D01*
X218302984Y-87219226D01*
X218429753Y-87645036D01*
X218432269Y-87654971D01*
X218523441Y-88089791D01*
X218525128Y-88099900D01*
X218580082Y-88540769D01*
X218580928Y-88550983D01*
X218599394Y-88997437D01*
X218599500Y-89002561D01*
X218599500Y-90497438D01*
X218599394Y-90502562D01*
X218580928Y-90949016D01*
X218580082Y-90959230D01*
X218525128Y-91400099D01*
X218523441Y-91410208D01*
X218432269Y-91845028D01*
X218429753Y-91854963D01*
X218302984Y-92280773D01*
X218299656Y-92290466D01*
X218138161Y-92704339D01*
X218134045Y-92713724D01*
X217938919Y-93112863D01*
X217934041Y-93121877D01*
X217706616Y-93503544D01*
X217701010Y-93512123D01*
X217442859Y-93873687D01*
X217436564Y-93881775D01*
X217149428Y-94220796D01*
X217142487Y-94228336D01*
X216828336Y-94542487D01*
X216820796Y-94549428D01*
X216481775Y-94836564D01*
X216473687Y-94842859D01*
X216112123Y-95101010D01*
X216103544Y-95106616D01*
X215721877Y-95334041D01*
X215712863Y-95338919D01*
X215313724Y-95534045D01*
X215304339Y-95538161D01*
X214890466Y-95699656D01*
X214880773Y-95702984D01*
X214454963Y-95829753D01*
X214445028Y-95832269D01*
X214010208Y-95923441D01*
X214000099Y-95925128D01*
X213559230Y-95980082D01*
X213549016Y-95980928D01*
X213102563Y-95999394D01*
X213097439Y-95999500D01*
X161156748Y-95999500D01*
X160671666Y-96035852D01*
X160190629Y-96108358D01*
X159716361Y-96216606D01*
X159251501Y-96359998D01*
X158798708Y-96537707D01*
X158798688Y-96537715D01*
X158798683Y-96537718D01*
X158798672Y-96537723D01*
X158798666Y-96537726D01*
X158360394Y-96748785D01*
X158360391Y-96748787D01*
X157939111Y-96992014D01*
X157537163Y-97266057D01*
X157156838Y-97569356D01*
X156800236Y-97900236D01*
X156469356Y-98256838D01*
X156166057Y-98637163D01*
X155892014Y-99039111D01*
X155648787Y-99460391D01*
X155648785Y-99460394D01*
X155437726Y-99898666D01*
X155437707Y-99898708D01*
X155259998Y-100351501D01*
X155116606Y-100816361D01*
X155008358Y-101290629D01*
X154935852Y-101771666D01*
X154899500Y-102256748D01*
X154899500Y-112397438D01*
X154899394Y-112402562D01*
X154880928Y-112849016D01*
X154880082Y-112859230D01*
X154825128Y-113300099D01*
X154823441Y-113310208D01*
X154732269Y-113745028D01*
X154729753Y-113754963D01*
X154602984Y-114180773D01*
X154599656Y-114190466D01*
X154438161Y-114604339D01*
X154434045Y-114613724D01*
X154238919Y-115012863D01*
X154234041Y-115021877D01*
X154006616Y-115403544D01*
X154001010Y-115412123D01*
X153742859Y-115773687D01*
X153736564Y-115781775D01*
X153449428Y-116120796D01*
X153442487Y-116128336D01*
X153128336Y-116442487D01*
X153120796Y-116449428D01*
X152781775Y-116736564D01*
X152773687Y-116742859D01*
X152412123Y-117001010D01*
X152403544Y-117006616D01*
X152021877Y-117234041D01*
X152012863Y-117238919D01*
X151613724Y-117434045D01*
X151604339Y-117438161D01*
X151190466Y-117599656D01*
X151180773Y-117602984D01*
X150754963Y-117729753D01*
X150745028Y-117732269D01*
X150310208Y-117823441D01*
X150300099Y-117825128D01*
X149859230Y-117880082D01*
X149849016Y-117880928D01*
X149402563Y-117899394D01*
X149397439Y-117899500D01*
X89702561Y-117899500D01*
X89697437Y-117899394D01*
X89250983Y-117880928D01*
X89240769Y-117880082D01*
X88799900Y-117825128D01*
X88789791Y-117823441D01*
X88354971Y-117732269D01*
X88345036Y-117729753D01*
X87919226Y-117602984D01*
X87909533Y-117599656D01*
X87495660Y-117438161D01*
X87486275Y-117434045D01*
X87087136Y-117238919D01*
X87078122Y-117234041D01*
X86696455Y-117006616D01*
X86687876Y-117001010D01*
X86326312Y-116742859D01*
X86318224Y-116736564D01*
X85979203Y-116449428D01*
X85971663Y-116442487D01*
X85657512Y-116128336D01*
X85650571Y-116120796D01*
X85363435Y-115781775D01*
X85357140Y-115773687D01*
X85098989Y-115412123D01*
X85093383Y-115403544D01*
X84865958Y-115021877D01*
X84861080Y-115012863D01*
X84665954Y-114613724D01*
X84661838Y-114604339D01*
X84633388Y-114531430D01*
X84500338Y-114190454D01*
X84497019Y-114180786D01*
X84370242Y-113754950D01*
X84367733Y-113745042D01*
X84276555Y-113310194D01*
X84274873Y-113300114D01*
X84219915Y-112859209D01*
X84219072Y-112849036D01*
X84200606Y-112402562D01*
X84200500Y-112397438D01*
X84200500Y-112293713D01*
X88349500Y-112293713D01*
X88349500Y-112506287D01*
X88382754Y-112716243D01*
X88427561Y-112854145D01*
X88448444Y-112918414D01*
X88544951Y-113107820D01*
X88669890Y-113279786D01*
X88820213Y-113430109D01*
X88992179Y-113555048D01*
X88992181Y-113555049D01*
X88992184Y-113555051D01*
X89181588Y-113651557D01*
X89383757Y-113717246D01*
X89593713Y-113750500D01*
X89593714Y-113750500D01*
X89806286Y-113750500D01*
X89806287Y-113750500D01*
X90016243Y-113717246D01*
X90218412Y-113651557D01*
X90407816Y-113555051D01*
X90429789Y-113539086D01*
X90579786Y-113430109D01*
X90579788Y-113430106D01*
X90579792Y-113430104D01*
X90730104Y-113279792D01*
X90730106Y-113279788D01*
X90730109Y-113279786D01*
X90855048Y-113107820D01*
X90855047Y-113107820D01*
X90855051Y-113107816D01*
X90951557Y-112918412D01*
X91017246Y-112716243D01*
X91050500Y-112506287D01*
X91050500Y-112293713D01*
X148049500Y-112293713D01*
X148049500Y-112506287D01*
X148082754Y-112716243D01*
X148127561Y-112854145D01*
X148148444Y-112918414D01*
X148244951Y-113107820D01*
X148369890Y-113279786D01*
X148520213Y-113430109D01*
X148692179Y-113555048D01*
X148692181Y-113555049D01*
X148692184Y-113555051D01*
X148881588Y-113651557D01*
X149083757Y-113717246D01*
X149293713Y-113750500D01*
X149293714Y-113750500D01*
X149506286Y-113750500D01*
X149506287Y-113750500D01*
X149716243Y-113717246D01*
X149918412Y-113651557D01*
X150107816Y-113555051D01*
X150129789Y-113539086D01*
X150279786Y-113430109D01*
X150279788Y-113430106D01*
X150279792Y-113430104D01*
X150430104Y-113279792D01*
X150430106Y-113279788D01*
X150430109Y-113279786D01*
X150555048Y-113107820D01*
X150555047Y-113107820D01*
X150555051Y-113107816D01*
X150651557Y-112918412D01*
X150717246Y-112716243D01*
X150750500Y-112506287D01*
X150750500Y-112293713D01*
X150717246Y-112083757D01*
X150651557Y-111881588D01*
X150555051Y-111692184D01*
X150555049Y-111692181D01*
X150555048Y-111692179D01*
X150430109Y-111520213D01*
X150279786Y-111369890D01*
X150107820Y-111244951D01*
X149918414Y-111148444D01*
X149918413Y-111148443D01*
X149918412Y-111148443D01*
X149716243Y-111082754D01*
X149716241Y-111082753D01*
X149716240Y-111082753D01*
X149554957Y-111057208D01*
X149506287Y-111049500D01*
X149293713Y-111049500D01*
X149245042Y-111057208D01*
X149083760Y-111082753D01*
X148881585Y-111148444D01*
X148692179Y-111244951D01*
X148520213Y-111369890D01*
X148369890Y-111520213D01*
X148244951Y-111692179D01*
X148148444Y-111881585D01*
X148082753Y-112083760D01*
X148049500Y-112293713D01*
X91050500Y-112293713D01*
X91017246Y-112083757D01*
X90951557Y-111881588D01*
X90855051Y-111692184D01*
X90855049Y-111692181D01*
X90855048Y-111692179D01*
X90730109Y-111520213D01*
X90579786Y-111369890D01*
X90407820Y-111244951D01*
X90218414Y-111148444D01*
X90218413Y-111148443D01*
X90218412Y-111148443D01*
X90016243Y-111082754D01*
X90016241Y-111082753D01*
X90016240Y-111082753D01*
X89854957Y-111057208D01*
X89806287Y-111049500D01*
X89593713Y-111049500D01*
X89545042Y-111057208D01*
X89383760Y-111082753D01*
X89181585Y-111148444D01*
X88992179Y-111244951D01*
X88820213Y-111369890D01*
X88669890Y-111520213D01*
X88544951Y-111692179D01*
X88448444Y-111881585D01*
X88382753Y-112083760D01*
X88349500Y-112293713D01*
X84200500Y-112293713D01*
X84200500Y-89260454D01*
X92499614Y-89260454D01*
X92499614Y-89939545D01*
X92506264Y-90056961D01*
X92538011Y-90617536D01*
X92538012Y-90617543D01*
X92538013Y-90617555D01*
X92614680Y-91292263D01*
X92614687Y-91292310D01*
X92729379Y-91961587D01*
X92729379Y-91961588D01*
X92881747Y-92623386D01*
X93071275Y-93275459D01*
X93071278Y-93275466D01*
X93297381Y-93915801D01*
X93559326Y-94542321D01*
X93856273Y-95153024D01*
X93856276Y-95153029D01*
X93856281Y-95153038D01*
X93856282Y-95153040D01*
X94011253Y-95430643D01*
X94187292Y-95745985D01*
X94551296Y-96319262D01*
X94551306Y-96319277D01*
X94947127Y-96871035D01*
X94947137Y-96871048D01*
X95373542Y-97399567D01*
X95373549Y-97399575D01*
X95829138Y-97903118D01*
X95829146Y-97903127D01*
X96069658Y-98140476D01*
X96312498Y-98380124D01*
X96822045Y-98829027D01*
X97356159Y-99248400D01*
X97913131Y-99636903D01*
X98491178Y-99993292D01*
X98782860Y-100151096D01*
X99088017Y-100316191D01*
X99088452Y-100316426D01*
X99703041Y-100605273D01*
X100236814Y-100820187D01*
X100291649Y-100863484D01*
X100314371Y-100929556D01*
X100314500Y-100935212D01*
X100314500Y-104139108D01*
X100314500Y-104270892D01*
X100322638Y-104301265D01*
X100348608Y-104398187D01*
X100368714Y-104433011D01*
X100414500Y-104512314D01*
X100507686Y-104605500D01*
X100621814Y-104671392D01*
X100749108Y-104705500D01*
X102420500Y-104705500D01*
X102487539Y-104725185D01*
X102533294Y-104777989D01*
X102544500Y-104829500D01*
X102544500Y-106194752D01*
X102556131Y-106253229D01*
X102556132Y-106253230D01*
X102600447Y-106319552D01*
X102666769Y-106363867D01*
X102666770Y-106363868D01*
X102725247Y-106375499D01*
X102725250Y-106375500D01*
X102725252Y-106375500D01*
X105354792Y-106375500D01*
X105416792Y-106392113D01*
X105526716Y-106455577D01*
X105679443Y-106496501D01*
X105679445Y-106496501D01*
X105837556Y-106496501D01*
X105837558Y-106496501D01*
X105990285Y-106455577D01*
X106100209Y-106392111D01*
X106162207Y-106375500D01*
X106274750Y-106375500D01*
X106274751Y-106375499D01*
X106289568Y-106372552D01*
X106333229Y-106363868D01*
X106333229Y-106363867D01*
X106333231Y-106363867D01*
X106399552Y-106319552D01*
X106443867Y-106253231D01*
X106443867Y-106253229D01*
X106443868Y-106253229D01*
X106455499Y-106194752D01*
X106455500Y-106194750D01*
X106455500Y-105830500D01*
X106475185Y-105763461D01*
X106527989Y-105717706D01*
X106579500Y-105706500D01*
X124907331Y-105706500D01*
X124907347Y-105706501D01*
X124914943Y-105706501D01*
X125073054Y-105706501D01*
X125073057Y-105706501D01*
X125225785Y-105665577D01*
X125275904Y-105636639D01*
X125362716Y-105586520D01*
X125474520Y-105474716D01*
X125474521Y-105474713D01*
X125762417Y-105186816D01*
X125823739Y-105153334D01*
X125850097Y-105150500D01*
X126869750Y-105150500D01*
X126869751Y-105150499D01*
X126884568Y-105147552D01*
X126928229Y-105138868D01*
X126928229Y-105138867D01*
X126928231Y-105138867D01*
X126994552Y-105094552D01*
X127038867Y-105028231D01*
X127038867Y-105028229D01*
X127038868Y-105028229D01*
X127050499Y-104969752D01*
X127050500Y-104969750D01*
X127050500Y-104824500D01*
X127070185Y-104757461D01*
X127122989Y-104711706D01*
X127174500Y-104700500D01*
X134953001Y-104700500D01*
X135020040Y-104720185D01*
X135065795Y-104772989D01*
X135077001Y-104824500D01*
X135077001Y-105099264D01*
X135079854Y-105129697D01*
X135079854Y-105129698D01*
X135079854Y-105129699D01*
X135124706Y-105257881D01*
X135124707Y-105257882D01*
X135205350Y-105367150D01*
X135314618Y-105447793D01*
X135442802Y-105492646D01*
X135442801Y-105492646D01*
X135446771Y-105493018D01*
X135473235Y-105495500D01*
X137326764Y-105495499D01*
X137357198Y-105492646D01*
X137485382Y-105447793D01*
X137594650Y-105367150D01*
X137675293Y-105257882D01*
X137720146Y-105129698D01*
X137723000Y-105099265D01*
X137723000Y-105094985D01*
X139892500Y-105094985D01*
X139902993Y-105197689D01*
X139902994Y-105197696D01*
X139958141Y-105364118D01*
X139958143Y-105364123D01*
X140050184Y-105513344D01*
X140174155Y-105637315D01*
X140323376Y-105729356D01*
X140323381Y-105729358D01*
X140489803Y-105784505D01*
X140489810Y-105784506D01*
X140592514Y-105794999D01*
X140592527Y-105795000D01*
X141265000Y-105795000D01*
X141765000Y-105795000D01*
X142437473Y-105795000D01*
X142437485Y-105794999D01*
X142540189Y-105784506D01*
X142540196Y-105784505D01*
X142706618Y-105729358D01*
X142706623Y-105729356D01*
X142855844Y-105637315D01*
X142979815Y-105513344D01*
X143071856Y-105364123D01*
X143071858Y-105364118D01*
X143127005Y-105197696D01*
X143127006Y-105197689D01*
X143137499Y-105094985D01*
X143137500Y-105094972D01*
X143137500Y-104350000D01*
X141765000Y-104350000D01*
X141765000Y-105795000D01*
X141265000Y-105795000D01*
X141265000Y-104350000D01*
X139892500Y-104350000D01*
X139892500Y-105094985D01*
X137723000Y-105094985D01*
X137722999Y-103850000D01*
X137722999Y-103105014D01*
X139892500Y-103105014D01*
X139892500Y-103850000D01*
X141265000Y-103850000D01*
X141765000Y-103850000D01*
X143137500Y-103850000D01*
X143137500Y-103105027D01*
X143137499Y-103105014D01*
X143127006Y-103002310D01*
X143127005Y-103002303D01*
X143071858Y-102835881D01*
X143071856Y-102835876D01*
X142979815Y-102686655D01*
X142855844Y-102562684D01*
X142706623Y-102470643D01*
X142706618Y-102470641D01*
X142540196Y-102415494D01*
X142540189Y-102415493D01*
X142437485Y-102405000D01*
X141765000Y-102405000D01*
X141765000Y-103850000D01*
X141265000Y-103850000D01*
X141265000Y-102405000D01*
X140592514Y-102405000D01*
X140489810Y-102415493D01*
X140489803Y-102415494D01*
X140323381Y-102470641D01*
X140323376Y-102470643D01*
X140174155Y-102562684D01*
X140050184Y-102686655D01*
X139958143Y-102835876D01*
X139958141Y-102835881D01*
X139902994Y-103002303D01*
X139902993Y-103002310D01*
X139892500Y-103105014D01*
X137722999Y-103105014D01*
X137722999Y-103101865D01*
X137722999Y-103100741D01*
X137722999Y-103100736D01*
X137720146Y-103070302D01*
X137675293Y-102942118D01*
X137594650Y-102832850D01*
X137485382Y-102752207D01*
X137485381Y-102752206D01*
X137357195Y-102707353D01*
X137357198Y-102707353D01*
X137326768Y-102704500D01*
X135473241Y-102704500D01*
X135442801Y-102707354D01*
X135442800Y-102707354D01*
X135314618Y-102752206D01*
X135205350Y-102832850D01*
X135124706Y-102942118D01*
X135079853Y-103070302D01*
X135077000Y-103100731D01*
X135077000Y-103375500D01*
X135057315Y-103442539D01*
X135004511Y-103488294D01*
X134953000Y-103499500D01*
X127174500Y-103499500D01*
X127107461Y-103479815D01*
X127061706Y-103427011D01*
X127050500Y-103375500D01*
X127050500Y-103230249D01*
X127050499Y-103230247D01*
X127038868Y-103171770D01*
X127038867Y-103171769D01*
X126994552Y-103105447D01*
X126928230Y-103061132D01*
X126928229Y-103061131D01*
X126869752Y-103049500D01*
X126869748Y-103049500D01*
X125130252Y-103049500D01*
X125130247Y-103049500D01*
X125071770Y-103061131D01*
X125071769Y-103061132D01*
X125005447Y-103105447D01*
X124961132Y-103171769D01*
X124961131Y-103171770D01*
X124949500Y-103230247D01*
X124949500Y-104249903D01*
X124940855Y-104279343D01*
X124934332Y-104309330D01*
X124930577Y-104314345D01*
X124929815Y-104316942D01*
X124913181Y-104337584D01*
X124781584Y-104469181D01*
X124720261Y-104502666D01*
X124693903Y-104505500D01*
X108784237Y-104505500D01*
X108717198Y-104485815D01*
X108671443Y-104433011D01*
X108661499Y-104363853D01*
X108664462Y-104349407D01*
X108667630Y-104337584D01*
X108685500Y-104270892D01*
X108685500Y-100935212D01*
X108705185Y-100868173D01*
X108757989Y-100822418D01*
X108763159Y-100820197D01*
X109296959Y-100605273D01*
X109911548Y-100316426D01*
X110508822Y-99993292D01*
X111086869Y-99636903D01*
X111643841Y-99248400D01*
X112177955Y-98829027D01*
X112687502Y-98380124D01*
X113170852Y-97903128D01*
X113626458Y-97399566D01*
X114052863Y-96871048D01*
X114448701Y-96319266D01*
X114812708Y-95745985D01*
X115143718Y-95153040D01*
X115440671Y-94542326D01*
X115702619Y-93915800D01*
X115928722Y-93275465D01*
X115934657Y-93255048D01*
X116118252Y-92623386D01*
X116118251Y-92623386D01*
X116118257Y-92623369D01*
X116270618Y-91961601D01*
X116385318Y-91292276D01*
X116461989Y-90617536D01*
X116500386Y-89939541D01*
X116500386Y-89260459D01*
X116461989Y-88582464D01*
X116385318Y-87907724D01*
X116312267Y-87481438D01*
X124198500Y-87481438D01*
X124198500Y-93178620D01*
X124211735Y-93228011D01*
X124218979Y-93255048D01*
X124218980Y-93255049D01*
X124245221Y-93300500D01*
X124258540Y-93323569D01*
X125171482Y-94236511D01*
X125227431Y-94292460D01*
X125227433Y-94292461D01*
X125227437Y-94292464D01*
X125295946Y-94332017D01*
X125295953Y-94332021D01*
X125372380Y-94352500D01*
X125372382Y-94352500D01*
X210687560Y-94352500D01*
X210687562Y-94352500D01*
X210763989Y-94332021D01*
X210832511Y-94292460D01*
X210888460Y-94236511D01*
X213388152Y-91736819D01*
X213449475Y-91703334D01*
X213475833Y-91700500D01*
X213619750Y-91700500D01*
X213619751Y-91700499D01*
X213634568Y-91697552D01*
X213678229Y-91688868D01*
X213678229Y-91688867D01*
X213678231Y-91688867D01*
X213744552Y-91644552D01*
X213788867Y-91578231D01*
X213788867Y-91578229D01*
X213788868Y-91578229D01*
X213800499Y-91519752D01*
X213800500Y-91519750D01*
X213800500Y-91036556D01*
X213820185Y-90969517D01*
X213850189Y-90937290D01*
X213957187Y-90857190D01*
X213957190Y-90857187D01*
X214043350Y-90742093D01*
X214043354Y-90742086D01*
X214093596Y-90607379D01*
X214093598Y-90607372D01*
X214099999Y-90547844D01*
X214100000Y-90547827D01*
X214100000Y-90500000D01*
X213474000Y-90500000D01*
X213406961Y-90480315D01*
X213361206Y-90427511D01*
X213350000Y-90376000D01*
X213350000Y-90124000D01*
X213369685Y-90056961D01*
X213422489Y-90011206D01*
X213474000Y-90000000D01*
X214100000Y-90000000D01*
X214100000Y-89952172D01*
X214099999Y-89952155D01*
X214093598Y-89892627D01*
X214093596Y-89892620D01*
X214043354Y-89757913D01*
X214043350Y-89757906D01*
X213957190Y-89642812D01*
X213850188Y-89562709D01*
X213808318Y-89506775D01*
X213800500Y-89463443D01*
X213800500Y-88980249D01*
X213800499Y-88980247D01*
X213788868Y-88921770D01*
X213788867Y-88921769D01*
X213744552Y-88855447D01*
X213678230Y-88811132D01*
X213678229Y-88811131D01*
X213619752Y-88799500D01*
X213619748Y-88799500D01*
X213080252Y-88799500D01*
X213080247Y-88799500D01*
X213021770Y-88811131D01*
X213021770Y-88811132D01*
X212985221Y-88835553D01*
X212918543Y-88856430D01*
X212888739Y-88853341D01*
X212850006Y-88844500D01*
X212850000Y-88844500D01*
X211350000Y-88844500D01*
X211349995Y-88844500D01*
X211293880Y-88850823D01*
X211293492Y-88847386D01*
X211241934Y-88847116D01*
X211208600Y-88831425D01*
X211178231Y-88811132D01*
X211178229Y-88811131D01*
X211119752Y-88799500D01*
X211119748Y-88799500D01*
X210580252Y-88799500D01*
X210580247Y-88799500D01*
X210521770Y-88811131D01*
X210521769Y-88811132D01*
X210455447Y-88855447D01*
X210411132Y-88921769D01*
X210411131Y-88921770D01*
X210399500Y-88980247D01*
X210399500Y-88980252D01*
X210399500Y-89519748D01*
X210399500Y-89519750D01*
X210399499Y-89519750D01*
X210400805Y-89526312D01*
X210394576Y-89595904D01*
X210351711Y-89651080D01*
X210285821Y-89674322D01*
X210279187Y-89674500D01*
X157239742Y-89674500D01*
X157172703Y-89654815D01*
X157152061Y-89638181D01*
X149193367Y-81679487D01*
X149193365Y-81679485D01*
X149127750Y-81641602D01*
X149062136Y-81603719D01*
X148984287Y-81582860D01*
X148915766Y-81564500D01*
X148915765Y-81564500D01*
X145101436Y-81564500D01*
X145034397Y-81544815D01*
X144988642Y-81492011D01*
X144983054Y-81477400D01*
X144943478Y-81350394D01*
X144855472Y-81204815D01*
X144855470Y-81204813D01*
X144855469Y-81204811D01*
X144735188Y-81084530D01*
X144693823Y-81059524D01*
X144589606Y-80996522D01*
X144427196Y-80945914D01*
X144427194Y-80945913D01*
X144427192Y-80945913D01*
X144377778Y-80941423D01*
X144356616Y-80939500D01*
X144337310Y-80939500D01*
X144270271Y-80919815D01*
X144249629Y-80903181D01*
X143429410Y-80082962D01*
X143492993Y-80065925D01*
X143607007Y-80000099D01*
X143700099Y-79907007D01*
X143765925Y-79792993D01*
X143782962Y-79729411D01*
X144930081Y-80876530D01*
X144930083Y-80876530D01*
X145010753Y-80810753D01*
X145139278Y-80653129D01*
X145233442Y-80472861D01*
X145289390Y-80277328D01*
X145289391Y-80277325D01*
X145299999Y-80158000D01*
X145300000Y-80157998D01*
X145300000Y-79042002D01*
X145299999Y-79041999D01*
X145289391Y-78922674D01*
X145289390Y-78922671D01*
X145233442Y-78727138D01*
X145139278Y-78546870D01*
X145010754Y-78389248D01*
X144930083Y-78323468D01*
X144930082Y-78323468D01*
X143782962Y-79470588D01*
X143765925Y-79407007D01*
X143700099Y-79292993D01*
X143607007Y-79199901D01*
X143492993Y-79134075D01*
X143429410Y-79117037D01*
X144249629Y-78296819D01*
X144310952Y-78263334D01*
X144337310Y-78260500D01*
X144356613Y-78260500D01*
X144356616Y-78260500D01*
X144427196Y-78254086D01*
X144589606Y-78203478D01*
X144735185Y-78115472D01*
X144855472Y-77995185D01*
X144943478Y-77849606D01*
X144994086Y-77687196D01*
X145000500Y-77616616D01*
X145000500Y-76503384D01*
X144994086Y-76432804D01*
X144943478Y-76270394D01*
X144855472Y-76124815D01*
X144855470Y-76124813D01*
X144855469Y-76124811D01*
X144735188Y-76004530D01*
X144688379Y-75976233D01*
X144589606Y-75916522D01*
X144427196Y-75865914D01*
X144427194Y-75865913D01*
X144427192Y-75865913D01*
X144377778Y-75861423D01*
X144356616Y-75859500D01*
X142243384Y-75859500D01*
X142224145Y-75861248D01*
X142172807Y-75865913D01*
X142010393Y-75916522D01*
X141864811Y-76004530D01*
X141744530Y-76124811D01*
X141656522Y-76270393D01*
X141605913Y-76432807D01*
X141599500Y-76503386D01*
X141599500Y-77616613D01*
X141605913Y-77687192D01*
X141656522Y-77849606D01*
X141744530Y-77995188D01*
X141864811Y-78115469D01*
X141864813Y-78115470D01*
X141864815Y-78115472D01*
X142010394Y-78203478D01*
X142172804Y-78254086D01*
X142243384Y-78260500D01*
X142243387Y-78260500D01*
X142262690Y-78260500D01*
X142329729Y-78280185D01*
X142350371Y-78296819D01*
X143170589Y-79117037D01*
X143107007Y-79134075D01*
X142992993Y-79199901D01*
X142899901Y-79292993D01*
X142834075Y-79407007D01*
X142817037Y-79470589D01*
X141669916Y-78323468D01*
X141669915Y-78323468D01*
X141589249Y-78389244D01*
X141460721Y-78546870D01*
X141366557Y-78727138D01*
X141310609Y-78922671D01*
X141310608Y-78922674D01*
X141300000Y-79041999D01*
X141300000Y-80158000D01*
X141310608Y-80277325D01*
X141310609Y-80277328D01*
X141366557Y-80472861D01*
X141460721Y-80653129D01*
X141589249Y-80810756D01*
X141669914Y-80876531D01*
X141669916Y-80876530D01*
X142817037Y-79729408D01*
X142834075Y-79792993D01*
X142899901Y-79907007D01*
X142992993Y-80000099D01*
X143107007Y-80065925D01*
X143170589Y-80082962D01*
X142350371Y-80903181D01*
X142289048Y-80936666D01*
X142262690Y-80939500D01*
X142243384Y-80939500D01*
X142224145Y-80941248D01*
X142172807Y-80945913D01*
X142010393Y-80996522D01*
X141864811Y-81084530D01*
X141744530Y-81204811D01*
X141656522Y-81350393D01*
X141605913Y-81512807D01*
X141604137Y-81532353D01*
X141599548Y-81582863D01*
X141599500Y-81583386D01*
X141599500Y-82696613D01*
X141605913Y-82767192D01*
X141605913Y-82767194D01*
X141605914Y-82767196D01*
X141656522Y-82929606D01*
X141676281Y-82962292D01*
X141744530Y-83075188D01*
X141864811Y-83195469D01*
X141864813Y-83195470D01*
X141864815Y-83195472D01*
X142010394Y-83283478D01*
X142010397Y-83283479D01*
X142010396Y-83283479D01*
X142036505Y-83291615D01*
X142094653Y-83330352D01*
X142122627Y-83394378D01*
X142111545Y-83463363D01*
X142064927Y-83515406D01*
X142036505Y-83528385D01*
X142010397Y-83536520D01*
X141864811Y-83624530D01*
X141744530Y-83744811D01*
X141656522Y-83890393D01*
X141605913Y-84052807D01*
X141599500Y-84123386D01*
X141599500Y-85236613D01*
X141605913Y-85307192D01*
X141656522Y-85469606D01*
X141744530Y-85615188D01*
X141864811Y-85735469D01*
X141864813Y-85735470D01*
X141864815Y-85735472D01*
X142010394Y-85823478D01*
X142010397Y-85823479D01*
X142010396Y-85823479D01*
X142036505Y-85831615D01*
X142094653Y-85870352D01*
X142122627Y-85934378D01*
X142111545Y-86003363D01*
X142064927Y-86055406D01*
X142036505Y-86068385D01*
X142010397Y-86076520D01*
X141864811Y-86164530D01*
X141744530Y-86284811D01*
X141656522Y-86430393D01*
X141605913Y-86592807D01*
X141599500Y-86663386D01*
X141599500Y-87776613D01*
X141605913Y-87847192D01*
X141656522Y-88009606D01*
X141744530Y-88155188D01*
X141864811Y-88275469D01*
X141864813Y-88275470D01*
X141864815Y-88275472D01*
X142010394Y-88363478D01*
X142010397Y-88363479D01*
X142010396Y-88363479D01*
X142036505Y-88371615D01*
X142094653Y-88410352D01*
X142122627Y-88474378D01*
X142111545Y-88543363D01*
X142064927Y-88595406D01*
X142036505Y-88608385D01*
X142010397Y-88616520D01*
X141864811Y-88704530D01*
X141744530Y-88824811D01*
X141656522Y-88970393D01*
X141605913Y-89132807D01*
X141599500Y-89203386D01*
X141599500Y-90316613D01*
X141605913Y-90387192D01*
X141605913Y-90387194D01*
X141605914Y-90387196D01*
X141641863Y-90502562D01*
X141656522Y-90549606D01*
X141744530Y-90695188D01*
X141864811Y-90815469D01*
X141864813Y-90815470D01*
X141864815Y-90815472D01*
X142010394Y-90903478D01*
X142010397Y-90903479D01*
X142010396Y-90903479D01*
X142036505Y-90911615D01*
X142094653Y-90950352D01*
X142122627Y-91014378D01*
X142111545Y-91083363D01*
X142064927Y-91135406D01*
X142036505Y-91148385D01*
X142010397Y-91156520D01*
X141864811Y-91244530D01*
X141744530Y-91364811D01*
X141656522Y-91510393D01*
X141605913Y-91672807D01*
X141599500Y-91743386D01*
X141599500Y-92515223D01*
X141579815Y-92582262D01*
X141527011Y-92628017D01*
X141457853Y-92637961D01*
X141394297Y-92608936D01*
X141387819Y-92602904D01*
X138284452Y-89499537D01*
X138284450Y-89499535D01*
X138247338Y-89478108D01*
X138210228Y-89456682D01*
X138168834Y-89445591D01*
X138127441Y-89434500D01*
X138127440Y-89434500D01*
X128124500Y-89434500D01*
X128057461Y-89414815D01*
X128011706Y-89362011D01*
X128000500Y-89310500D01*
X128000500Y-89203386D01*
X127994086Y-89132807D01*
X127994086Y-89132804D01*
X127943478Y-88970394D01*
X127855472Y-88824815D01*
X127855470Y-88824813D01*
X127855469Y-88824811D01*
X127735188Y-88704530D01*
X127735185Y-88704528D01*
X127589606Y-88616522D01*
X127563493Y-88608385D01*
X127505346Y-88569648D01*
X127477372Y-88505623D01*
X127488453Y-88436638D01*
X127535072Y-88384595D01*
X127563492Y-88371615D01*
X127589606Y-88363478D01*
X127735185Y-88275472D01*
X127855472Y-88155185D01*
X127943478Y-88009606D01*
X127994086Y-87847196D01*
X128000500Y-87776616D01*
X128000500Y-87495833D01*
X128020185Y-87428794D01*
X128036819Y-87408152D01*
X128040460Y-87404511D01*
X128080021Y-87335989D01*
X128100500Y-87259562D01*
X128100500Y-87180438D01*
X128080021Y-87104011D01*
X128078946Y-87102149D01*
X128040464Y-87035495D01*
X128040458Y-87035487D01*
X128036819Y-87031848D01*
X128003334Y-86970525D01*
X128000500Y-86944167D01*
X128000500Y-86663386D01*
X127994086Y-86592807D01*
X127994086Y-86592804D01*
X127943478Y-86430394D01*
X127855472Y-86284815D01*
X127855470Y-86284813D01*
X127855469Y-86284811D01*
X127735188Y-86164530D01*
X127735185Y-86164528D01*
X127589606Y-86076522D01*
X127563493Y-86068385D01*
X127505346Y-86029648D01*
X127477372Y-85965623D01*
X127488453Y-85896638D01*
X127535072Y-85844595D01*
X127563492Y-85831615D01*
X127589606Y-85823478D01*
X127735185Y-85735472D01*
X127855472Y-85615185D01*
X127943478Y-85469606D01*
X127994086Y-85307196D01*
X128000500Y-85236616D01*
X128000500Y-84123384D01*
X127994086Y-84052804D01*
X127943478Y-83890394D01*
X127855472Y-83744815D01*
X127855470Y-83744813D01*
X127855469Y-83744811D01*
X127735188Y-83624530D01*
X127655833Y-83576558D01*
X127589606Y-83536522D01*
X127563493Y-83528385D01*
X127505346Y-83489648D01*
X127477372Y-83425623D01*
X127488453Y-83356638D01*
X127535072Y-83304595D01*
X127563492Y-83291615D01*
X127589606Y-83283478D01*
X127735185Y-83195472D01*
X127855472Y-83075185D01*
X127943478Y-82929606D01*
X127994086Y-82767196D01*
X128000500Y-82696616D01*
X128000500Y-81925730D01*
X128949500Y-81925730D01*
X128949500Y-82834269D01*
X128952353Y-82864699D01*
X128952353Y-82864701D01*
X128986503Y-82962292D01*
X128997207Y-82992882D01*
X129077850Y-83102150D01*
X129187118Y-83182793D01*
X129217853Y-83193547D01*
X129273326Y-83212959D01*
X129330102Y-83253681D01*
X129355849Y-83318634D01*
X129342392Y-83387195D01*
X129294005Y-83437598D01*
X129273326Y-83447041D01*
X129187119Y-83477206D01*
X129187117Y-83477207D01*
X129077850Y-83557850D01*
X128997207Y-83667117D01*
X128997206Y-83667119D01*
X128952353Y-83795298D01*
X128952353Y-83795300D01*
X128949500Y-83825730D01*
X128949500Y-84734269D01*
X128952353Y-84764699D01*
X128952353Y-84764701D01*
X128997206Y-84892880D01*
X128997207Y-84892882D01*
X129077850Y-85002150D01*
X129187118Y-85082793D01*
X129229845Y-85097744D01*
X129315299Y-85127646D01*
X129345730Y-85130500D01*
X129345734Y-85130500D01*
X131254270Y-85130500D01*
X131284699Y-85127646D01*
X131284701Y-85127646D01*
X131348790Y-85105219D01*
X131412882Y-85082793D01*
X131522150Y-85002150D01*
X131602793Y-84892882D01*
X131625219Y-84828790D01*
X131647646Y-84764701D01*
X131647646Y-84764699D01*
X131650500Y-84734269D01*
X131650500Y-83825730D01*
X131647646Y-83795302D01*
X131647646Y-83795301D01*
X131623302Y-83725730D01*
X134949500Y-83725730D01*
X134949500Y-86834269D01*
X134952353Y-86864699D01*
X134952353Y-86864701D01*
X134997206Y-86992880D01*
X134997207Y-86992882D01*
X135077850Y-87102150D01*
X135187118Y-87182793D01*
X135229845Y-87197744D01*
X135315299Y-87227646D01*
X135345730Y-87230500D01*
X135345734Y-87230500D01*
X138454270Y-87230500D01*
X138484699Y-87227646D01*
X138484701Y-87227646D01*
X138548790Y-87205219D01*
X138612882Y-87182793D01*
X138722150Y-87102150D01*
X138802793Y-86992882D01*
X138825219Y-86928790D01*
X138847646Y-86864701D01*
X138847646Y-86864699D01*
X138850500Y-86834269D01*
X138850500Y-83725730D01*
X138847646Y-83695300D01*
X138847646Y-83695298D01*
X138802793Y-83567119D01*
X138802792Y-83567117D01*
X138780212Y-83536522D01*
X138722150Y-83457850D01*
X138612882Y-83377207D01*
X138612880Y-83377206D01*
X138484700Y-83332353D01*
X138454270Y-83329500D01*
X138454266Y-83329500D01*
X135345734Y-83329500D01*
X135345730Y-83329500D01*
X135315300Y-83332353D01*
X135315298Y-83332353D01*
X135187119Y-83377206D01*
X135187117Y-83377207D01*
X135077850Y-83457850D01*
X134997207Y-83567117D01*
X134997206Y-83567119D01*
X134952353Y-83695298D01*
X134952353Y-83695300D01*
X134949500Y-83725730D01*
X131623302Y-83725730D01*
X131602793Y-83667118D01*
X131522150Y-83557850D01*
X131412882Y-83477207D01*
X131412880Y-83477206D01*
X131326673Y-83447041D01*
X131269897Y-83406319D01*
X131244150Y-83341367D01*
X131257606Y-83272805D01*
X131305994Y-83222402D01*
X131326673Y-83212959D01*
X131376647Y-83195472D01*
X131412882Y-83182793D01*
X131522150Y-83102150D01*
X131602793Y-82992882D01*
X131626078Y-82926337D01*
X131647646Y-82864701D01*
X131647646Y-82864699D01*
X131650500Y-82834269D01*
X131650500Y-81925730D01*
X131647646Y-81895300D01*
X131647646Y-81895298D01*
X131602793Y-81767119D01*
X131602792Y-81767117D01*
X131569614Y-81722162D01*
X131522150Y-81657850D01*
X131412882Y-81577207D01*
X131412880Y-81577206D01*
X131284700Y-81532353D01*
X131254270Y-81529500D01*
X131254266Y-81529500D01*
X129345734Y-81529500D01*
X129345730Y-81529500D01*
X129315300Y-81532353D01*
X129315298Y-81532353D01*
X129187119Y-81577206D01*
X129187117Y-81577207D01*
X129077850Y-81657850D01*
X128997207Y-81767117D01*
X128997206Y-81767119D01*
X128952353Y-81895298D01*
X128952353Y-81895300D01*
X128949500Y-81925730D01*
X128000500Y-81925730D01*
X128000500Y-81583384D01*
X127994086Y-81512804D01*
X127943478Y-81350394D01*
X127855472Y-81204815D01*
X127855470Y-81204813D01*
X127855469Y-81204811D01*
X127746886Y-81096228D01*
X132679500Y-81096228D01*
X132679500Y-81263771D01*
X132712182Y-81428074D01*
X132712184Y-81428082D01*
X132776295Y-81582860D01*
X132869373Y-81722162D01*
X132987837Y-81840626D01*
X133080494Y-81902537D01*
X133127137Y-81933703D01*
X133281918Y-81997816D01*
X133446228Y-82030499D01*
X133446232Y-82030500D01*
X133446233Y-82030500D01*
X133613768Y-82030500D01*
X133613769Y-82030499D01*
X133778082Y-81997816D01*
X133932863Y-81933703D01*
X134072162Y-81840626D01*
X134190626Y-81722162D01*
X134283703Y-81582863D01*
X134347816Y-81428082D01*
X134380500Y-81263767D01*
X134380500Y-81096233D01*
X134380499Y-81096228D01*
X135219500Y-81096228D01*
X135219500Y-81263771D01*
X135252182Y-81428074D01*
X135252184Y-81428082D01*
X135316295Y-81582860D01*
X135409373Y-81722162D01*
X135527837Y-81840626D01*
X135620494Y-81902537D01*
X135667137Y-81933703D01*
X135821918Y-81997816D01*
X135986228Y-82030499D01*
X135986232Y-82030500D01*
X135986233Y-82030500D01*
X136153768Y-82030500D01*
X136153769Y-82030499D01*
X136318082Y-81997816D01*
X136472863Y-81933703D01*
X136612162Y-81840626D01*
X136730626Y-81722162D01*
X136823703Y-81582863D01*
X136887816Y-81428082D01*
X136920500Y-81263767D01*
X136920500Y-81096233D01*
X136887816Y-80931918D01*
X136823703Y-80777137D01*
X136742407Y-80655469D01*
X136730626Y-80637837D01*
X136612162Y-80519373D01*
X136472860Y-80426295D01*
X136318082Y-80362184D01*
X136318074Y-80362182D01*
X136153771Y-80329500D01*
X136153767Y-80329500D01*
X135986233Y-80329500D01*
X135986228Y-80329500D01*
X135821925Y-80362182D01*
X135821917Y-80362184D01*
X135667139Y-80426295D01*
X135527837Y-80519373D01*
X135409373Y-80637837D01*
X135316295Y-80777139D01*
X135252184Y-80931917D01*
X135252182Y-80931925D01*
X135219500Y-81096228D01*
X134380499Y-81096228D01*
X134347816Y-80931918D01*
X134283703Y-80777137D01*
X134202407Y-80655469D01*
X134190626Y-80637837D01*
X134072162Y-80519373D01*
X133932860Y-80426295D01*
X133778082Y-80362184D01*
X133778074Y-80362182D01*
X133613771Y-80329500D01*
X133613767Y-80329500D01*
X133446233Y-80329500D01*
X133446228Y-80329500D01*
X133281925Y-80362182D01*
X133281917Y-80362184D01*
X133127139Y-80426295D01*
X132987837Y-80519373D01*
X132869373Y-80637837D01*
X132776295Y-80777139D01*
X132712184Y-80931917D01*
X132712182Y-80931925D01*
X132679500Y-81096228D01*
X127746886Y-81096228D01*
X127735188Y-81084530D01*
X127735185Y-81084528D01*
X127589606Y-80996522D01*
X127563493Y-80988385D01*
X127505346Y-80949648D01*
X127477372Y-80885623D01*
X127488453Y-80816638D01*
X127535072Y-80764595D01*
X127563492Y-80751615D01*
X127589606Y-80743478D01*
X127735185Y-80655472D01*
X127855472Y-80535185D01*
X127943478Y-80389606D01*
X127994086Y-80227196D01*
X128000500Y-80156616D01*
X128000500Y-79043384D01*
X127994086Y-78972804D01*
X127943478Y-78810394D01*
X127855472Y-78664815D01*
X127855470Y-78664813D01*
X127855469Y-78664811D01*
X127746886Y-78556228D01*
X132679500Y-78556228D01*
X132679500Y-78723771D01*
X132712182Y-78888074D01*
X132712184Y-78888082D01*
X132776295Y-79042860D01*
X132869373Y-79182162D01*
X132987837Y-79300626D01*
X133080494Y-79362537D01*
X133127137Y-79393703D01*
X133281918Y-79457816D01*
X133446228Y-79490499D01*
X133446232Y-79490500D01*
X133446233Y-79490500D01*
X133613768Y-79490500D01*
X133613769Y-79490499D01*
X133778082Y-79457816D01*
X133932863Y-79393703D01*
X134072162Y-79300626D01*
X134190626Y-79182162D01*
X134283703Y-79042863D01*
X134347816Y-78888082D01*
X134380500Y-78723767D01*
X134380500Y-78556233D01*
X134380499Y-78556228D01*
X135219500Y-78556228D01*
X135219500Y-78723771D01*
X135252182Y-78888074D01*
X135252184Y-78888082D01*
X135316295Y-79042860D01*
X135409373Y-79182162D01*
X135527837Y-79300626D01*
X135620494Y-79362537D01*
X135667137Y-79393703D01*
X135821918Y-79457816D01*
X135986228Y-79490499D01*
X135986232Y-79490500D01*
X135986233Y-79490500D01*
X136153768Y-79490500D01*
X136153769Y-79490499D01*
X136318082Y-79457816D01*
X136472863Y-79393703D01*
X136612162Y-79300626D01*
X136730626Y-79182162D01*
X136823703Y-79042863D01*
X136835777Y-79013714D01*
X136844857Y-78991794D01*
X136855421Y-78966289D01*
X136887816Y-78888082D01*
X136920500Y-78723767D01*
X136920500Y-78556233D01*
X136887816Y-78391918D01*
X136823703Y-78237137D01*
X136742407Y-78115469D01*
X136730626Y-78097837D01*
X136612162Y-77979373D01*
X136472860Y-77886295D01*
X136318082Y-77822184D01*
X136318074Y-77822182D01*
X136153771Y-77789500D01*
X136153767Y-77789500D01*
X135986233Y-77789500D01*
X135986228Y-77789500D01*
X135821925Y-77822182D01*
X135821917Y-77822184D01*
X135667139Y-77886295D01*
X135527837Y-77979373D01*
X135409373Y-78097837D01*
X135316295Y-78237139D01*
X135252184Y-78391917D01*
X135252182Y-78391925D01*
X135219500Y-78556228D01*
X134380499Y-78556228D01*
X134347816Y-78391918D01*
X134283703Y-78237137D01*
X134202407Y-78115469D01*
X134190626Y-78097837D01*
X134072162Y-77979373D01*
X133932860Y-77886295D01*
X133778082Y-77822184D01*
X133778074Y-77822182D01*
X133613771Y-77789500D01*
X133613767Y-77789500D01*
X133446233Y-77789500D01*
X133446228Y-77789500D01*
X133281925Y-77822182D01*
X133281917Y-77822184D01*
X133127139Y-77886295D01*
X132987837Y-77979373D01*
X132869373Y-78097837D01*
X132776295Y-78237139D01*
X132712184Y-78391917D01*
X132712182Y-78391925D01*
X132679500Y-78556228D01*
X127746886Y-78556228D01*
X127735188Y-78544530D01*
X127735185Y-78544528D01*
X127589606Y-78456522D01*
X127563493Y-78448385D01*
X127505346Y-78409648D01*
X127477372Y-78345623D01*
X127488453Y-78276638D01*
X127535072Y-78224595D01*
X127563492Y-78211615D01*
X127589606Y-78203478D01*
X127735185Y-78115472D01*
X127855472Y-77995185D01*
X127943478Y-77849606D01*
X127994086Y-77687196D01*
X128000500Y-77616616D01*
X128000500Y-76503384D01*
X127994086Y-76432804D01*
X127943478Y-76270394D01*
X127855472Y-76124815D01*
X127855470Y-76124813D01*
X127855469Y-76124811D01*
X127735188Y-76004530D01*
X127688379Y-75976233D01*
X127688371Y-75976228D01*
X132679500Y-75976228D01*
X132679500Y-76143771D01*
X132712182Y-76308074D01*
X132712184Y-76308082D01*
X132776295Y-76462860D01*
X132869373Y-76602162D01*
X132987837Y-76720626D01*
X133080494Y-76782537D01*
X133127137Y-76813703D01*
X133281918Y-76877816D01*
X133446228Y-76910499D01*
X133446232Y-76910500D01*
X133446233Y-76910500D01*
X133613768Y-76910500D01*
X133613769Y-76910499D01*
X133778082Y-76877816D01*
X133932863Y-76813703D01*
X134072162Y-76720626D01*
X134190626Y-76602162D01*
X134283703Y-76462863D01*
X134347816Y-76308082D01*
X134380500Y-76143767D01*
X134380500Y-75976233D01*
X134380499Y-75976228D01*
X135219500Y-75976228D01*
X135219500Y-76143771D01*
X135252182Y-76308074D01*
X135252184Y-76308082D01*
X135316295Y-76462860D01*
X135409373Y-76602162D01*
X135527837Y-76720626D01*
X135620494Y-76782537D01*
X135667137Y-76813703D01*
X135821918Y-76877816D01*
X135986228Y-76910499D01*
X135986232Y-76910500D01*
X135986233Y-76910500D01*
X136153768Y-76910500D01*
X136153769Y-76910499D01*
X136318082Y-76877816D01*
X136472863Y-76813703D01*
X136612162Y-76720626D01*
X136730626Y-76602162D01*
X136823703Y-76462863D01*
X136887816Y-76308082D01*
X136920500Y-76143767D01*
X136920500Y-75976233D01*
X136887816Y-75811918D01*
X136823703Y-75657137D01*
X136785191Y-75599500D01*
X136730626Y-75517837D01*
X136612162Y-75399373D01*
X136472860Y-75306295D01*
X136318082Y-75242184D01*
X136318074Y-75242182D01*
X136153771Y-75209500D01*
X136153767Y-75209500D01*
X135986233Y-75209500D01*
X135986228Y-75209500D01*
X135821925Y-75242182D01*
X135821917Y-75242184D01*
X135667139Y-75306295D01*
X135527837Y-75399373D01*
X135409373Y-75517837D01*
X135316295Y-75657139D01*
X135252184Y-75811917D01*
X135252182Y-75811925D01*
X135219500Y-75976228D01*
X134380499Y-75976228D01*
X134347816Y-75811918D01*
X134283703Y-75657137D01*
X134245191Y-75599500D01*
X134190626Y-75517837D01*
X134072162Y-75399373D01*
X133932860Y-75306295D01*
X133778082Y-75242184D01*
X133778074Y-75242182D01*
X133613771Y-75209500D01*
X133613767Y-75209500D01*
X133446233Y-75209500D01*
X133446228Y-75209500D01*
X133281925Y-75242182D01*
X133281917Y-75242184D01*
X133127139Y-75306295D01*
X132987837Y-75399373D01*
X132869373Y-75517837D01*
X132776295Y-75657139D01*
X132712184Y-75811917D01*
X132712182Y-75811925D01*
X132679500Y-75976228D01*
X127688371Y-75976228D01*
X127589606Y-75916522D01*
X127427196Y-75865914D01*
X127427194Y-75865913D01*
X127427192Y-75865913D01*
X127377778Y-75861423D01*
X127356616Y-75859500D01*
X125243384Y-75859500D01*
X125224145Y-75861248D01*
X125172807Y-75865913D01*
X125010393Y-75916522D01*
X124864811Y-76004530D01*
X124744530Y-76124811D01*
X124656522Y-76270393D01*
X124605913Y-76432807D01*
X124599500Y-76503386D01*
X124599500Y-77616613D01*
X124605913Y-77687192D01*
X124656522Y-77849606D01*
X124744530Y-77995188D01*
X124864811Y-78115469D01*
X124864813Y-78115470D01*
X124864815Y-78115472D01*
X125010394Y-78203478D01*
X125010397Y-78203479D01*
X125010396Y-78203479D01*
X125036505Y-78211615D01*
X125094653Y-78250352D01*
X125122627Y-78314378D01*
X125111545Y-78383363D01*
X125064927Y-78435406D01*
X125036505Y-78448385D01*
X125010397Y-78456520D01*
X124864811Y-78544530D01*
X124744530Y-78664811D01*
X124656522Y-78810393D01*
X124605913Y-78972807D01*
X124602196Y-79013714D01*
X124599548Y-79042863D01*
X124599500Y-79043386D01*
X124599500Y-80156613D01*
X124605913Y-80227192D01*
X124605913Y-80227194D01*
X124605914Y-80227196D01*
X124628515Y-80299725D01*
X124656522Y-80389606D01*
X124744530Y-80535188D01*
X124864811Y-80655469D01*
X124864813Y-80655470D01*
X124864815Y-80655472D01*
X125010394Y-80743478D01*
X125010397Y-80743479D01*
X125010396Y-80743479D01*
X125036505Y-80751615D01*
X125094653Y-80790352D01*
X125122627Y-80854378D01*
X125111545Y-80923363D01*
X125064927Y-80975406D01*
X125036505Y-80988385D01*
X125010397Y-80996520D01*
X124864811Y-81084530D01*
X124744530Y-81204811D01*
X124656522Y-81350393D01*
X124605913Y-81512807D01*
X124604137Y-81532353D01*
X124599548Y-81582863D01*
X124599500Y-81583386D01*
X124599500Y-82696613D01*
X124605913Y-82767192D01*
X124605913Y-82767194D01*
X124605914Y-82767196D01*
X124656522Y-82929606D01*
X124676281Y-82962292D01*
X124744530Y-83075188D01*
X124864811Y-83195469D01*
X124864813Y-83195470D01*
X124864815Y-83195472D01*
X125010394Y-83283478D01*
X125010397Y-83283479D01*
X125010396Y-83283479D01*
X125036505Y-83291615D01*
X125094653Y-83330352D01*
X125122627Y-83394378D01*
X125111545Y-83463363D01*
X125064927Y-83515406D01*
X125036505Y-83528385D01*
X125010397Y-83536520D01*
X124864811Y-83624530D01*
X124744530Y-83744811D01*
X124656522Y-83890393D01*
X124605913Y-84052807D01*
X124599500Y-84123386D01*
X124599500Y-85236613D01*
X124605913Y-85307192D01*
X124656522Y-85469606D01*
X124744530Y-85615188D01*
X124864811Y-85735469D01*
X124864813Y-85735470D01*
X124864815Y-85735472D01*
X125010394Y-85823478D01*
X125010397Y-85823479D01*
X125010396Y-85823479D01*
X125036505Y-85831615D01*
X125094653Y-85870352D01*
X125122627Y-85934378D01*
X125111545Y-86003363D01*
X125064927Y-86055406D01*
X125036505Y-86068385D01*
X125010397Y-86076520D01*
X124864811Y-86164530D01*
X124744530Y-86284811D01*
X124656522Y-86430393D01*
X124605913Y-86592807D01*
X124599500Y-86663386D01*
X124599500Y-86944167D01*
X124579815Y-87011206D01*
X124563181Y-87031848D01*
X124258541Y-87336487D01*
X124258535Y-87336495D01*
X124218982Y-87405004D01*
X124218979Y-87405009D01*
X124218137Y-87408152D01*
X124198500Y-87481438D01*
X116312267Y-87481438D01*
X116270618Y-87238399D01*
X116118257Y-86576631D01*
X116118252Y-86576613D01*
X115928724Y-85924540D01*
X115928721Y-85924533D01*
X115918872Y-85896638D01*
X115702619Y-85284200D01*
X115443080Y-84663435D01*
X115440673Y-84657678D01*
X115143726Y-84046975D01*
X115143723Y-84046970D01*
X115143721Y-84046968D01*
X115143718Y-84046960D01*
X114812708Y-83454015D01*
X114500475Y-82962273D01*
X114448703Y-82880737D01*
X114448693Y-82880722D01*
X114052872Y-82328964D01*
X114052862Y-82328951D01*
X113976209Y-82233942D01*
X113812073Y-82030499D01*
X113626457Y-81800432D01*
X113626450Y-81800424D01*
X113170861Y-81296881D01*
X113170853Y-81296872D01*
X112866499Y-80996520D01*
X112687502Y-80819876D01*
X112177955Y-80370973D01*
X111643841Y-79951600D01*
X111086869Y-79563097D01*
X110661153Y-79300626D01*
X110508832Y-79206714D01*
X110508829Y-79206712D01*
X110463451Y-79182162D01*
X110217139Y-79048903D01*
X109911553Y-78883576D01*
X109296965Y-78594730D01*
X109296959Y-78594727D01*
X108763186Y-78379812D01*
X108708351Y-78336513D01*
X108685629Y-78270441D01*
X108685500Y-78264786D01*
X108685500Y-74929110D01*
X108685500Y-74929108D01*
X108651392Y-74801814D01*
X108585500Y-74687686D01*
X108492314Y-74594500D01*
X108435250Y-74561554D01*
X108378187Y-74528608D01*
X108314539Y-74511554D01*
X108250892Y-74494500D01*
X106879000Y-74494500D01*
X106811961Y-74474815D01*
X106766206Y-74422011D01*
X106755000Y-74370500D01*
X106755000Y-73502155D01*
X118550000Y-73502155D01*
X118550000Y-74150000D01*
X119466988Y-74150000D01*
X119434075Y-74207007D01*
X119400000Y-74334174D01*
X119400000Y-74465826D01*
X119434075Y-74592993D01*
X119466988Y-74650000D01*
X118550000Y-74650000D01*
X118550000Y-75297844D01*
X118556401Y-75357372D01*
X118556403Y-75357379D01*
X118606645Y-75492086D01*
X118606649Y-75492093D01*
X118692809Y-75607187D01*
X118692812Y-75607190D01*
X118807906Y-75693350D01*
X118807913Y-75693354D01*
X118942620Y-75743596D01*
X118942627Y-75743598D01*
X119002155Y-75749999D01*
X119002172Y-75750000D01*
X119650000Y-75750000D01*
X119650000Y-74833012D01*
X119707007Y-74865925D01*
X119834174Y-74900000D01*
X119965826Y-74900000D01*
X120092993Y-74865925D01*
X120150000Y-74833012D01*
X120150000Y-75750000D01*
X120797828Y-75750000D01*
X120797844Y-75749999D01*
X120857372Y-75743598D01*
X120857379Y-75743596D01*
X120992086Y-75693354D01*
X120992093Y-75693350D01*
X121107187Y-75607190D01*
X121107190Y-75607187D01*
X121193350Y-75492093D01*
X121193354Y-75492086D01*
X121243596Y-75357379D01*
X121243598Y-75357372D01*
X121249999Y-75297844D01*
X121250000Y-75297827D01*
X121250000Y-74650000D01*
X120333012Y-74650000D01*
X120365925Y-74592993D01*
X120400000Y-74465826D01*
X120400000Y-74334174D01*
X120365925Y-74207007D01*
X120333012Y-74150000D01*
X121250000Y-74150000D01*
X121250000Y-73502172D01*
X121249999Y-73502155D01*
X121243598Y-73442627D01*
X121243596Y-73442620D01*
X121193354Y-73307913D01*
X121193350Y-73307906D01*
X121107190Y-73192812D01*
X121107187Y-73192809D01*
X120992093Y-73106649D01*
X120992086Y-73106645D01*
X120857379Y-73056403D01*
X120857372Y-73056401D01*
X120797844Y-73050000D01*
X120150000Y-73050000D01*
X120150000Y-73966988D01*
X120092993Y-73934075D01*
X119965826Y-73900000D01*
X119834174Y-73900000D01*
X119707007Y-73934075D01*
X119650000Y-73966988D01*
X119650000Y-73050000D01*
X119002155Y-73050000D01*
X118942627Y-73056401D01*
X118942620Y-73056403D01*
X118807913Y-73106645D01*
X118807906Y-73106649D01*
X118692812Y-73192809D01*
X118692809Y-73192812D01*
X118606649Y-73307906D01*
X118606645Y-73307913D01*
X118556403Y-73442620D01*
X118556401Y-73442627D01*
X118550000Y-73502155D01*
X106755000Y-73502155D01*
X106755000Y-72977172D01*
X106754999Y-72977155D01*
X106748598Y-72917627D01*
X106748596Y-72917620D01*
X106698354Y-72782913D01*
X106698350Y-72782906D01*
X106612190Y-72667812D01*
X106612187Y-72667809D01*
X106497093Y-72581649D01*
X106497086Y-72581645D01*
X106362379Y-72531403D01*
X106362372Y-72531401D01*
X106302844Y-72525000D01*
X104750000Y-72525000D01*
X104750000Y-74438500D01*
X104730315Y-74505539D01*
X104677511Y-74551294D01*
X104626000Y-74562500D01*
X104374000Y-74562500D01*
X104306961Y-74542815D01*
X104261206Y-74490011D01*
X104250000Y-74438500D01*
X104250000Y-72525000D01*
X102697155Y-72525000D01*
X102637627Y-72531401D01*
X102637620Y-72531403D01*
X102502913Y-72581645D01*
X102502906Y-72581649D01*
X102387812Y-72667809D01*
X102387809Y-72667812D01*
X102301649Y-72782906D01*
X102301645Y-72782913D01*
X102251403Y-72917620D01*
X102251401Y-72917627D01*
X102245000Y-72977155D01*
X102245000Y-74370500D01*
X102225315Y-74437539D01*
X102172511Y-74483294D01*
X102121000Y-74494500D01*
X100749108Y-74494500D01*
X100621812Y-74528608D01*
X100507686Y-74594500D01*
X100507683Y-74594502D01*
X100414502Y-74687683D01*
X100414500Y-74687686D01*
X100348608Y-74801812D01*
X100314500Y-74929108D01*
X100314500Y-78264786D01*
X100294815Y-78331825D01*
X100242011Y-78377580D01*
X100236813Y-78379812D01*
X100046294Y-78456522D01*
X99703034Y-78594730D01*
X99088446Y-78883576D01*
X98491170Y-79206712D01*
X98491167Y-79206714D01*
X97913130Y-79563097D01*
X97420089Y-79907007D01*
X97356159Y-79951600D01*
X97356149Y-79951607D01*
X97356138Y-79951616D01*
X96822063Y-80370958D01*
X96822046Y-80370972D01*
X96312511Y-80819864D01*
X96312503Y-80819871D01*
X95829146Y-81296872D01*
X95829138Y-81296881D01*
X95373549Y-81800424D01*
X95373542Y-81800432D01*
X94947137Y-82328951D01*
X94947127Y-82328964D01*
X94551306Y-82880722D01*
X94551296Y-82880737D01*
X94187292Y-83454014D01*
X93856276Y-84046970D01*
X93856273Y-84046975D01*
X93559326Y-84657678D01*
X93297381Y-85284198D01*
X93071278Y-85924533D01*
X93071275Y-85924540D01*
X92881747Y-86576613D01*
X92729379Y-87238411D01*
X92729379Y-87238412D01*
X92614687Y-87907689D01*
X92614680Y-87907736D01*
X92539467Y-88569648D01*
X92538011Y-88582464D01*
X92516041Y-88970393D01*
X92499614Y-89260454D01*
X84200500Y-89260454D01*
X84200500Y-67702561D01*
X84200606Y-67697437D01*
X84204896Y-67593713D01*
X88349500Y-67593713D01*
X88349500Y-67806286D01*
X88382753Y-68016239D01*
X88448444Y-68218414D01*
X88544951Y-68407820D01*
X88669890Y-68579786D01*
X88820213Y-68730109D01*
X88992179Y-68855048D01*
X88992181Y-68855049D01*
X88992184Y-68855051D01*
X89181588Y-68951557D01*
X89383757Y-69017246D01*
X89593713Y-69050500D01*
X89593714Y-69050500D01*
X89806286Y-69050500D01*
X89806287Y-69050500D01*
X90016243Y-69017246D01*
X90218412Y-68951557D01*
X90407816Y-68855051D01*
X90429789Y-68839086D01*
X90579786Y-68730109D01*
X90579788Y-68730106D01*
X90579792Y-68730104D01*
X90730104Y-68579792D01*
X90730106Y-68579788D01*
X90730109Y-68579786D01*
X90855048Y-68407820D01*
X90855047Y-68407820D01*
X90855051Y-68407816D01*
X90951557Y-68218412D01*
X91017246Y-68016243D01*
X91050500Y-67806287D01*
X91050500Y-67593713D01*
X148049500Y-67593713D01*
X148049500Y-67806286D01*
X148082753Y-68016239D01*
X148148444Y-68218414D01*
X148244951Y-68407820D01*
X148369890Y-68579786D01*
X148520213Y-68730109D01*
X148692179Y-68855048D01*
X148692181Y-68855049D01*
X148692184Y-68855051D01*
X148881588Y-68951557D01*
X149083757Y-69017246D01*
X149293713Y-69050500D01*
X149293714Y-69050500D01*
X149506286Y-69050500D01*
X149506287Y-69050500D01*
X149716243Y-69017246D01*
X149918412Y-68951557D01*
X150107816Y-68855051D01*
X150129789Y-68839086D01*
X150279786Y-68730109D01*
X150279788Y-68730106D01*
X150279792Y-68730104D01*
X150430104Y-68579792D01*
X150430106Y-68579788D01*
X150430109Y-68579786D01*
X150555048Y-68407820D01*
X150555047Y-68407820D01*
X150555051Y-68407816D01*
X150651557Y-68218412D01*
X150717246Y-68016243D01*
X150750500Y-67806287D01*
X150750500Y-67593713D01*
X150717246Y-67383757D01*
X150651557Y-67181588D01*
X150555051Y-66992184D01*
X150555049Y-66992181D01*
X150555048Y-66992179D01*
X150430109Y-66820213D01*
X150279786Y-66669890D01*
X150107820Y-66544951D01*
X149918414Y-66448444D01*
X149918413Y-66448443D01*
X149918412Y-66448443D01*
X149716243Y-66382754D01*
X149716241Y-66382753D01*
X149716240Y-66382753D01*
X149540829Y-66354971D01*
X149506287Y-66349500D01*
X149293713Y-66349500D01*
X149259171Y-66354971D01*
X149083760Y-66382753D01*
X148881585Y-66448444D01*
X148692179Y-66544951D01*
X148520213Y-66669890D01*
X148369890Y-66820213D01*
X148244951Y-66992179D01*
X148148444Y-67181585D01*
X148082753Y-67383760D01*
X148049500Y-67593713D01*
X91050500Y-67593713D01*
X91017246Y-67383757D01*
X90951557Y-67181588D01*
X90855051Y-66992184D01*
X90855049Y-66992181D01*
X90855048Y-66992179D01*
X90730109Y-66820213D01*
X90579786Y-66669890D01*
X90407820Y-66544951D01*
X90218414Y-66448444D01*
X90218413Y-66448443D01*
X90218412Y-66448443D01*
X90016243Y-66382754D01*
X90016241Y-66382753D01*
X90016240Y-66382753D01*
X89840829Y-66354971D01*
X89806287Y-66349500D01*
X89593713Y-66349500D01*
X89559171Y-66354971D01*
X89383760Y-66382753D01*
X89181585Y-66448444D01*
X88992179Y-66544951D01*
X88820213Y-66669890D01*
X88669890Y-66820213D01*
X88544951Y-66992179D01*
X88448444Y-67181585D01*
X88382753Y-67383760D01*
X88349500Y-67593713D01*
X84204896Y-67593713D01*
X84219072Y-67250961D01*
X84219915Y-67240792D01*
X84274874Y-66799881D01*
X84276554Y-66789809D01*
X84367734Y-66354951D01*
X84370241Y-66345055D01*
X84497022Y-65919205D01*
X84500336Y-65909553D01*
X84661840Y-65495654D01*
X84665954Y-65486275D01*
X84861088Y-65087120D01*
X84865949Y-65078136D01*
X85093389Y-64696445D01*
X85098982Y-64687885D01*
X85357153Y-64326294D01*
X85363422Y-64318240D01*
X85650581Y-63979191D01*
X85657500Y-63971675D01*
X85971675Y-63657500D01*
X85979191Y-63650581D01*
X86318240Y-63363422D01*
X86326294Y-63357153D01*
X86687885Y-63098982D01*
X86696445Y-63093389D01*
X87078136Y-62865949D01*
X87087120Y-62861088D01*
X87486280Y-62665951D01*
X87495654Y-62661840D01*
X87909553Y-62500336D01*
X87919205Y-62497022D01*
X88345055Y-62370241D01*
X88354951Y-62367734D01*
X88789809Y-62276554D01*
X88799881Y-62274874D01*
X89240792Y-62219915D01*
X89250961Y-62219072D01*
X89697437Y-62200605D01*
X89702561Y-62200500D01*
X89765892Y-62200500D01*
X149334108Y-62200500D01*
X149397439Y-62200500D01*
X149402562Y-62200605D01*
G37*
%TD.AperFunction*%
%TD*%
M02*
