%TF.GenerationSoftware,KiCad,Pcbnew,9.0.6*%
%TF.CreationDate,2026-02-10T10:12:07-08:00*%
%TF.ProjectId,514_sensor_pcb,3531345f-7365-46e7-936f-725f7063622e,rev?*%
%TF.SameCoordinates,Original*%
%TF.FileFunction,Profile,NP*%
%FSLAX46Y46*%
G04 Gerber Fmt 4.6, Leading zero omitted, Abs format (unit mm)*
G04 Created by KiCad (PCBNEW 9.0.6) date 2026-02-10 10:12:07*
%MOMM*%
%LPD*%
G01*
G04 APERTURE LIST*
%TA.AperFunction,Profile*%
%ADD10C,0.050000*%
%TD*%
%TA.AperFunction,Profile*%
%ADD11C,0.100000*%
%TD*%
G04 APERTURE END LIST*
D10*
X81000000Y-114200000D02*
X81000000Y-67600000D01*
X86000000Y-119200000D02*
G75*
G02*
X81000000Y-114200000I0J5000000D01*
G01*
X143600000Y-67600000D02*
X143600000Y-114200000D01*
X86000000Y-62600000D02*
X138600000Y-62600000D01*
X138600000Y-119200000D02*
X86000000Y-119200000D01*
X81000000Y-67600000D02*
G75*
G02*
X86000000Y-62600000I5000000J0D01*
G01*
X143600000Y-114200000D02*
G75*
G02*
X138600000Y-119200000I-5000000J0D01*
G01*
X138600000Y-62600000D02*
G75*
G02*
X143600000Y-67600000I0J-5000000D01*
G01*
D11*
%TO.C,Lipo1*%
X90100000Y-86650000D02*
X90251137Y-84791691D01*
X90251137Y-84791691D02*
X90700576Y-82982226D01*
X90251137Y-88508308D02*
X90100000Y-86650000D01*
X90700576Y-82982226D02*
X91436504Y-81269169D01*
X90700576Y-90317773D02*
X90251137Y-88508308D01*
X91436504Y-81269169D02*
X92439576Y-79697545D01*
X91436504Y-92030830D02*
X90700576Y-90317773D01*
X92439576Y-79697545D02*
X93683428Y-78308664D01*
X92439576Y-93602454D02*
X91436504Y-92030830D01*
X93683428Y-78308664D02*
X95135364Y-77139033D01*
X93683428Y-94991335D02*
X92439576Y-93602454D01*
X95135364Y-77139033D02*
X96757222Y-76219396D01*
X95135364Y-96160966D02*
X93683428Y-94991335D01*
X96757222Y-76219396D02*
X97039284Y-76059459D01*
X96757222Y-97080603D02*
X95135364Y-96160966D01*
X97039284Y-76059459D02*
X97291795Y-75856045D01*
X97039284Y-97240540D02*
X96757222Y-97080603D01*
X97291795Y-75856045D02*
X97508117Y-75614501D01*
X97291795Y-97443954D02*
X97039284Y-97240540D01*
X97508117Y-75614501D02*
X97682565Y-75341175D01*
X97508117Y-97685498D02*
X97291795Y-97443954D01*
X97682565Y-75341175D02*
X97810552Y-75043252D01*
X97682565Y-97958824D02*
X97508117Y-97685498D01*
X97810552Y-75043252D02*
X97888715Y-74728562D01*
X97810552Y-98256747D02*
X97682565Y-97958824D01*
X97888715Y-74728562D02*
X97915000Y-74405378D01*
X97888715Y-98571437D02*
X97810552Y-98256747D01*
X97915000Y-74405378D02*
X97915000Y-72350000D01*
X97915000Y-98894621D02*
X97888715Y-98571437D01*
X97915000Y-100950000D02*
X97915000Y-98894621D01*
X98315000Y-71950000D02*
X99514950Y-71950000D01*
X99514950Y-101350000D02*
X98315000Y-101350000D01*
X99914950Y-72350000D02*
X99914950Y-73150000D01*
X99914950Y-73150000D02*
X103284949Y-73150000D01*
X99914950Y-100150000D02*
X99914950Y-100950000D01*
X103284949Y-73150000D02*
X103285050Y-72350000D01*
X103284949Y-100150000D02*
X99914950Y-100150000D01*
X103284949Y-100950000D02*
X103284949Y-100150000D01*
X103682843Y-71950000D02*
X104882793Y-71950000D01*
X104884899Y-101350000D02*
X103684949Y-101350000D01*
X105282793Y-72350000D02*
X105284999Y-74405378D01*
X105284999Y-74405378D02*
X105311284Y-74728562D01*
X105284999Y-98894621D02*
X105284899Y-100950000D01*
X105311284Y-74728562D02*
X105389447Y-75043252D01*
X105311284Y-98571437D02*
X105284999Y-98894621D01*
X105389447Y-75043252D02*
X105517434Y-75341175D01*
X105389447Y-98256747D02*
X105311284Y-98571437D01*
X105517434Y-75341175D02*
X105691882Y-75614501D01*
X105517434Y-97958824D02*
X105389447Y-98256747D01*
X105691882Y-75614501D02*
X105908204Y-75856045D01*
X105691882Y-97685498D02*
X105517434Y-97958824D01*
X105908204Y-75856045D02*
X106160715Y-76059459D01*
X105908204Y-97443954D02*
X105691882Y-97685498D01*
X106160715Y-76059459D02*
X106442777Y-76219396D01*
X106160715Y-97240540D02*
X105908204Y-97443954D01*
X106442777Y-76219396D02*
X108064635Y-77139033D01*
X106442777Y-97080603D02*
X106160715Y-97240540D01*
X108064635Y-77139033D02*
X109516571Y-78308664D01*
X108064635Y-96160966D02*
X106442777Y-97080603D01*
X109516571Y-78308664D02*
X110760423Y-79697545D01*
X109516571Y-94991335D02*
X108064635Y-96160966D01*
X110760423Y-79697545D02*
X111763495Y-81269169D01*
X110760423Y-93602454D02*
X109516571Y-94991335D01*
X111763495Y-81269169D02*
X112499423Y-82982226D01*
X111763495Y-92030830D02*
X110760423Y-93602454D01*
X112499423Y-82982226D02*
X112948862Y-84791691D01*
X112499423Y-90317773D02*
X111763495Y-92030830D01*
X112948862Y-84791691D02*
X113099999Y-86650000D01*
X112948862Y-88508308D02*
X112499423Y-90317773D01*
X113099999Y-86650000D02*
X112948862Y-88508308D01*
X97915000Y-72350000D02*
G75*
G02*
X98315000Y-71950000I400000J0D01*
G01*
X98315000Y-101350000D02*
G75*
G02*
X97915000Y-100950000I-1J399999D01*
G01*
X99514950Y-71950000D02*
G75*
G02*
X99914950Y-72350000I0J-400000D01*
G01*
X99914950Y-100950000D02*
G75*
G02*
X99514950Y-101350000I-399999J-1D01*
G01*
X103285050Y-72350000D02*
G75*
G02*
X103685050Y-71950050I399950J0D01*
G01*
X103684949Y-101350000D02*
G75*
G02*
X103284949Y-100950000I-1J399999D01*
G01*
X104882793Y-71950000D02*
G75*
G02*
X105282800Y-72350000I7J-400000D01*
G01*
X105284899Y-100950000D02*
G75*
G02*
X104884899Y-101350000I-399999J-1D01*
G01*
%TD*%
M02*
