%TF.GenerationSoftware,KiCad,Pcbnew,9.0.6*%
%TF.CreationDate,2026-02-10T10:12:07-08:00*%
%TF.ProjectId,514_sensor_pcb,3531345f-7365-46e7-936f-725f7063622e,rev?*%
%TF.SameCoordinates,Original*%
%TF.FileFunction,Copper,L1,Top*%
%TF.FilePolarity,Positive*%
%FSLAX46Y46*%
G04 Gerber Fmt 4.6, Leading zero omitted, Abs format (unit mm)*
G04 Created by KiCad (PCBNEW 9.0.6) date 2026-02-10 10:12:07*
%MOMM*%
%LPD*%
G01*
G04 APERTURE LIST*
G04 Aperture macros list*
%AMRoundRect*
0 Rectangle with rounded corners*
0 $1 Rounding radius*
0 $2 $3 $4 $5 $6 $7 $8 $9 X,Y pos of 4 corners*
0 Add a 4 corners polygon primitive as box body*
4,1,4,$2,$3,$4,$5,$6,$7,$8,$9,$2,$3,0*
0 Add four circle primitives for the rounded corners*
1,1,$1+$1,$2,$3*
1,1,$1+$1,$4,$5*
1,1,$1+$1,$6,$7*
1,1,$1+$1,$8,$9*
0 Add four rect primitives between the rounded corners*
20,1,$1+$1,$2,$3,$4,$5,0*
20,1,$1+$1,$4,$5,$6,$7,0*
20,1,$1+$1,$6,$7,$8,$9,0*
20,1,$1+$1,$8,$9,$2,$3,0*%
%AMFreePoly0*
4,1,6,0.750000,-1.000000,-0.750000,-1.000000,-0.750000,1.150000,-0.500000,1.400000,0.750000,1.400000,0.750000,-1.000000,0.750000,-1.000000,$1*%
%AMFreePoly1*
4,1,30,0.200000,1.710000,0.236753,1.697426,0.376386,1.589219,0.526381,1.504463,0.606724,1.473357,0.606723,1.473356,0.687059,1.442253,0.771046,1.423078,0.855035,1.403901,1.028740,1.390056,1.444035,1.390057,1.486461,1.372484,1.504035,1.330057,1.504034,-1.539942,1.486460,-1.582368,1.444038,-1.599942,1.046227,-1.599966,0.870517,-1.612848,0.700699,-1.650739,0.538235,-1.712988,
0.386579,-1.798267,0.245504,-1.907443,0.208783,-1.919992,-1.650000,-1.919992,-1.692426,-1.902418,-1.710000,-1.859992,-1.710000,1.650007,-1.692426,1.692433,-1.650000,1.710007,0.200000,1.710000,0.200000,1.710000,$1*%
G04 Aperture macros list end*
%TA.AperFunction,SMDPad,CuDef*%
%ADD10RoundRect,0.250001X-0.872499X-0.944999X0.872499X-0.944999X0.872499X0.944999X-0.872499X0.944999X0*%
%TD*%
%TA.AperFunction,SMDPad,CuDef*%
%ADD11R,0.500000X0.500000*%
%TD*%
%TA.AperFunction,SMDPad,CuDef*%
%ADD12FreePoly0,90.000000*%
%TD*%
%TA.AperFunction,SMDPad,CuDef*%
%ADD13RoundRect,0.500000X-1.000000X-0.500000X1.000000X-0.500000X1.000000X0.500000X-1.000000X0.500000X0*%
%TD*%
%TA.AperFunction,HeatsinkPad*%
%ADD14RoundRect,0.250000X-1.500000X-1.500000X1.500000X-1.500000X1.500000X1.500000X-1.500000X1.500000X0*%
%TD*%
%TA.AperFunction,SMDPad,CuDef*%
%ADD15RoundRect,0.250000X-0.900000X-0.400000X0.900000X-0.400000X0.900000X0.400000X-0.900000X0.400000X0*%
%TD*%
%TA.AperFunction,SMDPad,CuDef*%
%ADD16C,1.300000*%
%TD*%
%TA.AperFunction,SMDPad,CuDef*%
%ADD17FreePoly1,90.000000*%
%TD*%
%TA.AperFunction,SMDPad,CuDef*%
%ADD18FreePoly1,270.000000*%
%TD*%
%TA.AperFunction,Conductor*%
%ADD19C,0.200000*%
%TD*%
%TA.AperFunction,Conductor*%
%ADD20C,0.800000*%
%TD*%
G04 APERTURE END LIST*
D10*
%TO.P,C1,1*%
%TO.N,VCC*%
X112442500Y-110600000D03*
%TO.P,C1,2*%
%TO.N,GND*%
X117557500Y-110600000D03*
%TD*%
D11*
%TO.P,U2,1,SDA*%
%TO.N,Net-(U1-D4)*%
X129700000Y-113000000D03*
%TO.P,U2,2,GND*%
%TO.N,GND*%
X130700000Y-113000000D03*
%TO.P,U2,3,NC*%
%TO.N,unconnected-(U2-NC-Pad3)*%
X131700000Y-113000000D03*
%TO.P,U2,4,NC*%
%TO.N,unconnected-(U2-NC-Pad4)*%
X131700000Y-110500000D03*
%TO.P,U2,5,VDD*%
%TO.N,Net-(U1-VCC_3V3)*%
X130700000Y-110500000D03*
%TO.P,U2,6,SCL*%
%TO.N,Net-(U1-D5)*%
X129700000Y-110500000D03*
D12*
%TO.P,U2,PAD*%
%TO.N,N/C*%
X130900000Y-111750000D03*
%TD*%
D13*
%TO.P,U1,1,D0*%
%TO.N,unconnected-(U1-D0-Pad1)*%
X120400000Y-72980000D03*
%TO.P,U1,2,D1*%
%TO.N,unconnected-(U1-D1-Pad2)*%
X120400000Y-75520000D03*
%TO.P,U1,3,D2*%
%TO.N,unconnected-(U1-D2-Pad3)*%
X120400000Y-78060000D03*
%TO.P,U1,4,D3*%
%TO.N,unconnected-(U1-D3-Pad4)*%
X120400000Y-80600000D03*
%TO.P,U1,5,D4*%
%TO.N,Net-(U1-D4)*%
X120400000Y-83140000D03*
%TO.P,U1,6,D5*%
%TO.N,Net-(U1-D5)*%
X120400000Y-85680000D03*
%TO.P,U1,7,D6*%
%TO.N,unconnected-(U1-D6-Pad7)*%
X120400000Y-88220000D03*
%TO.P,U1,8,D7*%
%TO.N,unconnected-(U1-D7-Pad8)*%
X137400000Y-88220000D03*
%TO.P,U1,9,D8*%
%TO.N,unconnected-(U1-D8-Pad9)*%
X137400000Y-85680000D03*
%TO.P,U1,10,D9*%
%TO.N,unconnected-(U1-D9-Pad10)*%
X137400000Y-83140000D03*
%TO.P,U1,11,D10*%
%TO.N,unconnected-(U1-D10-Pad11)*%
X137400000Y-80600000D03*
%TO.P,U1,12,VCC_3V3*%
%TO.N,Net-(U1-VCC_3V3)*%
X137400000Y-78060000D03*
%TO.P,U1,13,GND*%
%TO.N,GND*%
X137400000Y-75520000D03*
%TO.P,U1,14,VUSB*%
%TO.N,unconnected-(U1-VUSB-Pad14)*%
X137400000Y-72980000D03*
D14*
%TO.P,U1,15*%
%TO.N,N/C*%
X131000000Y-81200000D03*
D15*
%TO.P,U1,16*%
X124400000Y-80200000D03*
%TO.P,U1,17*%
X124400000Y-78300000D03*
D16*
%TO.P,U1,18*%
X127630000Y-71980000D03*
%TO.P,U1,19*%
X127630000Y-74560000D03*
%TO.P,U1,20*%
X127630000Y-77100000D03*
%TO.P,U1,21*%
X130170000Y-77100000D03*
%TO.P,U1,22*%
X130170000Y-74560000D03*
%TO.P,U1,23*%
X130170000Y-71980000D03*
%TD*%
D17*
%TO.P,Lipo1,1,+*%
%TO.N,VCC*%
X101500000Y-101800000D03*
D18*
%TO.P,Lipo1,2,-*%
%TO.N,GND*%
X101700000Y-71500000D03*
%TD*%
D19*
%TO.N,Net-(U1-VCC_3V3)*%
X130700000Y-110500000D02*
X139700000Y-101500000D01*
X138900000Y-78060000D02*
X137400000Y-78060000D01*
X139700000Y-78860000D02*
X138900000Y-78060000D01*
X139700000Y-101500000D02*
X139700000Y-78860000D01*
%TO.N,Net-(U1-D4)*%
X122700000Y-80940058D02*
X122700000Y-76600000D01*
X127200000Y-78600000D02*
X127200000Y-110500000D01*
X120500058Y-83140000D02*
X122700000Y-80940058D01*
X119240000Y-83140000D02*
X120400000Y-83140000D01*
X122700000Y-76600000D02*
X125200000Y-76600000D01*
X127200000Y-110500000D02*
X129700000Y-113000000D01*
X120500058Y-83140000D02*
X120400000Y-83140000D01*
X125200000Y-76600000D02*
X127200000Y-78600000D01*
%TO.N,Net-(U1-D5)*%
X127601000Y-108401000D02*
X129700000Y-110500000D01*
X125366100Y-75306042D02*
X125366100Y-76199000D01*
X120299942Y-85680000D02*
X118599000Y-83979058D01*
X118599000Y-72140942D02*
X119060942Y-71679000D01*
X127601000Y-78433900D02*
X127601000Y-108401000D01*
X125366100Y-76199000D02*
X127601000Y-78433900D01*
X118599000Y-83979058D02*
X118599000Y-72140942D01*
X120400000Y-85680000D02*
X120299942Y-85680000D01*
X119060942Y-71679000D02*
X121739058Y-71679000D01*
X121739058Y-71679000D02*
X125366100Y-75306042D01*
%TO.N,unconnected-(U1-D6-Pad7)*%
X120400000Y-88220000D02*
X119810735Y-88220000D01*
D20*
%TO.N,VCC*%
X110300000Y-110600000D02*
X112442500Y-110600000D01*
X101951000Y-102251000D02*
X121149000Y-102251000D01*
X101500000Y-101800000D02*
X101951000Y-102251000D01*
X124400000Y-99000000D02*
X124400000Y-80200000D01*
X121149000Y-102251000D02*
X124400000Y-99000000D01*
X101500000Y-101800000D02*
X110300000Y-110600000D01*
%TD*%
%TA.AperFunction,Conductor*%
%TO.N,GND*%
G36*
X138602702Y-63100617D02*
G01*
X138986771Y-63117386D01*
X138997506Y-63118326D01*
X139375971Y-63168152D01*
X139386597Y-63170025D01*
X139759284Y-63252648D01*
X139769710Y-63255442D01*
X140133765Y-63370227D01*
X140143911Y-63373920D01*
X140496578Y-63520000D01*
X140506369Y-63524566D01*
X140844942Y-63700816D01*
X140854310Y-63706224D01*
X141176244Y-63911318D01*
X141185105Y-63917523D01*
X141487930Y-64149889D01*
X141496217Y-64156843D01*
X141777635Y-64414715D01*
X141785284Y-64422364D01*
X142043156Y-64703782D01*
X142050110Y-64712069D01*
X142282476Y-65014894D01*
X142288681Y-65023755D01*
X142493775Y-65345689D01*
X142499183Y-65355057D01*
X142675430Y-65693623D01*
X142680002Y-65703427D01*
X142826075Y-66056078D01*
X142829775Y-66066244D01*
X142944554Y-66430278D01*
X142947354Y-66440727D01*
X143029971Y-66813389D01*
X143031849Y-66824042D01*
X143081671Y-67202473D01*
X143082614Y-67213249D01*
X143099382Y-67597297D01*
X143099500Y-67602706D01*
X143099500Y-114197293D01*
X143099382Y-114202702D01*
X143082614Y-114586750D01*
X143081671Y-114597526D01*
X143031849Y-114975957D01*
X143029971Y-114986610D01*
X142947354Y-115359272D01*
X142944554Y-115369721D01*
X142829775Y-115733755D01*
X142826075Y-115743921D01*
X142680002Y-116096572D01*
X142675430Y-116106376D01*
X142499183Y-116444942D01*
X142493775Y-116454310D01*
X142288681Y-116776244D01*
X142282476Y-116785105D01*
X142050110Y-117087930D01*
X142043156Y-117096217D01*
X141785284Y-117377635D01*
X141777635Y-117385284D01*
X141496217Y-117643156D01*
X141487930Y-117650110D01*
X141185105Y-117882476D01*
X141176244Y-117888681D01*
X140854310Y-118093775D01*
X140844942Y-118099183D01*
X140506376Y-118275430D01*
X140496572Y-118280002D01*
X140143921Y-118426075D01*
X140133755Y-118429775D01*
X139769721Y-118544554D01*
X139759272Y-118547354D01*
X139386610Y-118629971D01*
X139375957Y-118631849D01*
X138997526Y-118681671D01*
X138986750Y-118682614D01*
X138602703Y-118699382D01*
X138597294Y-118699500D01*
X86002706Y-118699500D01*
X85997297Y-118699382D01*
X85613249Y-118682614D01*
X85602473Y-118681671D01*
X85224042Y-118631849D01*
X85213389Y-118629971D01*
X84840727Y-118547354D01*
X84830278Y-118544554D01*
X84466244Y-118429775D01*
X84456078Y-118426075D01*
X84103427Y-118280002D01*
X84093623Y-118275430D01*
X83755057Y-118099183D01*
X83745689Y-118093775D01*
X83423755Y-117888681D01*
X83414894Y-117882476D01*
X83112069Y-117650110D01*
X83103782Y-117643156D01*
X82822364Y-117385284D01*
X82814715Y-117377635D01*
X82556843Y-117096217D01*
X82549889Y-117087930D01*
X82317523Y-116785105D01*
X82311318Y-116776244D01*
X82106224Y-116454310D01*
X82100816Y-116444942D01*
X81924569Y-116106376D01*
X81919997Y-116096572D01*
X81773924Y-115743921D01*
X81770224Y-115733755D01*
X81655442Y-115369710D01*
X81652648Y-115359284D01*
X81570025Y-114986597D01*
X81568152Y-114975971D01*
X81518326Y-114597506D01*
X81517386Y-114586771D01*
X81500618Y-114202702D01*
X81500500Y-114197293D01*
X81500500Y-114093713D01*
X84649500Y-114093713D01*
X84649500Y-114306287D01*
X84682754Y-114516243D01*
X84705663Y-114586750D01*
X84748444Y-114718414D01*
X84844951Y-114907820D01*
X84969890Y-115079786D01*
X85120213Y-115230109D01*
X85292179Y-115355048D01*
X85292181Y-115355049D01*
X85292184Y-115355051D01*
X85481588Y-115451557D01*
X85683757Y-115517246D01*
X85893713Y-115550500D01*
X85893714Y-115550500D01*
X86106286Y-115550500D01*
X86106287Y-115550500D01*
X86316243Y-115517246D01*
X86518412Y-115451557D01*
X86707816Y-115355051D01*
X86742637Y-115329752D01*
X86879786Y-115230109D01*
X86879788Y-115230106D01*
X86879792Y-115230104D01*
X87030104Y-115079792D01*
X87030106Y-115079788D01*
X87030109Y-115079786D01*
X87155048Y-114907820D01*
X87155047Y-114907820D01*
X87155051Y-114907816D01*
X87251557Y-114718412D01*
X87317246Y-114516243D01*
X87350500Y-114306287D01*
X87350500Y-114093713D01*
X137249500Y-114093713D01*
X137249500Y-114306287D01*
X137282754Y-114516243D01*
X137305663Y-114586750D01*
X137348444Y-114718414D01*
X137444951Y-114907820D01*
X137569890Y-115079786D01*
X137720213Y-115230109D01*
X137892179Y-115355048D01*
X137892181Y-115355049D01*
X137892184Y-115355051D01*
X138081588Y-115451557D01*
X138283757Y-115517246D01*
X138493713Y-115550500D01*
X138493714Y-115550500D01*
X138706286Y-115550500D01*
X138706287Y-115550500D01*
X138916243Y-115517246D01*
X139118412Y-115451557D01*
X139307816Y-115355051D01*
X139342637Y-115329752D01*
X139479786Y-115230109D01*
X139479788Y-115230106D01*
X139479792Y-115230104D01*
X139630104Y-115079792D01*
X139630106Y-115079788D01*
X139630109Y-115079786D01*
X139755048Y-114907820D01*
X139755047Y-114907820D01*
X139755051Y-114907816D01*
X139851557Y-114718412D01*
X139917246Y-114516243D01*
X139950500Y-114306287D01*
X139950500Y-114093713D01*
X139917246Y-113883757D01*
X139851557Y-113681588D01*
X139755051Y-113492184D01*
X139755049Y-113492181D01*
X139755048Y-113492179D01*
X139630109Y-113320213D01*
X139479786Y-113169890D01*
X139307820Y-113044951D01*
X139118414Y-112948444D01*
X139118413Y-112948443D01*
X139118412Y-112948443D01*
X138916243Y-112882754D01*
X138916241Y-112882753D01*
X138916240Y-112882753D01*
X138754957Y-112857208D01*
X138706287Y-112849500D01*
X138493713Y-112849500D01*
X138445042Y-112857208D01*
X138283760Y-112882753D01*
X138081585Y-112948444D01*
X137892179Y-113044951D01*
X137720213Y-113169890D01*
X137569890Y-113320213D01*
X137444951Y-113492179D01*
X137348444Y-113681585D01*
X137282753Y-113883760D01*
X137249500Y-114093713D01*
X87350500Y-114093713D01*
X87317246Y-113883757D01*
X87251557Y-113681588D01*
X87155051Y-113492184D01*
X87155049Y-113492181D01*
X87155048Y-113492179D01*
X87030109Y-113320213D01*
X86879786Y-113169890D01*
X86707820Y-113044951D01*
X86518414Y-112948444D01*
X86518413Y-112948443D01*
X86518412Y-112948443D01*
X86316243Y-112882754D01*
X86316241Y-112882753D01*
X86316240Y-112882753D01*
X86154957Y-112857208D01*
X86106287Y-112849500D01*
X85893713Y-112849500D01*
X85845042Y-112857208D01*
X85683760Y-112882753D01*
X85481585Y-112948444D01*
X85292179Y-113044951D01*
X85120213Y-113169890D01*
X84969890Y-113320213D01*
X84844951Y-113492179D01*
X84748444Y-113681585D01*
X84682753Y-113883760D01*
X84649500Y-114093713D01*
X81500500Y-114093713D01*
X81500500Y-86624897D01*
X89595805Y-86624897D01*
X89595805Y-86624901D01*
X89597029Y-86639952D01*
X89597029Y-86660044D01*
X89595805Y-86675097D01*
X89602057Y-86709332D01*
X89603666Y-86721555D01*
X89749763Y-88517890D01*
X89750263Y-88524048D01*
X89749513Y-88565008D01*
X89755583Y-88589447D01*
X89756401Y-88599504D01*
X89756400Y-88599506D01*
X89757624Y-88614548D01*
X89757625Y-88614554D01*
X89769331Y-88647341D01*
X89772893Y-88659142D01*
X90207337Y-90408234D01*
X90208829Y-90414240D01*
X90214707Y-90454787D01*
X90224645Y-90477920D01*
X90227077Y-90487710D01*
X90227076Y-90487711D01*
X90230716Y-90502365D01*
X90230718Y-90502369D01*
X90247562Y-90532822D01*
X90252986Y-90543894D01*
X90964370Y-92199819D01*
X90966805Y-92205486D01*
X90979160Y-92244556D01*
X90992711Y-92265787D01*
X90996692Y-92275053D01*
X90996692Y-92275054D01*
X90996693Y-92275056D01*
X91002651Y-92288927D01*
X91024193Y-92316254D01*
X91031333Y-92326302D01*
X92004273Y-93850714D01*
X92022779Y-93887274D01*
X92039582Y-93906037D01*
X92045005Y-93914533D01*
X92045007Y-93914536D01*
X92053132Y-93927266D01*
X92078805Y-93950752D01*
X92087479Y-93959518D01*
X93289843Y-95302074D01*
X93293968Y-95306679D01*
X93318134Y-95339763D01*
X93337743Y-95355559D01*
X93344473Y-95363073D01*
X93354550Y-95374325D01*
X93383686Y-95393356D01*
X93393656Y-95400600D01*
X94797173Y-96531229D01*
X94797172Y-96531229D01*
X94801985Y-96535106D01*
X94831174Y-96563844D01*
X94853081Y-96576265D01*
X94872696Y-96592067D01*
X94904540Y-96606147D01*
X94915533Y-96611678D01*
X96567669Y-97548483D01*
X96567670Y-97548483D01*
X96748231Y-97650866D01*
X96764857Y-97662167D01*
X96938258Y-97801853D01*
X96952840Y-97815692D01*
X97040503Y-97913576D01*
X97101398Y-97981571D01*
X97113548Y-97997579D01*
X97191512Y-98119734D01*
X97233345Y-98185278D01*
X97242747Y-98203036D01*
X97330641Y-98407630D01*
X97330643Y-98407634D01*
X97337054Y-98426688D01*
X97390730Y-98642790D01*
X97393979Y-98662629D01*
X97414092Y-98909918D01*
X97414500Y-98919970D01*
X97414500Y-101038695D01*
X97449103Y-101212658D01*
X97449106Y-101212667D01*
X97516983Y-101376540D01*
X97516990Y-101376553D01*
X97615535Y-101524034D01*
X97615538Y-101524038D01*
X97740961Y-101649461D01*
X97740965Y-101649464D01*
X97888446Y-101748009D01*
X97888459Y-101748016D01*
X98011363Y-101798923D01*
X98052334Y-101815894D01*
X98052336Y-101815894D01*
X98052341Y-101815896D01*
X98226304Y-101850499D01*
X98226307Y-101850500D01*
X98226309Y-101850500D01*
X98249108Y-101850500D01*
X99455499Y-101850500D01*
X99522538Y-101870185D01*
X99568293Y-101922989D01*
X99579498Y-101974498D01*
X99579494Y-103081257D01*
X99579493Y-103450001D01*
X99595134Y-103528635D01*
X99595136Y-103528641D01*
X99614174Y-103574603D01*
X99650802Y-103632896D01*
X99725390Y-103685819D01*
X99771352Y-103704857D01*
X99771356Y-103704857D01*
X99771357Y-103704858D01*
X99849990Y-103720500D01*
X99849993Y-103720500D01*
X102519903Y-103720500D01*
X102586942Y-103740185D01*
X102607584Y-103756819D01*
X109815139Y-110964374D01*
X109815149Y-110964385D01*
X109819479Y-110968715D01*
X109819480Y-110968716D01*
X109931284Y-111080520D01*
X109931286Y-111080521D01*
X109931290Y-111080524D01*
X110068209Y-111159573D01*
X110068216Y-111159577D01*
X110180019Y-111189534D01*
X110220942Y-111200500D01*
X110220943Y-111200500D01*
X110995501Y-111200500D01*
X111062540Y-111220185D01*
X111108295Y-111272989D01*
X111119501Y-111324500D01*
X111119501Y-111599264D01*
X111122354Y-111629697D01*
X111122354Y-111629698D01*
X111122354Y-111629699D01*
X111167206Y-111757881D01*
X111167207Y-111757882D01*
X111247850Y-111867150D01*
X111357118Y-111947793D01*
X111485302Y-111992646D01*
X111485301Y-111992646D01*
X111489271Y-111993018D01*
X111515735Y-111995500D01*
X113369264Y-111995499D01*
X113399698Y-111992646D01*
X113527882Y-111947793D01*
X113637150Y-111867150D01*
X113717793Y-111757882D01*
X113762646Y-111629698D01*
X113765500Y-111599265D01*
X113765500Y-111594985D01*
X115935000Y-111594985D01*
X115945493Y-111697689D01*
X115945494Y-111697696D01*
X116000641Y-111864118D01*
X116000643Y-111864123D01*
X116092684Y-112013344D01*
X116216655Y-112137315D01*
X116365876Y-112229356D01*
X116365881Y-112229358D01*
X116532303Y-112284505D01*
X116532310Y-112284506D01*
X116635014Y-112294999D01*
X116635027Y-112295000D01*
X117307500Y-112295000D01*
X117807500Y-112295000D01*
X118479973Y-112295000D01*
X118479985Y-112294999D01*
X118582689Y-112284506D01*
X118582696Y-112284505D01*
X118749118Y-112229358D01*
X118749123Y-112229356D01*
X118898344Y-112137315D01*
X119022315Y-112013344D01*
X119114356Y-111864123D01*
X119114358Y-111864118D01*
X119169505Y-111697696D01*
X119169506Y-111697689D01*
X119179999Y-111594985D01*
X119180000Y-111594972D01*
X119180000Y-110850000D01*
X117807500Y-110850000D01*
X117807500Y-112295000D01*
X117307500Y-112295000D01*
X117307500Y-110850000D01*
X115935000Y-110850000D01*
X115935000Y-111594985D01*
X113765500Y-111594985D01*
X113765499Y-110539562D01*
X113765499Y-109605014D01*
X115935000Y-109605014D01*
X115935000Y-110350000D01*
X117307500Y-110350000D01*
X117807500Y-110350000D01*
X119180000Y-110350000D01*
X119180000Y-109605027D01*
X119179999Y-109605014D01*
X119169506Y-109502310D01*
X119169505Y-109502303D01*
X119114358Y-109335881D01*
X119114356Y-109335876D01*
X119022315Y-109186655D01*
X118898344Y-109062684D01*
X118749123Y-108970643D01*
X118749118Y-108970641D01*
X118582696Y-108915494D01*
X118582689Y-108915493D01*
X118479985Y-108905000D01*
X117807500Y-108905000D01*
X117807500Y-110350000D01*
X117307500Y-110350000D01*
X117307500Y-108905000D01*
X116635014Y-108905000D01*
X116532310Y-108915493D01*
X116532303Y-108915494D01*
X116365881Y-108970641D01*
X116365876Y-108970643D01*
X116216655Y-109062684D01*
X116092684Y-109186655D01*
X116000643Y-109335876D01*
X116000641Y-109335881D01*
X115945494Y-109502303D01*
X115945493Y-109502310D01*
X115935000Y-109605014D01*
X113765499Y-109605014D01*
X113765499Y-109601865D01*
X113765499Y-109600741D01*
X113765499Y-109600736D01*
X113762646Y-109570302D01*
X113717793Y-109442118D01*
X113637150Y-109332850D01*
X113527882Y-109252207D01*
X113527881Y-109252206D01*
X113399695Y-109207353D01*
X113399698Y-109207353D01*
X113369268Y-109204500D01*
X111515741Y-109204500D01*
X111485301Y-109207354D01*
X111485300Y-109207354D01*
X111357118Y-109252206D01*
X111247850Y-109332850D01*
X111167206Y-109442118D01*
X111122353Y-109570302D01*
X111119500Y-109600731D01*
X111119500Y-109875500D01*
X111099815Y-109942539D01*
X111047011Y-109988294D01*
X110995500Y-109999500D01*
X110600097Y-109999500D01*
X110533058Y-109979815D01*
X110512416Y-109963181D01*
X103666811Y-103117576D01*
X103652107Y-103090648D01*
X103635515Y-103064830D01*
X103634623Y-103058629D01*
X103633326Y-103056253D01*
X103630492Y-103029895D01*
X103630492Y-102975500D01*
X103650177Y-102908461D01*
X103702981Y-102862706D01*
X103754492Y-102851500D01*
X121062331Y-102851500D01*
X121062347Y-102851501D01*
X121069943Y-102851501D01*
X121228054Y-102851501D01*
X121228057Y-102851501D01*
X121380785Y-102810577D01*
X121430904Y-102781639D01*
X121517716Y-102731520D01*
X121629520Y-102619716D01*
X121629520Y-102619714D01*
X121639728Y-102609507D01*
X121639730Y-102609504D01*
X124768713Y-99480521D01*
X124768716Y-99480520D01*
X124880520Y-99368716D01*
X124930639Y-99281904D01*
X124959577Y-99231785D01*
X125000500Y-99079058D01*
X125000500Y-98920943D01*
X125000500Y-81174500D01*
X125020185Y-81107461D01*
X125072989Y-81061706D01*
X125124500Y-81050500D01*
X125354270Y-81050500D01*
X125384699Y-81047646D01*
X125384701Y-81047646D01*
X125449592Y-81024939D01*
X125512882Y-81002793D01*
X125622150Y-80922150D01*
X125702793Y-80812882D01*
X125725219Y-80748790D01*
X125747646Y-80684701D01*
X125747646Y-80684699D01*
X125750500Y-80654269D01*
X125750500Y-79745730D01*
X125747646Y-79715300D01*
X125747646Y-79715298D01*
X125702793Y-79587119D01*
X125702792Y-79587117D01*
X125622150Y-79477850D01*
X125512882Y-79397207D01*
X125512880Y-79397206D01*
X125426673Y-79367041D01*
X125369897Y-79326319D01*
X125344150Y-79261367D01*
X125357606Y-79192805D01*
X125405994Y-79142402D01*
X125426673Y-79132959D01*
X125476647Y-79115472D01*
X125512882Y-79102793D01*
X125622150Y-79022150D01*
X125702793Y-78912882D01*
X125735140Y-78820439D01*
X125747646Y-78784701D01*
X125747646Y-78784699D01*
X125750500Y-78754269D01*
X125750500Y-77874833D01*
X125770185Y-77807794D01*
X125822989Y-77762039D01*
X125892147Y-77752095D01*
X125955703Y-77781120D01*
X125962181Y-77787152D01*
X126863181Y-78688152D01*
X126896666Y-78749475D01*
X126899500Y-78775833D01*
X126899500Y-110539562D01*
X126919979Y-110615989D01*
X126956387Y-110679051D01*
X126959540Y-110684512D01*
X126959541Y-110684513D01*
X129213181Y-112938152D01*
X129246666Y-112999475D01*
X129249500Y-113025833D01*
X129249500Y-113269752D01*
X129261131Y-113328229D01*
X129261132Y-113328230D01*
X129305447Y-113394552D01*
X129371769Y-113438867D01*
X129371770Y-113438868D01*
X129430247Y-113450499D01*
X129430250Y-113450500D01*
X129913444Y-113450500D01*
X129980483Y-113470185D01*
X130012710Y-113500189D01*
X130092809Y-113607187D01*
X130092812Y-113607190D01*
X130207906Y-113693350D01*
X130207913Y-113693354D01*
X130342620Y-113743596D01*
X130342627Y-113743598D01*
X130402155Y-113749999D01*
X130402172Y-113750000D01*
X130450000Y-113750000D01*
X130450000Y-113124000D01*
X130469685Y-113056961D01*
X130522489Y-113011206D01*
X130574000Y-113000000D01*
X130826000Y-113000000D01*
X130893039Y-113019685D01*
X130938794Y-113072489D01*
X130950000Y-113124000D01*
X130950000Y-113750000D01*
X130997828Y-113750000D01*
X130997844Y-113749999D01*
X131057372Y-113743598D01*
X131057379Y-113743596D01*
X131192086Y-113693354D01*
X131192093Y-113693350D01*
X131307187Y-113607190D01*
X131307190Y-113607187D01*
X131387290Y-113500189D01*
X131443223Y-113458318D01*
X131486556Y-113450500D01*
X131969750Y-113450500D01*
X131969751Y-113450499D01*
X131984568Y-113447552D01*
X132028229Y-113438868D01*
X132028229Y-113438867D01*
X132028231Y-113438867D01*
X132094552Y-113394552D01*
X132138867Y-113328231D01*
X132138867Y-113328229D01*
X132138868Y-113328229D01*
X132150499Y-113269752D01*
X132150500Y-113269750D01*
X132150500Y-112730249D01*
X132150499Y-112730247D01*
X132138868Y-112671770D01*
X132138867Y-112671769D01*
X132114447Y-112635222D01*
X132093569Y-112568545D01*
X132096657Y-112538741D01*
X132105500Y-112500000D01*
X132105500Y-111000000D01*
X132100348Y-110954272D01*
X132100347Y-110954271D01*
X132099177Y-110943879D01*
X132102615Y-110943491D01*
X132102880Y-110891946D01*
X132118575Y-110858600D01*
X132138867Y-110828231D01*
X132138868Y-110828229D01*
X132150499Y-110769752D01*
X132150500Y-110769750D01*
X132150500Y-110230249D01*
X132150499Y-110230247D01*
X132138868Y-110171770D01*
X132138867Y-110171769D01*
X132094552Y-110105447D01*
X132028230Y-110061132D01*
X132028229Y-110061131D01*
X131969752Y-110049500D01*
X131969748Y-110049500D01*
X131874833Y-110049500D01*
X131807794Y-110029815D01*
X131762039Y-109977011D01*
X131752095Y-109907853D01*
X131781120Y-109844297D01*
X131787152Y-109837819D01*
X133399804Y-108225167D01*
X139940460Y-101684511D01*
X139956162Y-101657314D01*
X139980021Y-101615989D01*
X140000500Y-101539562D01*
X140000500Y-78820438D01*
X139980021Y-78744011D01*
X139947217Y-78687192D01*
X139940464Y-78675495D01*
X139940458Y-78675487D01*
X139136819Y-77871848D01*
X139103334Y-77810525D01*
X139100500Y-77784167D01*
X139100500Y-77503386D01*
X139100500Y-77503384D01*
X139094086Y-77432804D01*
X139043478Y-77270394D01*
X138955472Y-77124815D01*
X138955470Y-77124813D01*
X138955469Y-77124811D01*
X138835188Y-77004530D01*
X138816788Y-76993407D01*
X138689606Y-76916522D01*
X138527196Y-76865914D01*
X138527194Y-76865913D01*
X138527192Y-76865913D01*
X138477778Y-76861423D01*
X138456616Y-76859500D01*
X138437310Y-76859500D01*
X138370271Y-76839815D01*
X138349629Y-76823181D01*
X137400000Y-75873552D01*
X136450371Y-76823181D01*
X136389048Y-76856666D01*
X136362690Y-76859500D01*
X136343384Y-76859500D01*
X136324145Y-76861248D01*
X136272807Y-76865913D01*
X136110393Y-76916522D01*
X135964811Y-77004530D01*
X135844530Y-77124811D01*
X135756522Y-77270393D01*
X135705913Y-77432807D01*
X135704137Y-77452353D01*
X135699548Y-77502863D01*
X135699500Y-77503386D01*
X135699500Y-78616613D01*
X135705913Y-78687192D01*
X135705913Y-78687194D01*
X135705914Y-78687196D01*
X135756522Y-78849606D01*
X135816095Y-78948152D01*
X135844530Y-78995188D01*
X135964811Y-79115469D01*
X135964813Y-79115470D01*
X135964815Y-79115472D01*
X136110394Y-79203478D01*
X136110397Y-79203479D01*
X136110396Y-79203479D01*
X136136505Y-79211615D01*
X136194653Y-79250352D01*
X136222627Y-79314378D01*
X136211545Y-79383363D01*
X136164927Y-79435406D01*
X136136505Y-79448385D01*
X136110397Y-79456520D01*
X135964811Y-79544530D01*
X135844530Y-79664811D01*
X135756522Y-79810393D01*
X135705913Y-79972807D01*
X135699500Y-80043386D01*
X135699500Y-81156613D01*
X135705913Y-81227192D01*
X135756522Y-81389606D01*
X135844530Y-81535188D01*
X135964811Y-81655469D01*
X135964813Y-81655470D01*
X135964815Y-81655472D01*
X136110394Y-81743478D01*
X136110397Y-81743479D01*
X136110396Y-81743479D01*
X136136505Y-81751615D01*
X136194653Y-81790352D01*
X136222627Y-81854378D01*
X136211545Y-81923363D01*
X136164927Y-81975406D01*
X136136505Y-81988385D01*
X136110397Y-81996520D01*
X135964811Y-82084530D01*
X135844530Y-82204811D01*
X135756522Y-82350393D01*
X135705913Y-82512807D01*
X135699500Y-82583386D01*
X135699500Y-83696613D01*
X135705913Y-83767192D01*
X135756522Y-83929606D01*
X135844530Y-84075188D01*
X135964811Y-84195469D01*
X135964813Y-84195470D01*
X135964815Y-84195472D01*
X136110394Y-84283478D01*
X136110397Y-84283479D01*
X136110396Y-84283479D01*
X136136505Y-84291615D01*
X136194653Y-84330352D01*
X136222627Y-84394378D01*
X136211545Y-84463363D01*
X136164927Y-84515406D01*
X136136505Y-84528385D01*
X136110397Y-84536520D01*
X135964811Y-84624530D01*
X135844530Y-84744811D01*
X135756522Y-84890393D01*
X135705913Y-85052807D01*
X135699500Y-85123386D01*
X135699500Y-86236613D01*
X135705913Y-86307192D01*
X135756522Y-86469606D01*
X135844530Y-86615188D01*
X135964811Y-86735469D01*
X135964813Y-86735470D01*
X135964815Y-86735472D01*
X136110394Y-86823478D01*
X136110397Y-86823479D01*
X136110396Y-86823479D01*
X136136505Y-86831615D01*
X136194653Y-86870352D01*
X136222627Y-86934378D01*
X136211545Y-87003363D01*
X136164927Y-87055406D01*
X136136505Y-87068385D01*
X136110397Y-87076520D01*
X135964811Y-87164530D01*
X135844530Y-87284811D01*
X135756522Y-87430393D01*
X135705913Y-87592807D01*
X135699500Y-87663386D01*
X135699500Y-88776613D01*
X135705913Y-88847192D01*
X135756522Y-89009606D01*
X135844530Y-89155188D01*
X135964811Y-89275469D01*
X135964813Y-89275470D01*
X135964815Y-89275472D01*
X136110394Y-89363478D01*
X136272804Y-89414086D01*
X136343384Y-89420500D01*
X136343387Y-89420500D01*
X138456613Y-89420500D01*
X138456616Y-89420500D01*
X138527196Y-89414086D01*
X138689606Y-89363478D01*
X138835185Y-89275472D01*
X138955472Y-89155185D01*
X139043478Y-89009606D01*
X139094086Y-88847196D01*
X139100500Y-88776616D01*
X139100500Y-87663384D01*
X139094086Y-87592804D01*
X139043478Y-87430394D01*
X138955472Y-87284815D01*
X138955470Y-87284813D01*
X138955469Y-87284811D01*
X138835188Y-87164530D01*
X138835185Y-87164528D01*
X138689606Y-87076522D01*
X138663493Y-87068385D01*
X138605346Y-87029648D01*
X138577372Y-86965623D01*
X138588453Y-86896638D01*
X138635072Y-86844595D01*
X138663492Y-86831615D01*
X138689606Y-86823478D01*
X138835185Y-86735472D01*
X138955472Y-86615185D01*
X139043478Y-86469606D01*
X139094086Y-86307196D01*
X139100500Y-86236616D01*
X139100500Y-85123384D01*
X139094086Y-85052804D01*
X139043478Y-84890394D01*
X138955472Y-84744815D01*
X138955470Y-84744813D01*
X138955469Y-84744811D01*
X138835188Y-84624530D01*
X138822322Y-84616752D01*
X138689606Y-84536522D01*
X138663493Y-84528385D01*
X138605346Y-84489648D01*
X138577372Y-84425623D01*
X138588453Y-84356638D01*
X138635072Y-84304595D01*
X138663492Y-84291615D01*
X138689606Y-84283478D01*
X138835185Y-84195472D01*
X138955472Y-84075185D01*
X139043478Y-83929606D01*
X139094086Y-83767196D01*
X139100500Y-83696616D01*
X139100500Y-82583384D01*
X139094086Y-82512804D01*
X139043478Y-82350394D01*
X138955472Y-82204815D01*
X138955470Y-82204813D01*
X138955469Y-82204811D01*
X138835188Y-82084530D01*
X138822322Y-82076752D01*
X138689606Y-81996522D01*
X138663493Y-81988385D01*
X138605346Y-81949648D01*
X138577372Y-81885623D01*
X138588453Y-81816638D01*
X138635072Y-81764595D01*
X138663492Y-81751615D01*
X138689606Y-81743478D01*
X138835185Y-81655472D01*
X138955472Y-81535185D01*
X139043478Y-81389606D01*
X139094086Y-81227196D01*
X139100500Y-81156616D01*
X139100500Y-80043384D01*
X139094086Y-79972804D01*
X139043478Y-79810394D01*
X138955472Y-79664815D01*
X138955470Y-79664813D01*
X138955469Y-79664811D01*
X138835188Y-79544530D01*
X138740219Y-79487119D01*
X138689606Y-79456522D01*
X138663493Y-79448385D01*
X138605346Y-79409648D01*
X138577372Y-79345623D01*
X138588453Y-79276638D01*
X138635072Y-79224595D01*
X138663492Y-79211615D01*
X138689606Y-79203478D01*
X138835185Y-79115472D01*
X138955472Y-78995185D01*
X139043478Y-78849606D01*
X139043479Y-78849601D01*
X139044919Y-78847220D01*
X139096446Y-78800032D01*
X139165306Y-78788193D01*
X139229634Y-78815461D01*
X139238717Y-78823688D01*
X139363181Y-78948152D01*
X139396666Y-79009475D01*
X139399500Y-79035833D01*
X139399500Y-101324167D01*
X139379815Y-101391206D01*
X139363181Y-101411848D01*
X130761848Y-110013181D01*
X130700525Y-110046666D01*
X130674167Y-110049500D01*
X130430247Y-110049500D01*
X130371770Y-110061131D01*
X130371769Y-110061132D01*
X130305446Y-110105448D01*
X130303101Y-110108959D01*
X130249488Y-110153764D01*
X130180163Y-110162470D01*
X130117136Y-110132314D01*
X130096899Y-110108959D01*
X130094553Y-110105448D01*
X130028230Y-110061132D01*
X130028229Y-110061131D01*
X129969752Y-110049500D01*
X129969748Y-110049500D01*
X129725833Y-110049500D01*
X129658794Y-110029815D01*
X129638152Y-110013181D01*
X127937819Y-108312848D01*
X127904334Y-108251525D01*
X127901500Y-108225167D01*
X127901500Y-79645730D01*
X129049500Y-79645730D01*
X129049500Y-82754269D01*
X129052353Y-82784699D01*
X129052353Y-82784701D01*
X129097206Y-82912880D01*
X129097207Y-82912882D01*
X129177850Y-83022150D01*
X129287118Y-83102793D01*
X129329845Y-83117744D01*
X129415299Y-83147646D01*
X129445730Y-83150500D01*
X129445734Y-83150500D01*
X132554270Y-83150500D01*
X132584699Y-83147646D01*
X132584701Y-83147646D01*
X132648790Y-83125219D01*
X132712882Y-83102793D01*
X132822150Y-83022150D01*
X132902793Y-82912882D01*
X132926472Y-82845212D01*
X132947646Y-82784701D01*
X132947646Y-82784699D01*
X132950500Y-82754269D01*
X132950500Y-79645730D01*
X132947646Y-79615300D01*
X132947646Y-79615298D01*
X132902793Y-79487119D01*
X132902792Y-79487117D01*
X132880212Y-79456522D01*
X132822150Y-79377850D01*
X132712882Y-79297207D01*
X132712880Y-79297206D01*
X132584700Y-79252353D01*
X132554270Y-79249500D01*
X132554266Y-79249500D01*
X129445734Y-79249500D01*
X129445730Y-79249500D01*
X129415300Y-79252353D01*
X129415298Y-79252353D01*
X129287119Y-79297206D01*
X129287117Y-79297207D01*
X129177850Y-79377850D01*
X129097207Y-79487117D01*
X129097206Y-79487119D01*
X129052353Y-79615298D01*
X129052353Y-79615300D01*
X129049500Y-79645730D01*
X127901500Y-79645730D01*
X127901500Y-78394339D01*
X127881020Y-78317909D01*
X127881017Y-78317904D01*
X127841464Y-78249395D01*
X127841458Y-78249387D01*
X127735014Y-78142943D01*
X127701529Y-78081620D01*
X127706513Y-78011928D01*
X127748385Y-77955995D01*
X127798502Y-77933645D01*
X127878082Y-77917816D01*
X128032863Y-77853703D01*
X128172162Y-77760626D01*
X128290626Y-77642162D01*
X128383703Y-77502863D01*
X128447816Y-77348082D01*
X128480500Y-77183767D01*
X128480500Y-77016233D01*
X128480499Y-77016228D01*
X129319500Y-77016228D01*
X129319500Y-77183771D01*
X129352182Y-77348074D01*
X129352184Y-77348082D01*
X129416295Y-77502860D01*
X129509373Y-77642162D01*
X129627837Y-77760626D01*
X129720494Y-77822537D01*
X129767137Y-77853703D01*
X129921918Y-77917816D01*
X130055752Y-77944437D01*
X130086228Y-77950499D01*
X130086232Y-77950500D01*
X130086233Y-77950500D01*
X130253768Y-77950500D01*
X130253769Y-77950499D01*
X130418082Y-77917816D01*
X130572863Y-77853703D01*
X130712162Y-77760626D01*
X130830626Y-77642162D01*
X130923703Y-77502863D01*
X130987816Y-77348082D01*
X131020500Y-77183767D01*
X131020500Y-77016233D01*
X130987816Y-76851918D01*
X130928175Y-76707933D01*
X130923704Y-76697139D01*
X130919843Y-76691361D01*
X130842407Y-76575469D01*
X130830626Y-76557837D01*
X130712162Y-76439373D01*
X130572860Y-76346295D01*
X130418082Y-76282184D01*
X130418074Y-76282182D01*
X130253771Y-76249500D01*
X130253767Y-76249500D01*
X130086233Y-76249500D01*
X130086228Y-76249500D01*
X129921925Y-76282182D01*
X129921917Y-76282184D01*
X129767139Y-76346295D01*
X129627837Y-76439373D01*
X129509373Y-76557837D01*
X129416295Y-76697139D01*
X129352184Y-76851917D01*
X129352182Y-76851925D01*
X129319500Y-77016228D01*
X128480499Y-77016228D01*
X128447816Y-76851918D01*
X128388175Y-76707933D01*
X128383704Y-76697139D01*
X128379843Y-76691361D01*
X128302407Y-76575469D01*
X128290626Y-76557837D01*
X128172162Y-76439373D01*
X128032860Y-76346295D01*
X127878082Y-76282184D01*
X127878074Y-76282182D01*
X127713771Y-76249500D01*
X127713767Y-76249500D01*
X127546233Y-76249500D01*
X127546228Y-76249500D01*
X127381925Y-76282182D01*
X127381917Y-76282184D01*
X127227139Y-76346295D01*
X127087837Y-76439373D01*
X126969373Y-76557837D01*
X126876295Y-76697139D01*
X126812184Y-76851917D01*
X126812182Y-76851923D01*
X126796354Y-76931496D01*
X126763969Y-76993407D01*
X126703253Y-77027981D01*
X126633483Y-77024240D01*
X126587056Y-76994985D01*
X125702919Y-76110848D01*
X125669434Y-76049525D01*
X125666600Y-76023167D01*
X125666600Y-75266481D01*
X125654313Y-75220626D01*
X125646121Y-75190053D01*
X125632493Y-75166448D01*
X125606564Y-75121537D01*
X125606558Y-75121529D01*
X125042851Y-74557822D01*
X124961257Y-74476228D01*
X126779500Y-74476228D01*
X126779500Y-74643771D01*
X126812182Y-74808074D01*
X126812184Y-74808082D01*
X126876295Y-74962860D01*
X126969373Y-75102162D01*
X127087837Y-75220626D01*
X127180494Y-75282537D01*
X127227137Y-75313703D01*
X127227138Y-75313703D01*
X127227139Y-75313704D01*
X127238546Y-75318429D01*
X127381918Y-75377816D01*
X127546228Y-75410499D01*
X127546232Y-75410500D01*
X127546233Y-75410500D01*
X127713768Y-75410500D01*
X127713769Y-75410499D01*
X127878082Y-75377816D01*
X128032863Y-75313703D01*
X128172162Y-75220626D01*
X128290626Y-75102162D01*
X128383703Y-74962863D01*
X128447816Y-74808082D01*
X128480500Y-74643767D01*
X128480500Y-74476233D01*
X128480499Y-74476228D01*
X129319500Y-74476228D01*
X129319500Y-74643771D01*
X129352182Y-74808074D01*
X129352184Y-74808082D01*
X129416295Y-74962860D01*
X129509373Y-75102162D01*
X129627837Y-75220626D01*
X129720494Y-75282537D01*
X129767137Y-75313703D01*
X129767138Y-75313703D01*
X129767139Y-75313704D01*
X129778546Y-75318429D01*
X129921918Y-75377816D01*
X130086228Y-75410499D01*
X130086232Y-75410500D01*
X130086233Y-75410500D01*
X130253768Y-75410500D01*
X130253769Y-75410499D01*
X130418082Y-75377816D01*
X130572863Y-75313703D01*
X130712162Y-75220626D01*
X130830626Y-75102162D01*
X130923703Y-74962863D01*
X130924061Y-74961999D01*
X135400000Y-74961999D01*
X135400000Y-76078000D01*
X135410608Y-76197325D01*
X135410609Y-76197328D01*
X135466557Y-76392861D01*
X135560721Y-76573129D01*
X135689249Y-76730756D01*
X135769914Y-76796531D01*
X135769916Y-76796530D01*
X137046447Y-75519999D01*
X137753552Y-75519999D01*
X137753552Y-75520000D01*
X139030081Y-76796530D01*
X139030083Y-76796530D01*
X139110753Y-76730753D01*
X139239278Y-76573129D01*
X139333442Y-76392861D01*
X139389390Y-76197328D01*
X139389391Y-76197325D01*
X139399999Y-76078000D01*
X139400000Y-76077998D01*
X139400000Y-74962002D01*
X139399999Y-74961999D01*
X139389391Y-74842674D01*
X139389390Y-74842671D01*
X139333442Y-74647138D01*
X139239278Y-74466870D01*
X139110754Y-74309248D01*
X139030083Y-74243468D01*
X139030082Y-74243468D01*
X137753552Y-75519999D01*
X137046447Y-75519999D01*
X135769916Y-74243468D01*
X135769915Y-74243468D01*
X135689249Y-74309244D01*
X135560721Y-74466870D01*
X135466557Y-74647138D01*
X135410609Y-74842671D01*
X135410608Y-74842674D01*
X135400000Y-74961999D01*
X130924061Y-74961999D01*
X130952722Y-74892807D01*
X130973487Y-74842674D01*
X130987816Y-74808082D01*
X131020500Y-74643767D01*
X131020500Y-74476233D01*
X130987816Y-74311918D01*
X130923703Y-74157137D01*
X130842407Y-74035469D01*
X130830626Y-74017837D01*
X130712162Y-73899373D01*
X130572860Y-73806295D01*
X130418082Y-73742184D01*
X130418074Y-73742182D01*
X130253771Y-73709500D01*
X130253767Y-73709500D01*
X130086233Y-73709500D01*
X130086228Y-73709500D01*
X129921925Y-73742182D01*
X129921917Y-73742184D01*
X129767139Y-73806295D01*
X129627837Y-73899373D01*
X129509373Y-74017837D01*
X129416295Y-74157139D01*
X129352184Y-74311917D01*
X129352182Y-74311925D01*
X129319500Y-74476228D01*
X128480499Y-74476228D01*
X128447816Y-74311918D01*
X128383703Y-74157137D01*
X128302407Y-74035469D01*
X128290626Y-74017837D01*
X128172162Y-73899373D01*
X128032860Y-73806295D01*
X127878082Y-73742184D01*
X127878074Y-73742182D01*
X127713771Y-73709500D01*
X127713767Y-73709500D01*
X127546233Y-73709500D01*
X127546228Y-73709500D01*
X127381925Y-73742182D01*
X127381917Y-73742184D01*
X127227139Y-73806295D01*
X127087837Y-73899373D01*
X126969373Y-74017837D01*
X126876295Y-74157139D01*
X126812184Y-74311917D01*
X126812182Y-74311925D01*
X126779500Y-74476228D01*
X124961257Y-74476228D01*
X122462852Y-71977822D01*
X122381258Y-71896228D01*
X126779500Y-71896228D01*
X126779500Y-72063771D01*
X126812182Y-72228074D01*
X126812184Y-72228082D01*
X126876295Y-72382860D01*
X126969373Y-72522162D01*
X127087837Y-72640626D01*
X127142416Y-72677094D01*
X127227137Y-72733703D01*
X127381918Y-72797816D01*
X127546228Y-72830499D01*
X127546232Y-72830500D01*
X127546233Y-72830500D01*
X127713768Y-72830500D01*
X127713769Y-72830499D01*
X127878082Y-72797816D01*
X128032863Y-72733703D01*
X128172162Y-72640626D01*
X128290626Y-72522162D01*
X128383703Y-72382863D01*
X128447816Y-72228082D01*
X128480500Y-72063767D01*
X128480500Y-71896233D01*
X128480499Y-71896228D01*
X129319500Y-71896228D01*
X129319500Y-72063771D01*
X129352182Y-72228074D01*
X129352184Y-72228082D01*
X129416295Y-72382860D01*
X129509373Y-72522162D01*
X129627837Y-72640626D01*
X129682416Y-72677094D01*
X129767137Y-72733703D01*
X129921918Y-72797816D01*
X130086228Y-72830499D01*
X130086232Y-72830500D01*
X130086233Y-72830500D01*
X130253768Y-72830500D01*
X130253769Y-72830499D01*
X130418082Y-72797816D01*
X130572863Y-72733703D01*
X130712162Y-72640626D01*
X130830626Y-72522162D01*
X130896626Y-72423386D01*
X135699500Y-72423386D01*
X135699500Y-73536613D01*
X135705913Y-73607192D01*
X135756522Y-73769606D01*
X135844530Y-73915188D01*
X135964811Y-74035469D01*
X135964813Y-74035470D01*
X135964815Y-74035472D01*
X136110394Y-74123478D01*
X136272804Y-74174086D01*
X136343384Y-74180500D01*
X136343387Y-74180500D01*
X136362690Y-74180500D01*
X136429729Y-74200185D01*
X136450371Y-74216819D01*
X137400000Y-75166448D01*
X138349629Y-74216819D01*
X138410952Y-74183334D01*
X138437310Y-74180500D01*
X138456613Y-74180500D01*
X138456616Y-74180500D01*
X138527196Y-74174086D01*
X138689606Y-74123478D01*
X138835185Y-74035472D01*
X138955472Y-73915185D01*
X139043478Y-73769606D01*
X139094086Y-73607196D01*
X139100500Y-73536616D01*
X139100500Y-72423384D01*
X139094086Y-72352804D01*
X139043478Y-72190394D01*
X138955472Y-72044815D01*
X138955470Y-72044813D01*
X138955469Y-72044811D01*
X138835188Y-71924530D01*
X138833416Y-71923459D01*
X138689606Y-71836522D01*
X138527196Y-71785914D01*
X138527194Y-71785913D01*
X138527192Y-71785913D01*
X138477778Y-71781423D01*
X138456616Y-71779500D01*
X136343384Y-71779500D01*
X136324145Y-71781248D01*
X136272807Y-71785913D01*
X136110393Y-71836522D01*
X135964811Y-71924530D01*
X135844530Y-72044811D01*
X135756522Y-72190393D01*
X135705913Y-72352807D01*
X135699500Y-72423386D01*
X130896626Y-72423386D01*
X130923703Y-72382863D01*
X130987816Y-72228082D01*
X131020500Y-72063767D01*
X131020500Y-71896233D01*
X130987816Y-71731918D01*
X130923703Y-71577137D01*
X130892537Y-71530494D01*
X130830626Y-71437837D01*
X130712162Y-71319373D01*
X130572860Y-71226295D01*
X130418082Y-71162184D01*
X130418074Y-71162182D01*
X130253771Y-71129500D01*
X130253767Y-71129500D01*
X130086233Y-71129500D01*
X130086228Y-71129500D01*
X129921925Y-71162182D01*
X129921917Y-71162184D01*
X129767139Y-71226295D01*
X129627837Y-71319373D01*
X129509373Y-71437837D01*
X129416295Y-71577139D01*
X129352184Y-71731917D01*
X129352182Y-71731925D01*
X129319500Y-71896228D01*
X128480499Y-71896228D01*
X128447816Y-71731918D01*
X128383703Y-71577137D01*
X128352537Y-71530494D01*
X128290626Y-71437837D01*
X128172162Y-71319373D01*
X128032860Y-71226295D01*
X127878082Y-71162184D01*
X127878074Y-71162182D01*
X127713771Y-71129500D01*
X127713767Y-71129500D01*
X127546233Y-71129500D01*
X127546228Y-71129500D01*
X127381925Y-71162182D01*
X127381917Y-71162184D01*
X127227139Y-71226295D01*
X127087837Y-71319373D01*
X126969373Y-71437837D01*
X126876295Y-71577139D01*
X126812184Y-71731917D01*
X126812182Y-71731925D01*
X126779500Y-71896228D01*
X122381258Y-71896228D01*
X121923572Y-71438542D01*
X121923569Y-71438540D01*
X121922360Y-71437842D01*
X121922354Y-71437835D01*
X121922353Y-71437838D01*
X121855049Y-71398980D01*
X121855048Y-71398979D01*
X121829571Y-71392152D01*
X121778620Y-71378500D01*
X119100504Y-71378500D01*
X119021380Y-71378500D01*
X118944952Y-71398978D01*
X118876431Y-71438540D01*
X118876428Y-71438542D01*
X118358541Y-71956429D01*
X118358535Y-71956437D01*
X118318982Y-72024946D01*
X118318979Y-72024951D01*
X118305326Y-72075904D01*
X118298500Y-72101380D01*
X118298500Y-84018620D01*
X118312152Y-84069571D01*
X118318979Y-84095048D01*
X118318982Y-84095053D01*
X118358535Y-84163562D01*
X118358541Y-84163570D01*
X118811723Y-84616752D01*
X118845208Y-84678075D01*
X118840224Y-84747767D01*
X118830159Y-84768582D01*
X118756523Y-84890391D01*
X118705913Y-85052807D01*
X118699500Y-85123386D01*
X118699500Y-86236613D01*
X118705913Y-86307192D01*
X118756522Y-86469606D01*
X118844530Y-86615188D01*
X118964811Y-86735469D01*
X118964813Y-86735470D01*
X118964815Y-86735472D01*
X119110394Y-86823478D01*
X119110397Y-86823479D01*
X119110396Y-86823479D01*
X119136505Y-86831615D01*
X119194653Y-86870352D01*
X119222627Y-86934378D01*
X119211545Y-87003363D01*
X119164927Y-87055406D01*
X119136505Y-87068385D01*
X119110397Y-87076520D01*
X118964811Y-87164530D01*
X118844530Y-87284811D01*
X118756522Y-87430393D01*
X118705913Y-87592807D01*
X118699500Y-87663386D01*
X118699500Y-88776613D01*
X118705913Y-88847192D01*
X118756522Y-89009606D01*
X118844530Y-89155188D01*
X118964811Y-89275469D01*
X118964813Y-89275470D01*
X118964815Y-89275472D01*
X119110394Y-89363478D01*
X119272804Y-89414086D01*
X119343384Y-89420500D01*
X119343387Y-89420500D01*
X121456613Y-89420500D01*
X121456616Y-89420500D01*
X121527196Y-89414086D01*
X121689606Y-89363478D01*
X121835185Y-89275472D01*
X121955472Y-89155185D01*
X122043478Y-89009606D01*
X122094086Y-88847196D01*
X122100500Y-88776616D01*
X122100500Y-87663384D01*
X122094086Y-87592804D01*
X122043478Y-87430394D01*
X121955472Y-87284815D01*
X121955470Y-87284813D01*
X121955469Y-87284811D01*
X121835188Y-87164530D01*
X121835185Y-87164528D01*
X121689606Y-87076522D01*
X121663493Y-87068385D01*
X121605346Y-87029648D01*
X121577372Y-86965623D01*
X121588453Y-86896638D01*
X121635072Y-86844595D01*
X121663492Y-86831615D01*
X121689606Y-86823478D01*
X121835185Y-86735472D01*
X121955472Y-86615185D01*
X122043478Y-86469606D01*
X122094086Y-86307196D01*
X122100500Y-86236616D01*
X122100500Y-85123384D01*
X122094086Y-85052804D01*
X122043478Y-84890394D01*
X121955472Y-84744815D01*
X121955470Y-84744813D01*
X121955469Y-84744811D01*
X121835188Y-84624530D01*
X121822322Y-84616752D01*
X121689606Y-84536522D01*
X121663493Y-84528385D01*
X121605346Y-84489648D01*
X121577372Y-84425623D01*
X121588453Y-84356638D01*
X121635072Y-84304595D01*
X121663492Y-84291615D01*
X121689606Y-84283478D01*
X121835185Y-84195472D01*
X121955472Y-84075185D01*
X122043478Y-83929606D01*
X122094086Y-83767196D01*
X122100500Y-83696616D01*
X122100500Y-82583384D01*
X122094086Y-82512804D01*
X122043478Y-82350394D01*
X121969839Y-82228582D01*
X121952004Y-82161028D01*
X121973522Y-82094555D01*
X121988271Y-82076757D01*
X122940460Y-81124569D01*
X122980021Y-81056047D01*
X122995566Y-80998033D01*
X123031931Y-80938375D01*
X123094778Y-80907846D01*
X123164153Y-80916141D01*
X123188968Y-80930356D01*
X123287118Y-81002793D01*
X123329845Y-81017744D01*
X123415299Y-81047646D01*
X123445730Y-81050500D01*
X123445734Y-81050500D01*
X123675500Y-81050500D01*
X123742539Y-81070185D01*
X123788294Y-81122989D01*
X123799500Y-81174500D01*
X123799500Y-98699903D01*
X123779815Y-98766942D01*
X123763181Y-98787584D01*
X120936584Y-101614181D01*
X120875261Y-101647666D01*
X120848903Y-101650500D01*
X105731850Y-101650500D01*
X105664811Y-101630815D01*
X105619056Y-101578011D01*
X105609112Y-101508853D01*
X105628748Y-101457609D01*
X105682907Y-101376553D01*
X105682907Y-101376552D01*
X105682911Y-101376547D01*
X105750793Y-101212666D01*
X105762117Y-101155735D01*
X105785399Y-101038694D01*
X105785399Y-100949462D01*
X105785404Y-100849500D01*
X105785496Y-98919964D01*
X105785903Y-98909956D01*
X105806019Y-98662621D01*
X105809265Y-98642802D01*
X105862945Y-98426682D01*
X105869355Y-98407634D01*
X105957256Y-98203024D01*
X105966647Y-98185285D01*
X106086453Y-97997572D01*
X106098590Y-97981580D01*
X106247159Y-97815690D01*
X106261739Y-97801853D01*
X106283694Y-97784167D01*
X106435145Y-97662163D01*
X106451760Y-97650869D01*
X106632328Y-97548483D01*
X106632330Y-97548483D01*
X108289828Y-96608637D01*
X108327303Y-96592067D01*
X108346917Y-96576265D01*
X108368825Y-96563844D01*
X108393623Y-96539428D01*
X108402817Y-96531234D01*
X109811143Y-95396733D01*
X109845449Y-95374325D01*
X109862252Y-95355561D01*
X109881865Y-95339763D01*
X109902398Y-95311651D01*
X109910140Y-95302089D01*
X111116636Y-93954921D01*
X111146867Y-93927266D01*
X111160416Y-93906037D01*
X111177220Y-93887274D01*
X111192941Y-93856213D01*
X111199041Y-93845517D01*
X112171983Y-92321103D01*
X112197347Y-92288928D01*
X112207287Y-92265787D01*
X112220839Y-92244556D01*
X112231336Y-92211358D01*
X112235620Y-92199835D01*
X112949449Y-90538222D01*
X112969280Y-90502371D01*
X112975350Y-90477930D01*
X112985293Y-90454787D01*
X112990286Y-90420336D01*
X112992661Y-90408234D01*
X113428594Y-88653144D01*
X113442373Y-88614555D01*
X113444414Y-88589451D01*
X113450486Y-88565008D01*
X113449847Y-88530209D01*
X113450234Y-88517889D01*
X113457613Y-88427162D01*
X113596831Y-86715409D01*
X113604193Y-86675103D01*
X113602151Y-86649999D01*
X113604193Y-86624897D01*
X113597938Y-86590653D01*
X113596331Y-86578448D01*
X113449734Y-84775957D01*
X113450486Y-84734991D01*
X113444414Y-84710547D01*
X113442373Y-84685444D01*
X113430669Y-84652664D01*
X113427105Y-84640859D01*
X113272552Y-84018620D01*
X112991171Y-82885764D01*
X112985293Y-82845212D01*
X112975350Y-82822068D01*
X112969280Y-82797628D01*
X112952436Y-82767177D01*
X112947013Y-82756106D01*
X112947011Y-82756101D01*
X112233193Y-81094511D01*
X112220839Y-81055443D01*
X112207287Y-81034211D01*
X112197347Y-81011071D01*
X112187071Y-80998035D01*
X112175800Y-80983736D01*
X112168658Y-80973685D01*
X111199049Y-79454492D01*
X111195724Y-79449283D01*
X111177220Y-79412725D01*
X111160416Y-79393961D01*
X111146867Y-79372733D01*
X111121191Y-79349244D01*
X111112518Y-79340479D01*
X111112514Y-79340475D01*
X110587518Y-78754266D01*
X109910151Y-77997920D01*
X109910151Y-77997919D01*
X109906027Y-77993315D01*
X109881865Y-77960236D01*
X109862252Y-77944437D01*
X109845449Y-77925674D01*
X109845448Y-77925673D01*
X109816308Y-77906638D01*
X109806333Y-77899390D01*
X108402823Y-76768768D01*
X108402823Y-76768767D01*
X108398014Y-76764893D01*
X108368825Y-76736155D01*
X108346917Y-76723733D01*
X108327303Y-76707932D01*
X108295459Y-76693851D01*
X108284461Y-76688318D01*
X108277895Y-76684595D01*
X106828520Y-75862761D01*
X106630923Y-75750718D01*
X106451766Y-75649131D01*
X106435140Y-75637830D01*
X106261739Y-75498144D01*
X106247157Y-75484305D01*
X106098601Y-75318429D01*
X106098595Y-75318422D01*
X106086447Y-75302415D01*
X105966651Y-75114717D01*
X105957253Y-75096968D01*
X105869353Y-74892359D01*
X105862945Y-74873313D01*
X105846741Y-74808074D01*
X105809265Y-74657197D01*
X105806019Y-74637374D01*
X105785877Y-74389724D01*
X105785470Y-74379836D01*
X105783300Y-72356524D01*
X105783300Y-72261305D01*
X105748694Y-72087336D01*
X105748693Y-72087335D01*
X105748693Y-72087331D01*
X105680810Y-71923449D01*
X105582260Y-71775959D01*
X105582259Y-71775958D01*
X105582258Y-71775956D01*
X105456831Y-71650532D01*
X105456825Y-71650527D01*
X105309356Y-71551995D01*
X105309337Y-71551982D01*
X105309335Y-71551981D01*
X105309336Y-71551981D01*
X105145514Y-71484127D01*
X105145454Y-71484102D01*
X104971477Y-71449499D01*
X104971476Y-71449499D01*
X104882784Y-71449500D01*
X103609189Y-71449500D01*
X103608556Y-71449541D01*
X103596419Y-71449539D01*
X103422439Y-71484126D01*
X103422437Y-71484126D01*
X103422436Y-71484127D01*
X103385340Y-71499488D01*
X103258544Y-71551995D01*
X103147583Y-71626125D01*
X103080904Y-71646997D01*
X103078701Y-71647017D01*
X100121389Y-71647017D01*
X100054350Y-71627332D01*
X100052507Y-71626125D01*
X99941479Y-71551951D01*
X99878076Y-71525696D01*
X99777578Y-71484079D01*
X99777574Y-71484078D01*
X99603584Y-71449489D01*
X99514887Y-71449500D01*
X98226306Y-71449500D01*
X98052341Y-71484103D01*
X98052332Y-71484106D01*
X97888459Y-71551983D01*
X97888446Y-71551990D01*
X97740965Y-71650535D01*
X97740961Y-71650538D01*
X97615538Y-71775961D01*
X97615535Y-71775965D01*
X97516990Y-71923446D01*
X97516983Y-71923459D01*
X97449106Y-72087332D01*
X97449103Y-72087341D01*
X97414500Y-72261304D01*
X97414500Y-74380027D01*
X97414092Y-74390079D01*
X97393979Y-74637368D01*
X97390730Y-74657207D01*
X97337054Y-74873309D01*
X97330643Y-74892363D01*
X97242752Y-75096952D01*
X97233345Y-75114719D01*
X97113550Y-75302415D01*
X97101396Y-75318429D01*
X96952840Y-75484305D01*
X96938258Y-75498144D01*
X96764857Y-75637830D01*
X96748231Y-75649131D01*
X96560389Y-75755643D01*
X96560384Y-75755646D01*
X94915541Y-76688314D01*
X94910170Y-76691361D01*
X94872696Y-76707932D01*
X94853082Y-76723731D01*
X94844310Y-76728706D01*
X94844307Y-76728706D01*
X94831175Y-76736153D01*
X94806372Y-76760572D01*
X94797169Y-76768772D01*
X93393658Y-77899395D01*
X93388847Y-77903270D01*
X93354550Y-77925674D01*
X93337746Y-77944436D01*
X93329892Y-77950764D01*
X93318134Y-77960236D01*
X93297608Y-77988335D01*
X93289849Y-77997917D01*
X92087481Y-79340474D01*
X92087482Y-79340475D01*
X92083354Y-79345084D01*
X92053132Y-79372733D01*
X92039583Y-79393958D01*
X92032860Y-79401466D01*
X92032858Y-79401470D01*
X92022779Y-79412724D01*
X92007061Y-79443776D01*
X92000953Y-79454484D01*
X91031336Y-80973690D01*
X91028009Y-80978901D01*
X91002652Y-81011071D01*
X90992713Y-81034204D01*
X90987291Y-81042701D01*
X90987288Y-81042708D01*
X90979158Y-81055445D01*
X90968667Y-81088622D01*
X90964370Y-81100178D01*
X90252987Y-82756101D01*
X90252986Y-82756100D01*
X90250542Y-82761787D01*
X90230719Y-82797628D01*
X90224650Y-82822061D01*
X90220669Y-82831329D01*
X90220669Y-82831331D01*
X90214709Y-82845204D01*
X90214706Y-82845213D01*
X90209714Y-82879651D01*
X90207340Y-82891750D01*
X89776949Y-84624528D01*
X89771404Y-84646854D01*
X89757626Y-84685444D01*
X89755584Y-84710535D01*
X89753154Y-84720322D01*
X89753154Y-84720329D01*
X89749513Y-84734988D01*
X89749512Y-84734993D01*
X89750150Y-84769784D01*
X89749763Y-84782107D01*
X89603667Y-86578434D01*
X89602058Y-86590655D01*
X89595805Y-86624897D01*
X81500500Y-86624897D01*
X81500500Y-69850001D01*
X99270008Y-69850001D01*
X99270008Y-71147017D01*
X101345008Y-71147017D01*
X101845008Y-71147017D01*
X103920001Y-71147017D01*
X103920002Y-71147016D01*
X103920006Y-69849999D01*
X103917114Y-69796024D01*
X103917112Y-69796011D01*
X103881566Y-69656748D01*
X103881565Y-69656743D01*
X103862527Y-69610783D01*
X103810785Y-69516022D01*
X103712841Y-69410825D01*
X103712838Y-69410822D01*
X103589228Y-69337481D01*
X103543265Y-69318443D01*
X103543239Y-69318433D01*
X103492283Y-69300456D01*
X103350005Y-69280000D01*
X101845008Y-69280000D01*
X101845008Y-71147017D01*
X101345008Y-71147017D01*
X101345008Y-69280000D01*
X99840005Y-69280000D01*
X99786032Y-69282892D01*
X99786019Y-69282894D01*
X99646756Y-69318440D01*
X99646751Y-69318441D01*
X99600791Y-69337479D01*
X99506030Y-69389221D01*
X99400833Y-69487165D01*
X99400830Y-69487168D01*
X99327489Y-69610778D01*
X99308451Y-69656741D01*
X99308441Y-69656767D01*
X99290464Y-69707723D01*
X99270008Y-69850001D01*
X81500500Y-69850001D01*
X81500500Y-67602706D01*
X81500618Y-67597298D01*
X81503377Y-67534108D01*
X81505141Y-67493713D01*
X84649500Y-67493713D01*
X84649500Y-67706286D01*
X84682753Y-67916239D01*
X84748444Y-68118414D01*
X84844951Y-68307820D01*
X84969890Y-68479786D01*
X85120213Y-68630109D01*
X85292179Y-68755048D01*
X85292181Y-68755049D01*
X85292184Y-68755051D01*
X85481588Y-68851557D01*
X85683757Y-68917246D01*
X85893713Y-68950500D01*
X85893714Y-68950500D01*
X86106286Y-68950500D01*
X86106287Y-68950500D01*
X86316243Y-68917246D01*
X86518412Y-68851557D01*
X86707816Y-68755051D01*
X86729789Y-68739086D01*
X86879786Y-68630109D01*
X86879788Y-68630106D01*
X86879792Y-68630104D01*
X87030104Y-68479792D01*
X87030106Y-68479788D01*
X87030109Y-68479786D01*
X87155048Y-68307820D01*
X87155047Y-68307820D01*
X87155051Y-68307816D01*
X87251557Y-68118412D01*
X87317246Y-67916243D01*
X87350500Y-67706287D01*
X87350500Y-67493713D01*
X87317246Y-67283757D01*
X87251557Y-67081588D01*
X87155051Y-66892184D01*
X87155049Y-66892181D01*
X87155048Y-66892179D01*
X87030109Y-66720213D01*
X86879786Y-66569890D01*
X86707820Y-66444951D01*
X86518414Y-66348444D01*
X86518413Y-66348443D01*
X86518412Y-66348443D01*
X86316243Y-66282754D01*
X86316241Y-66282753D01*
X86316240Y-66282753D01*
X86154957Y-66257208D01*
X86106287Y-66249500D01*
X85893713Y-66249500D01*
X85845042Y-66257208D01*
X85683760Y-66282753D01*
X85481585Y-66348444D01*
X85292179Y-66444951D01*
X85120213Y-66569890D01*
X84969890Y-66720213D01*
X84844951Y-66892179D01*
X84748444Y-67081585D01*
X84682753Y-67283760D01*
X84649500Y-67493713D01*
X81505141Y-67493713D01*
X81517386Y-67213226D01*
X81518326Y-67202495D01*
X81568152Y-66824025D01*
X81570025Y-66813405D01*
X81652649Y-66440709D01*
X81655440Y-66430295D01*
X81770230Y-66066227D01*
X81773917Y-66056095D01*
X81920003Y-65703412D01*
X81924561Y-65693638D01*
X82100822Y-65355045D01*
X82106217Y-65345700D01*
X82311325Y-65023744D01*
X82317515Y-65014905D01*
X82549896Y-64712060D01*
X82556834Y-64703791D01*
X82814726Y-64422352D01*
X82822352Y-64414726D01*
X83103791Y-64156834D01*
X83112060Y-64149896D01*
X83414905Y-63917515D01*
X83423744Y-63911325D01*
X83745700Y-63706217D01*
X83755045Y-63700822D01*
X84093638Y-63524561D01*
X84103412Y-63520003D01*
X84456095Y-63373917D01*
X84466227Y-63370230D01*
X84830295Y-63255440D01*
X84840709Y-63252649D01*
X85213405Y-63170025D01*
X85224025Y-63168152D01*
X85602495Y-63118326D01*
X85613226Y-63117386D01*
X85997297Y-63100617D01*
X86002706Y-63100500D01*
X86065892Y-63100500D01*
X138534108Y-63100500D01*
X138597294Y-63100500D01*
X138602702Y-63100617D01*
G37*
%TD.AperFunction*%
%TD*%
M02*
