%TF.GenerationSoftware,KiCad,Pcbnew,9.0.6*%
%TF.CreationDate,2026-02-10T10:12:07-08:00*%
%TF.ProjectId,514_sensor_pcb,3531345f-7365-46e7-936f-725f7063622e,rev?*%
%TF.SameCoordinates,Original*%
%TF.FileFunction,Legend,Top*%
%TF.FilePolarity,Positive*%
%FSLAX46Y46*%
G04 Gerber Fmt 4.6, Leading zero omitted, Abs format (unit mm)*
G04 Created by KiCad (PCBNEW 9.0.6) date 2026-02-10 10:12:07*
%MOMM*%
%LPD*%
G01*
G04 APERTURE LIST*
%ADD10C,0.250000*%
%ADD11C,0.150000*%
%ADD12C,0.050086*%
%ADD13C,0.120000*%
G04 APERTURE END LIST*
D10*
X92221615Y-66489857D02*
X92221615Y-67442238D01*
X91554949Y-65442238D02*
X92221615Y-66489857D01*
X92221615Y-66489857D02*
X92888282Y-65442238D01*
X94316854Y-67347000D02*
X94126378Y-67442238D01*
X94126378Y-67442238D02*
X93745425Y-67442238D01*
X93745425Y-67442238D02*
X93554949Y-67347000D01*
X93554949Y-67347000D02*
X93459711Y-67156523D01*
X93459711Y-67156523D02*
X93459711Y-66394619D01*
X93459711Y-66394619D02*
X93554949Y-66204142D01*
X93554949Y-66204142D02*
X93745425Y-66108904D01*
X93745425Y-66108904D02*
X94126378Y-66108904D01*
X94126378Y-66108904D02*
X94316854Y-66204142D01*
X94316854Y-66204142D02*
X94412092Y-66394619D01*
X94412092Y-66394619D02*
X94412092Y-66585095D01*
X94412092Y-66585095D02*
X93459711Y-66775571D01*
X95078759Y-66108904D02*
X95459711Y-67442238D01*
X95459711Y-67442238D02*
X95840664Y-66489857D01*
X95840664Y-66489857D02*
X96221616Y-67442238D01*
X96221616Y-67442238D02*
X96602568Y-66108904D01*
X98126378Y-67347000D02*
X97935902Y-67442238D01*
X97935902Y-67442238D02*
X97554949Y-67442238D01*
X97554949Y-67442238D02*
X97364473Y-67347000D01*
X97364473Y-67347000D02*
X97269235Y-67156523D01*
X97269235Y-67156523D02*
X97269235Y-66394619D01*
X97269235Y-66394619D02*
X97364473Y-66204142D01*
X97364473Y-66204142D02*
X97554949Y-66108904D01*
X97554949Y-66108904D02*
X97935902Y-66108904D01*
X97935902Y-66108904D02*
X98126378Y-66204142D01*
X98126378Y-66204142D02*
X98221616Y-66394619D01*
X98221616Y-66394619D02*
X98221616Y-66585095D01*
X98221616Y-66585095D02*
X97269235Y-66775571D01*
X99078759Y-66108904D02*
X99078759Y-67442238D01*
X99078759Y-66299380D02*
X99173997Y-66204142D01*
X99173997Y-66204142D02*
X99364473Y-66108904D01*
X99364473Y-66108904D02*
X99650188Y-66108904D01*
X99650188Y-66108904D02*
X99840664Y-66204142D01*
X99840664Y-66204142D02*
X99935902Y-66394619D01*
X99935902Y-66394619D02*
X99935902Y-67442238D01*
X100697807Y-65442238D02*
X102031140Y-65442238D01*
X102031140Y-65442238D02*
X100697807Y-67442238D01*
X100697807Y-67442238D02*
X102031140Y-67442238D01*
X102793045Y-67442238D02*
X102793045Y-65442238D01*
X103650188Y-67442238D02*
X103650188Y-66394619D01*
X103650188Y-66394619D02*
X103554950Y-66204142D01*
X103554950Y-66204142D02*
X103364474Y-66108904D01*
X103364474Y-66108904D02*
X103078759Y-66108904D01*
X103078759Y-66108904D02*
X102888283Y-66204142D01*
X102888283Y-66204142D02*
X102793045Y-66299380D01*
X104888283Y-67442238D02*
X104697807Y-67347000D01*
X104697807Y-67347000D02*
X104602569Y-67251761D01*
X104602569Y-67251761D02*
X104507331Y-67061285D01*
X104507331Y-67061285D02*
X104507331Y-66489857D01*
X104507331Y-66489857D02*
X104602569Y-66299380D01*
X104602569Y-66299380D02*
X104697807Y-66204142D01*
X104697807Y-66204142D02*
X104888283Y-66108904D01*
X104888283Y-66108904D02*
X105173998Y-66108904D01*
X105173998Y-66108904D02*
X105364474Y-66204142D01*
X105364474Y-66204142D02*
X105459712Y-66299380D01*
X105459712Y-66299380D02*
X105554950Y-66489857D01*
X105554950Y-66489857D02*
X105554950Y-67061285D01*
X105554950Y-67061285D02*
X105459712Y-67251761D01*
X105459712Y-67251761D02*
X105364474Y-67347000D01*
X105364474Y-67347000D02*
X105173998Y-67442238D01*
X105173998Y-67442238D02*
X104888283Y-67442238D01*
X107269236Y-66108904D02*
X107269236Y-67442238D01*
X106412093Y-66108904D02*
X106412093Y-67156523D01*
X106412093Y-67156523D02*
X106507331Y-67347000D01*
X106507331Y-67347000D02*
X106697807Y-67442238D01*
X106697807Y-67442238D02*
X106983522Y-67442238D01*
X106983522Y-67442238D02*
X107173998Y-67347000D01*
X107173998Y-67347000D02*
X107269236Y-67251761D01*
X107745427Y-67632714D02*
X109269236Y-67632714D01*
X109650189Y-67347000D02*
X109935903Y-67442238D01*
X109935903Y-67442238D02*
X110412094Y-67442238D01*
X110412094Y-67442238D02*
X110602570Y-67347000D01*
X110602570Y-67347000D02*
X110697808Y-67251761D01*
X110697808Y-67251761D02*
X110793046Y-67061285D01*
X110793046Y-67061285D02*
X110793046Y-66870809D01*
X110793046Y-66870809D02*
X110697808Y-66680333D01*
X110697808Y-66680333D02*
X110602570Y-66585095D01*
X110602570Y-66585095D02*
X110412094Y-66489857D01*
X110412094Y-66489857D02*
X110031141Y-66394619D01*
X110031141Y-66394619D02*
X109840665Y-66299380D01*
X109840665Y-66299380D02*
X109745427Y-66204142D01*
X109745427Y-66204142D02*
X109650189Y-66013666D01*
X109650189Y-66013666D02*
X109650189Y-65823190D01*
X109650189Y-65823190D02*
X109745427Y-65632714D01*
X109745427Y-65632714D02*
X109840665Y-65537476D01*
X109840665Y-65537476D02*
X110031141Y-65442238D01*
X110031141Y-65442238D02*
X110507332Y-65442238D01*
X110507332Y-65442238D02*
X110793046Y-65537476D01*
X112412094Y-67347000D02*
X112221618Y-67442238D01*
X112221618Y-67442238D02*
X111840665Y-67442238D01*
X111840665Y-67442238D02*
X111650189Y-67347000D01*
X111650189Y-67347000D02*
X111554951Y-67156523D01*
X111554951Y-67156523D02*
X111554951Y-66394619D01*
X111554951Y-66394619D02*
X111650189Y-66204142D01*
X111650189Y-66204142D02*
X111840665Y-66108904D01*
X111840665Y-66108904D02*
X112221618Y-66108904D01*
X112221618Y-66108904D02*
X112412094Y-66204142D01*
X112412094Y-66204142D02*
X112507332Y-66394619D01*
X112507332Y-66394619D02*
X112507332Y-66585095D01*
X112507332Y-66585095D02*
X111554951Y-66775571D01*
X113364475Y-66108904D02*
X113364475Y-67442238D01*
X113364475Y-66299380D02*
X113459713Y-66204142D01*
X113459713Y-66204142D02*
X113650189Y-66108904D01*
X113650189Y-66108904D02*
X113935904Y-66108904D01*
X113935904Y-66108904D02*
X114126380Y-66204142D01*
X114126380Y-66204142D02*
X114221618Y-66394619D01*
X114221618Y-66394619D02*
X114221618Y-67442238D01*
X115078761Y-67347000D02*
X115269237Y-67442238D01*
X115269237Y-67442238D02*
X115650189Y-67442238D01*
X115650189Y-67442238D02*
X115840666Y-67347000D01*
X115840666Y-67347000D02*
X115935904Y-67156523D01*
X115935904Y-67156523D02*
X115935904Y-67061285D01*
X115935904Y-67061285D02*
X115840666Y-66870809D01*
X115840666Y-66870809D02*
X115650189Y-66775571D01*
X115650189Y-66775571D02*
X115364475Y-66775571D01*
X115364475Y-66775571D02*
X115173999Y-66680333D01*
X115173999Y-66680333D02*
X115078761Y-66489857D01*
X115078761Y-66489857D02*
X115078761Y-66394619D01*
X115078761Y-66394619D02*
X115173999Y-66204142D01*
X115173999Y-66204142D02*
X115364475Y-66108904D01*
X115364475Y-66108904D02*
X115650189Y-66108904D01*
X115650189Y-66108904D02*
X115840666Y-66204142D01*
X117078761Y-67442238D02*
X116888285Y-67347000D01*
X116888285Y-67347000D02*
X116793047Y-67251761D01*
X116793047Y-67251761D02*
X116697809Y-67061285D01*
X116697809Y-67061285D02*
X116697809Y-66489857D01*
X116697809Y-66489857D02*
X116793047Y-66299380D01*
X116793047Y-66299380D02*
X116888285Y-66204142D01*
X116888285Y-66204142D02*
X117078761Y-66108904D01*
X117078761Y-66108904D02*
X117364476Y-66108904D01*
X117364476Y-66108904D02*
X117554952Y-66204142D01*
X117554952Y-66204142D02*
X117650190Y-66299380D01*
X117650190Y-66299380D02*
X117745428Y-66489857D01*
X117745428Y-66489857D02*
X117745428Y-67061285D01*
X117745428Y-67061285D02*
X117650190Y-67251761D01*
X117650190Y-67251761D02*
X117554952Y-67347000D01*
X117554952Y-67347000D02*
X117364476Y-67442238D01*
X117364476Y-67442238D02*
X117078761Y-67442238D01*
X118602571Y-67442238D02*
X118602571Y-66108904D01*
X118602571Y-66489857D02*
X118697809Y-66299380D01*
X118697809Y-66299380D02*
X118793047Y-66204142D01*
X118793047Y-66204142D02*
X118983523Y-66108904D01*
X118983523Y-66108904D02*
X119174000Y-66108904D01*
X119364476Y-67632714D02*
X120888285Y-67632714D01*
X121174000Y-66108904D02*
X121650190Y-67442238D01*
X121650190Y-67442238D02*
X122126381Y-66108904D01*
X123935905Y-67442238D02*
X122793048Y-67442238D01*
X123364476Y-67442238D02*
X123364476Y-65442238D01*
X123364476Y-65442238D02*
X123174000Y-65727952D01*
X123174000Y-65727952D02*
X122983524Y-65918428D01*
X122983524Y-65918428D02*
X122793048Y-66013666D01*
X124793048Y-67251761D02*
X124888286Y-67347000D01*
X124888286Y-67347000D02*
X124793048Y-67442238D01*
X124793048Y-67442238D02*
X124697810Y-67347000D01*
X124697810Y-67347000D02*
X124793048Y-67251761D01*
X124793048Y-67251761D02*
X124793048Y-67442238D01*
X126126381Y-65442238D02*
X126316858Y-65442238D01*
X126316858Y-65442238D02*
X126507334Y-65537476D01*
X126507334Y-65537476D02*
X126602572Y-65632714D01*
X126602572Y-65632714D02*
X126697810Y-65823190D01*
X126697810Y-65823190D02*
X126793048Y-66204142D01*
X126793048Y-66204142D02*
X126793048Y-66680333D01*
X126793048Y-66680333D02*
X126697810Y-67061285D01*
X126697810Y-67061285D02*
X126602572Y-67251761D01*
X126602572Y-67251761D02*
X126507334Y-67347000D01*
X126507334Y-67347000D02*
X126316858Y-67442238D01*
X126316858Y-67442238D02*
X126126381Y-67442238D01*
X126126381Y-67442238D02*
X125935905Y-67347000D01*
X125935905Y-67347000D02*
X125840667Y-67251761D01*
X125840667Y-67251761D02*
X125745429Y-67061285D01*
X125745429Y-67061285D02*
X125650191Y-66680333D01*
X125650191Y-66680333D02*
X125650191Y-66204142D01*
X125650191Y-66204142D02*
X125745429Y-65823190D01*
X125745429Y-65823190D02*
X125840667Y-65632714D01*
X125840667Y-65632714D02*
X125935905Y-65537476D01*
X125935905Y-65537476D02*
X126126381Y-65442238D01*
D11*
X84666666Y-111504819D02*
X84333333Y-111028628D01*
X84095238Y-111504819D02*
X84095238Y-110504819D01*
X84095238Y-110504819D02*
X84476190Y-110504819D01*
X84476190Y-110504819D02*
X84571428Y-110552438D01*
X84571428Y-110552438D02*
X84619047Y-110600057D01*
X84619047Y-110600057D02*
X84666666Y-110695295D01*
X84666666Y-110695295D02*
X84666666Y-110838152D01*
X84666666Y-110838152D02*
X84619047Y-110933390D01*
X84619047Y-110933390D02*
X84571428Y-110981009D01*
X84571428Y-110981009D02*
X84476190Y-111028628D01*
X84476190Y-111028628D02*
X84095238Y-111028628D01*
X85095238Y-110981009D02*
X85428571Y-110981009D01*
X85571428Y-111504819D02*
X85095238Y-111504819D01*
X85095238Y-111504819D02*
X85095238Y-110504819D01*
X85095238Y-110504819D02*
X85571428Y-110504819D01*
X86333333Y-110981009D02*
X86000000Y-110981009D01*
X86000000Y-111504819D02*
X86000000Y-110504819D01*
X86000000Y-110504819D02*
X86476190Y-110504819D01*
X87000000Y-110504819D02*
X87000000Y-110742914D01*
X86761905Y-110647676D02*
X87000000Y-110742914D01*
X87000000Y-110742914D02*
X87238095Y-110647676D01*
X86857143Y-110933390D02*
X87000000Y-110742914D01*
X87000000Y-110742914D02*
X87142857Y-110933390D01*
X87761905Y-110504819D02*
X87761905Y-110742914D01*
X87523810Y-110647676D02*
X87761905Y-110742914D01*
X87761905Y-110742914D02*
X88000000Y-110647676D01*
X87619048Y-110933390D02*
X87761905Y-110742914D01*
X87761905Y-110742914D02*
X87904762Y-110933390D01*
X137266666Y-111504819D02*
X136933333Y-111028628D01*
X136695238Y-111504819D02*
X136695238Y-110504819D01*
X136695238Y-110504819D02*
X137076190Y-110504819D01*
X137076190Y-110504819D02*
X137171428Y-110552438D01*
X137171428Y-110552438D02*
X137219047Y-110600057D01*
X137219047Y-110600057D02*
X137266666Y-110695295D01*
X137266666Y-110695295D02*
X137266666Y-110838152D01*
X137266666Y-110838152D02*
X137219047Y-110933390D01*
X137219047Y-110933390D02*
X137171428Y-110981009D01*
X137171428Y-110981009D02*
X137076190Y-111028628D01*
X137076190Y-111028628D02*
X136695238Y-111028628D01*
X137695238Y-110981009D02*
X138028571Y-110981009D01*
X138171428Y-111504819D02*
X137695238Y-111504819D01*
X137695238Y-111504819D02*
X137695238Y-110504819D01*
X137695238Y-110504819D02*
X138171428Y-110504819D01*
X138933333Y-110981009D02*
X138600000Y-110981009D01*
X138600000Y-111504819D02*
X138600000Y-110504819D01*
X138600000Y-110504819D02*
X139076190Y-110504819D01*
X139600000Y-110504819D02*
X139600000Y-110742914D01*
X139361905Y-110647676D02*
X139600000Y-110742914D01*
X139600000Y-110742914D02*
X139838095Y-110647676D01*
X139457143Y-110933390D02*
X139600000Y-110742914D01*
X139600000Y-110742914D02*
X139742857Y-110933390D01*
X140361905Y-110504819D02*
X140361905Y-110742914D01*
X140123810Y-110647676D02*
X140361905Y-110742914D01*
X140361905Y-110742914D02*
X140600000Y-110647676D01*
X140219048Y-110933390D02*
X140361905Y-110742914D01*
X140361905Y-110742914D02*
X140504762Y-110933390D01*
X114833333Y-108409580D02*
X114785714Y-108457200D01*
X114785714Y-108457200D02*
X114642857Y-108504819D01*
X114642857Y-108504819D02*
X114547619Y-108504819D01*
X114547619Y-108504819D02*
X114404762Y-108457200D01*
X114404762Y-108457200D02*
X114309524Y-108361961D01*
X114309524Y-108361961D02*
X114261905Y-108266723D01*
X114261905Y-108266723D02*
X114214286Y-108076247D01*
X114214286Y-108076247D02*
X114214286Y-107933390D01*
X114214286Y-107933390D02*
X114261905Y-107742914D01*
X114261905Y-107742914D02*
X114309524Y-107647676D01*
X114309524Y-107647676D02*
X114404762Y-107552438D01*
X114404762Y-107552438D02*
X114547619Y-107504819D01*
X114547619Y-107504819D02*
X114642857Y-107504819D01*
X114642857Y-107504819D02*
X114785714Y-107552438D01*
X114785714Y-107552438D02*
X114833333Y-107600057D01*
X115785714Y-108504819D02*
X115214286Y-108504819D01*
X115500000Y-108504819D02*
X115500000Y-107504819D01*
X115500000Y-107504819D02*
X115404762Y-107647676D01*
X115404762Y-107647676D02*
X115309524Y-107742914D01*
X115309524Y-107742914D02*
X115214286Y-107790533D01*
D12*
X128609337Y-113202642D02*
X128771519Y-113202642D01*
X128771519Y-113202642D02*
X128790599Y-113193102D01*
X128790599Y-113193102D02*
X128800140Y-113183562D01*
X128800140Y-113183562D02*
X128809680Y-113164481D01*
X128809680Y-113164481D02*
X128809680Y-113126321D01*
X128809680Y-113126321D02*
X128800140Y-113107240D01*
X128800140Y-113107240D02*
X128790599Y-113097700D01*
X128790599Y-113097700D02*
X128771519Y-113088160D01*
X128771519Y-113088160D02*
X128609337Y-113088160D01*
X128628417Y-113002299D02*
X128618877Y-112992759D01*
X128618877Y-112992759D02*
X128609337Y-112973679D01*
X128609337Y-112973679D02*
X128609337Y-112925978D01*
X128609337Y-112925978D02*
X128618877Y-112906898D01*
X128618877Y-112906898D02*
X128628417Y-112897357D01*
X128628417Y-112897357D02*
X128647497Y-112887817D01*
X128647497Y-112887817D02*
X128666578Y-112887817D01*
X128666578Y-112887817D02*
X128695198Y-112897357D01*
X128695198Y-112897357D02*
X128809680Y-113011839D01*
X128809680Y-113011839D02*
X128809680Y-112887817D01*
D11*
X135138095Y-68054819D02*
X135138095Y-68864342D01*
X135138095Y-68864342D02*
X135185714Y-68959580D01*
X135185714Y-68959580D02*
X135233333Y-69007200D01*
X135233333Y-69007200D02*
X135328571Y-69054819D01*
X135328571Y-69054819D02*
X135519047Y-69054819D01*
X135519047Y-69054819D02*
X135614285Y-69007200D01*
X135614285Y-69007200D02*
X135661904Y-68959580D01*
X135661904Y-68959580D02*
X135709523Y-68864342D01*
X135709523Y-68864342D02*
X135709523Y-68054819D01*
X136709523Y-69054819D02*
X136138095Y-69054819D01*
X136423809Y-69054819D02*
X136423809Y-68054819D01*
X136423809Y-68054819D02*
X136328571Y-68197676D01*
X136328571Y-68197676D02*
X136233333Y-68292914D01*
X136233333Y-68292914D02*
X136138095Y-68340533D01*
X96254819Y-102709523D02*
X96254819Y-103185713D01*
X96254819Y-103185713D02*
X95254819Y-103185713D01*
X96254819Y-102376189D02*
X95588152Y-102376189D01*
X95254819Y-102376189D02*
X95302438Y-102423808D01*
X95302438Y-102423808D02*
X95350057Y-102376189D01*
X95350057Y-102376189D02*
X95302438Y-102328570D01*
X95302438Y-102328570D02*
X95254819Y-102376189D01*
X95254819Y-102376189D02*
X95350057Y-102376189D01*
X95588152Y-101899999D02*
X96588152Y-101899999D01*
X95635771Y-101899999D02*
X95588152Y-101804761D01*
X95588152Y-101804761D02*
X95588152Y-101614285D01*
X95588152Y-101614285D02*
X95635771Y-101519047D01*
X95635771Y-101519047D02*
X95683390Y-101471428D01*
X95683390Y-101471428D02*
X95778628Y-101423809D01*
X95778628Y-101423809D02*
X96064342Y-101423809D01*
X96064342Y-101423809D02*
X96159580Y-101471428D01*
X96159580Y-101471428D02*
X96207200Y-101519047D01*
X96207200Y-101519047D02*
X96254819Y-101614285D01*
X96254819Y-101614285D02*
X96254819Y-101804761D01*
X96254819Y-101804761D02*
X96207200Y-101899999D01*
X96254819Y-100852380D02*
X96207200Y-100947618D01*
X96207200Y-100947618D02*
X96159580Y-100995237D01*
X96159580Y-100995237D02*
X96064342Y-101042856D01*
X96064342Y-101042856D02*
X95778628Y-101042856D01*
X95778628Y-101042856D02*
X95683390Y-100995237D01*
X95683390Y-100995237D02*
X95635771Y-100947618D01*
X95635771Y-100947618D02*
X95588152Y-100852380D01*
X95588152Y-100852380D02*
X95588152Y-100709523D01*
X95588152Y-100709523D02*
X95635771Y-100614285D01*
X95635771Y-100614285D02*
X95683390Y-100566666D01*
X95683390Y-100566666D02*
X95778628Y-100519047D01*
X95778628Y-100519047D02*
X96064342Y-100519047D01*
X96064342Y-100519047D02*
X96159580Y-100566666D01*
X96159580Y-100566666D02*
X96207200Y-100614285D01*
X96207200Y-100614285D02*
X96254819Y-100709523D01*
X96254819Y-100709523D02*
X96254819Y-100852380D01*
X96254819Y-99566666D02*
X96254819Y-100138094D01*
X96254819Y-99852380D02*
X95254819Y-99852380D01*
X95254819Y-99852380D02*
X95397676Y-99947618D01*
X95397676Y-99947618D02*
X95492914Y-100042856D01*
X95492914Y-100042856D02*
X95540533Y-100138094D01*
X84666666Y-64904819D02*
X84333333Y-64428628D01*
X84095238Y-64904819D02*
X84095238Y-63904819D01*
X84095238Y-63904819D02*
X84476190Y-63904819D01*
X84476190Y-63904819D02*
X84571428Y-63952438D01*
X84571428Y-63952438D02*
X84619047Y-64000057D01*
X84619047Y-64000057D02*
X84666666Y-64095295D01*
X84666666Y-64095295D02*
X84666666Y-64238152D01*
X84666666Y-64238152D02*
X84619047Y-64333390D01*
X84619047Y-64333390D02*
X84571428Y-64381009D01*
X84571428Y-64381009D02*
X84476190Y-64428628D01*
X84476190Y-64428628D02*
X84095238Y-64428628D01*
X85095238Y-64381009D02*
X85428571Y-64381009D01*
X85571428Y-64904819D02*
X85095238Y-64904819D01*
X85095238Y-64904819D02*
X85095238Y-63904819D01*
X85095238Y-63904819D02*
X85571428Y-63904819D01*
X86333333Y-64381009D02*
X86000000Y-64381009D01*
X86000000Y-64904819D02*
X86000000Y-63904819D01*
X86000000Y-63904819D02*
X86476190Y-63904819D01*
X87000000Y-63904819D02*
X87000000Y-64142914D01*
X86761905Y-64047676D02*
X87000000Y-64142914D01*
X87000000Y-64142914D02*
X87238095Y-64047676D01*
X86857143Y-64333390D02*
X87000000Y-64142914D01*
X87000000Y-64142914D02*
X87142857Y-64333390D01*
X87761905Y-63904819D02*
X87761905Y-64142914D01*
X87523810Y-64047676D02*
X87761905Y-64142914D01*
X87761905Y-64142914D02*
X88000000Y-64047676D01*
X87619048Y-64333390D02*
X87761905Y-64142914D01*
X87761905Y-64142914D02*
X87904762Y-64333390D01*
D13*
%TO.C,C1*%
X111060000Y-108890000D02*
X111060000Y-112310000D01*
X111060000Y-112310000D02*
X118000000Y-112310000D01*
X118000000Y-108890000D02*
X111060000Y-108890000D01*
%TO.C,U1*%
X122200000Y-91100000D02*
X135600000Y-91100000D01*
X124900000Y-68900000D02*
X132900000Y-68900000D01*
X124900000Y-70100000D02*
X122300000Y-70100000D01*
X124900000Y-70100000D02*
X124900000Y-68900000D01*
X132900000Y-68900000D02*
X132900000Y-70100000D01*
X135500000Y-70100000D02*
X132900000Y-70100000D01*
X120087108Y-71595320D02*
G75*
G02*
X122299532Y-70100001I2135279J-774913D01*
G01*
X122200000Y-91100000D02*
G75*
G02*
X120100000Y-89600000I74105J2323747D01*
G01*
X135500000Y-70100001D02*
G75*
G02*
X137704030Y-71598538I64720J-2274909D01*
G01*
X137700000Y-89600000D02*
G75*
G02*
X135600000Y-91100003I-2174110J823750D01*
G01*
%TO.C,Lipo1*%
X98500000Y-102500000D02*
X99500000Y-102500000D01*
X99000000Y-102000000D02*
X99000000Y-103000000D01*
%TD*%
M02*
