M48
; DRILL file {KiCad 9.0.6} date 2026-03-06T12:51:15-0800
; FORMAT={-:-/ absolute / metric / decimal}
; #@! TF.CreationDate,2026-03-06T12:51:15-08:00
; #@! TF.GenerationSoftware,Kicad,Pcbnew,9.0.6
; #@! TF.FileFunction,Plated,1,2,PTH
FMAT,2
METRIC
; #@! TA.AperFunction,Plated,PTH,ComponentDrill
T1C1.000
%
G90
G05
T1
X104.5Y-74.562
X104.5Y-104.637
X119.9Y-74.4
X126.0Y-104.1
X126.3Y-77.06
X126.3Y-79.6
X126.3Y-82.14
X126.3Y-84.68
X126.3Y-87.22
X126.3Y-89.76
X126.3Y-92.3
X130.3Y-82.38
X130.3Y-84.28
X136.4Y-104.1
X141.515Y-104.1
X143.3Y-77.06
X143.3Y-79.6
X143.3Y-82.14
X143.3Y-84.68
X143.3Y-87.22
X143.3Y-89.76
X143.3Y-92.3
X212.65Y-86.37
X212.65Y-88.91
X212.65Y-91.45
X212.65Y-93.99
M30
