%TF.GenerationSoftware,KiCad,Pcbnew,9.0.6*%
%TF.CreationDate,2026-03-06T12:51:05-08:00*%
%TF.ProjectId,514_sensor_pcb,3531345f-7365-46e7-936f-725f7063622e,rev?*%
%TF.SameCoordinates,Original*%
%TF.FileFunction,Legend,Top*%
%TF.FilePolarity,Positive*%
%FSLAX46Y46*%
G04 Gerber Fmt 4.6, Leading zero omitted, Abs format (unit mm)*
G04 Created by KiCad (PCBNEW 9.0.6) date 2026-03-06 12:51:05*
%MOMM*%
%LPD*%
G01*
G04 APERTURE LIST*
%ADD10C,0.250000*%
%ADD11C,0.200000*%
%ADD12C,0.150000*%
%ADD13C,0.120000*%
%ADD14C,0.127000*%
G04 APERTURE END LIST*
D10*
X95621615Y-67289857D02*
X95621615Y-68242238D01*
X94954949Y-66242238D02*
X95621615Y-67289857D01*
X95621615Y-67289857D02*
X96288282Y-66242238D01*
X97716854Y-68147000D02*
X97526378Y-68242238D01*
X97526378Y-68242238D02*
X97145425Y-68242238D01*
X97145425Y-68242238D02*
X96954949Y-68147000D01*
X96954949Y-68147000D02*
X96859711Y-67956523D01*
X96859711Y-67956523D02*
X96859711Y-67194619D01*
X96859711Y-67194619D02*
X96954949Y-67004142D01*
X96954949Y-67004142D02*
X97145425Y-66908904D01*
X97145425Y-66908904D02*
X97526378Y-66908904D01*
X97526378Y-66908904D02*
X97716854Y-67004142D01*
X97716854Y-67004142D02*
X97812092Y-67194619D01*
X97812092Y-67194619D02*
X97812092Y-67385095D01*
X97812092Y-67385095D02*
X96859711Y-67575571D01*
X98478759Y-66908904D02*
X98859711Y-68242238D01*
X98859711Y-68242238D02*
X99240664Y-67289857D01*
X99240664Y-67289857D02*
X99621616Y-68242238D01*
X99621616Y-68242238D02*
X100002568Y-66908904D01*
X101526378Y-68147000D02*
X101335902Y-68242238D01*
X101335902Y-68242238D02*
X100954949Y-68242238D01*
X100954949Y-68242238D02*
X100764473Y-68147000D01*
X100764473Y-68147000D02*
X100669235Y-67956523D01*
X100669235Y-67956523D02*
X100669235Y-67194619D01*
X100669235Y-67194619D02*
X100764473Y-67004142D01*
X100764473Y-67004142D02*
X100954949Y-66908904D01*
X100954949Y-66908904D02*
X101335902Y-66908904D01*
X101335902Y-66908904D02*
X101526378Y-67004142D01*
X101526378Y-67004142D02*
X101621616Y-67194619D01*
X101621616Y-67194619D02*
X101621616Y-67385095D01*
X101621616Y-67385095D02*
X100669235Y-67575571D01*
X102478759Y-66908904D02*
X102478759Y-68242238D01*
X102478759Y-67099380D02*
X102573997Y-67004142D01*
X102573997Y-67004142D02*
X102764473Y-66908904D01*
X102764473Y-66908904D02*
X103050188Y-66908904D01*
X103050188Y-66908904D02*
X103240664Y-67004142D01*
X103240664Y-67004142D02*
X103335902Y-67194619D01*
X103335902Y-67194619D02*
X103335902Y-68242238D01*
X104097807Y-66242238D02*
X105431140Y-66242238D01*
X105431140Y-66242238D02*
X104097807Y-68242238D01*
X104097807Y-68242238D02*
X105431140Y-68242238D01*
X106193045Y-68242238D02*
X106193045Y-66242238D01*
X107050188Y-68242238D02*
X107050188Y-67194619D01*
X107050188Y-67194619D02*
X106954950Y-67004142D01*
X106954950Y-67004142D02*
X106764474Y-66908904D01*
X106764474Y-66908904D02*
X106478759Y-66908904D01*
X106478759Y-66908904D02*
X106288283Y-67004142D01*
X106288283Y-67004142D02*
X106193045Y-67099380D01*
X108288283Y-68242238D02*
X108097807Y-68147000D01*
X108097807Y-68147000D02*
X108002569Y-68051761D01*
X108002569Y-68051761D02*
X107907331Y-67861285D01*
X107907331Y-67861285D02*
X107907331Y-67289857D01*
X107907331Y-67289857D02*
X108002569Y-67099380D01*
X108002569Y-67099380D02*
X108097807Y-67004142D01*
X108097807Y-67004142D02*
X108288283Y-66908904D01*
X108288283Y-66908904D02*
X108573998Y-66908904D01*
X108573998Y-66908904D02*
X108764474Y-67004142D01*
X108764474Y-67004142D02*
X108859712Y-67099380D01*
X108859712Y-67099380D02*
X108954950Y-67289857D01*
X108954950Y-67289857D02*
X108954950Y-67861285D01*
X108954950Y-67861285D02*
X108859712Y-68051761D01*
X108859712Y-68051761D02*
X108764474Y-68147000D01*
X108764474Y-68147000D02*
X108573998Y-68242238D01*
X108573998Y-68242238D02*
X108288283Y-68242238D01*
X110669236Y-66908904D02*
X110669236Y-68242238D01*
X109812093Y-66908904D02*
X109812093Y-67956523D01*
X109812093Y-67956523D02*
X109907331Y-68147000D01*
X109907331Y-68147000D02*
X110097807Y-68242238D01*
X110097807Y-68242238D02*
X110383522Y-68242238D01*
X110383522Y-68242238D02*
X110573998Y-68147000D01*
X110573998Y-68147000D02*
X110669236Y-68051761D01*
X111145427Y-68432714D02*
X112669236Y-68432714D01*
X113050189Y-68147000D02*
X113335903Y-68242238D01*
X113335903Y-68242238D02*
X113812094Y-68242238D01*
X113812094Y-68242238D02*
X114002570Y-68147000D01*
X114002570Y-68147000D02*
X114097808Y-68051761D01*
X114097808Y-68051761D02*
X114193046Y-67861285D01*
X114193046Y-67861285D02*
X114193046Y-67670809D01*
X114193046Y-67670809D02*
X114097808Y-67480333D01*
X114097808Y-67480333D02*
X114002570Y-67385095D01*
X114002570Y-67385095D02*
X113812094Y-67289857D01*
X113812094Y-67289857D02*
X113431141Y-67194619D01*
X113431141Y-67194619D02*
X113240665Y-67099380D01*
X113240665Y-67099380D02*
X113145427Y-67004142D01*
X113145427Y-67004142D02*
X113050189Y-66813666D01*
X113050189Y-66813666D02*
X113050189Y-66623190D01*
X113050189Y-66623190D02*
X113145427Y-66432714D01*
X113145427Y-66432714D02*
X113240665Y-66337476D01*
X113240665Y-66337476D02*
X113431141Y-66242238D01*
X113431141Y-66242238D02*
X113907332Y-66242238D01*
X113907332Y-66242238D02*
X114193046Y-66337476D01*
X115812094Y-68147000D02*
X115621618Y-68242238D01*
X115621618Y-68242238D02*
X115240665Y-68242238D01*
X115240665Y-68242238D02*
X115050189Y-68147000D01*
X115050189Y-68147000D02*
X114954951Y-67956523D01*
X114954951Y-67956523D02*
X114954951Y-67194619D01*
X114954951Y-67194619D02*
X115050189Y-67004142D01*
X115050189Y-67004142D02*
X115240665Y-66908904D01*
X115240665Y-66908904D02*
X115621618Y-66908904D01*
X115621618Y-66908904D02*
X115812094Y-67004142D01*
X115812094Y-67004142D02*
X115907332Y-67194619D01*
X115907332Y-67194619D02*
X115907332Y-67385095D01*
X115907332Y-67385095D02*
X114954951Y-67575571D01*
X116764475Y-66908904D02*
X116764475Y-68242238D01*
X116764475Y-67099380D02*
X116859713Y-67004142D01*
X116859713Y-67004142D02*
X117050189Y-66908904D01*
X117050189Y-66908904D02*
X117335904Y-66908904D01*
X117335904Y-66908904D02*
X117526380Y-67004142D01*
X117526380Y-67004142D02*
X117621618Y-67194619D01*
X117621618Y-67194619D02*
X117621618Y-68242238D01*
X118478761Y-68147000D02*
X118669237Y-68242238D01*
X118669237Y-68242238D02*
X119050189Y-68242238D01*
X119050189Y-68242238D02*
X119240666Y-68147000D01*
X119240666Y-68147000D02*
X119335904Y-67956523D01*
X119335904Y-67956523D02*
X119335904Y-67861285D01*
X119335904Y-67861285D02*
X119240666Y-67670809D01*
X119240666Y-67670809D02*
X119050189Y-67575571D01*
X119050189Y-67575571D02*
X118764475Y-67575571D01*
X118764475Y-67575571D02*
X118573999Y-67480333D01*
X118573999Y-67480333D02*
X118478761Y-67289857D01*
X118478761Y-67289857D02*
X118478761Y-67194619D01*
X118478761Y-67194619D02*
X118573999Y-67004142D01*
X118573999Y-67004142D02*
X118764475Y-66908904D01*
X118764475Y-66908904D02*
X119050189Y-66908904D01*
X119050189Y-66908904D02*
X119240666Y-67004142D01*
X120478761Y-68242238D02*
X120288285Y-68147000D01*
X120288285Y-68147000D02*
X120193047Y-68051761D01*
X120193047Y-68051761D02*
X120097809Y-67861285D01*
X120097809Y-67861285D02*
X120097809Y-67289857D01*
X120097809Y-67289857D02*
X120193047Y-67099380D01*
X120193047Y-67099380D02*
X120288285Y-67004142D01*
X120288285Y-67004142D02*
X120478761Y-66908904D01*
X120478761Y-66908904D02*
X120764476Y-66908904D01*
X120764476Y-66908904D02*
X120954952Y-67004142D01*
X120954952Y-67004142D02*
X121050190Y-67099380D01*
X121050190Y-67099380D02*
X121145428Y-67289857D01*
X121145428Y-67289857D02*
X121145428Y-67861285D01*
X121145428Y-67861285D02*
X121050190Y-68051761D01*
X121050190Y-68051761D02*
X120954952Y-68147000D01*
X120954952Y-68147000D02*
X120764476Y-68242238D01*
X120764476Y-68242238D02*
X120478761Y-68242238D01*
X122002571Y-68242238D02*
X122002571Y-66908904D01*
X122002571Y-67289857D02*
X122097809Y-67099380D01*
X122097809Y-67099380D02*
X122193047Y-67004142D01*
X122193047Y-67004142D02*
X122383523Y-66908904D01*
X122383523Y-66908904D02*
X122574000Y-66908904D01*
X122764476Y-68432714D02*
X124288285Y-68432714D01*
X124574000Y-66908904D02*
X125050190Y-68242238D01*
X125050190Y-68242238D02*
X125526381Y-66908904D01*
X126097810Y-66242238D02*
X127335905Y-66242238D01*
X127335905Y-66242238D02*
X126669238Y-67004142D01*
X126669238Y-67004142D02*
X126954953Y-67004142D01*
X126954953Y-67004142D02*
X127145429Y-67099380D01*
X127145429Y-67099380D02*
X127240667Y-67194619D01*
X127240667Y-67194619D02*
X127335905Y-67385095D01*
X127335905Y-67385095D02*
X127335905Y-67861285D01*
X127335905Y-67861285D02*
X127240667Y-68051761D01*
X127240667Y-68051761D02*
X127145429Y-68147000D01*
X127145429Y-68147000D02*
X126954953Y-68242238D01*
X126954953Y-68242238D02*
X126383524Y-68242238D01*
X126383524Y-68242238D02*
X126193048Y-68147000D01*
X126193048Y-68147000D02*
X126097810Y-68051761D01*
X128193048Y-68051761D02*
X128288286Y-68147000D01*
X128288286Y-68147000D02*
X128193048Y-68242238D01*
X128193048Y-68242238D02*
X128097810Y-68147000D01*
X128097810Y-68147000D02*
X128193048Y-68051761D01*
X128193048Y-68051761D02*
X128193048Y-68242238D01*
X129526381Y-66242238D02*
X129716858Y-66242238D01*
X129716858Y-66242238D02*
X129907334Y-66337476D01*
X129907334Y-66337476D02*
X130002572Y-66432714D01*
X130002572Y-66432714D02*
X130097810Y-66623190D01*
X130097810Y-66623190D02*
X130193048Y-67004142D01*
X130193048Y-67004142D02*
X130193048Y-67480333D01*
X130193048Y-67480333D02*
X130097810Y-67861285D01*
X130097810Y-67861285D02*
X130002572Y-68051761D01*
X130002572Y-68051761D02*
X129907334Y-68147000D01*
X129907334Y-68147000D02*
X129716858Y-68242238D01*
X129716858Y-68242238D02*
X129526381Y-68242238D01*
X129526381Y-68242238D02*
X129335905Y-68147000D01*
X129335905Y-68147000D02*
X129240667Y-68051761D01*
X129240667Y-68051761D02*
X129145429Y-67861285D01*
X129145429Y-67861285D02*
X129050191Y-67480333D01*
X129050191Y-67480333D02*
X129050191Y-67004142D01*
X129050191Y-67004142D02*
X129145429Y-66623190D01*
X129145429Y-66623190D02*
X129240667Y-66432714D01*
X129240667Y-66432714D02*
X129335905Y-66337476D01*
X129335905Y-66337476D02*
X129526381Y-66242238D01*
D11*
X214826816Y-85585757D02*
X215160149Y-86485757D01*
X215160149Y-86485757D02*
X215493482Y-85585757D01*
X215826816Y-86485757D02*
X215826816Y-85585757D01*
X216303006Y-86485757D02*
X216303006Y-85585757D01*
X216303006Y-85585757D02*
X216874434Y-86485757D01*
X216874434Y-86485757D02*
X216874434Y-85585757D01*
X215493482Y-88526514D02*
X215398244Y-88483657D01*
X215398244Y-88483657D02*
X215255387Y-88483657D01*
X215255387Y-88483657D02*
X215112530Y-88526514D01*
X215112530Y-88526514D02*
X215017292Y-88612228D01*
X215017292Y-88612228D02*
X214969673Y-88697942D01*
X214969673Y-88697942D02*
X214922054Y-88869371D01*
X214922054Y-88869371D02*
X214922054Y-88997942D01*
X214922054Y-88997942D02*
X214969673Y-89169371D01*
X214969673Y-89169371D02*
X215017292Y-89255085D01*
X215017292Y-89255085D02*
X215112530Y-89340800D01*
X215112530Y-89340800D02*
X215255387Y-89383657D01*
X215255387Y-89383657D02*
X215350625Y-89383657D01*
X215350625Y-89383657D02*
X215493482Y-89340800D01*
X215493482Y-89340800D02*
X215541101Y-89297942D01*
X215541101Y-89297942D02*
X215541101Y-88997942D01*
X215541101Y-88997942D02*
X215350625Y-88997942D01*
X215969673Y-89383657D02*
X215969673Y-88483657D01*
X215969673Y-88483657D02*
X216541101Y-89383657D01*
X216541101Y-89383657D02*
X216541101Y-88483657D01*
X217017292Y-89383657D02*
X217017292Y-88483657D01*
X217017292Y-88483657D02*
X217255387Y-88483657D01*
X217255387Y-88483657D02*
X217398244Y-88526514D01*
X217398244Y-88526514D02*
X217493482Y-88612228D01*
X217493482Y-88612228D02*
X217541101Y-88697942D01*
X217541101Y-88697942D02*
X217588720Y-88869371D01*
X217588720Y-88869371D02*
X217588720Y-88997942D01*
X217588720Y-88997942D02*
X217541101Y-89169371D01*
X217541101Y-89169371D02*
X217493482Y-89255085D01*
X217493482Y-89255085D02*
X217398244Y-89340800D01*
X217398244Y-89340800D02*
X217255387Y-89383657D01*
X217255387Y-89383657D02*
X217017292Y-89383657D01*
X214922054Y-92238700D02*
X215064911Y-92281557D01*
X215064911Y-92281557D02*
X215303006Y-92281557D01*
X215303006Y-92281557D02*
X215398244Y-92238700D01*
X215398244Y-92238700D02*
X215445863Y-92195842D01*
X215445863Y-92195842D02*
X215493482Y-92110128D01*
X215493482Y-92110128D02*
X215493482Y-92024414D01*
X215493482Y-92024414D02*
X215445863Y-91938700D01*
X215445863Y-91938700D02*
X215398244Y-91895842D01*
X215398244Y-91895842D02*
X215303006Y-91852985D01*
X215303006Y-91852985D02*
X215112530Y-91810128D01*
X215112530Y-91810128D02*
X215017292Y-91767271D01*
X215017292Y-91767271D02*
X214969673Y-91724414D01*
X214969673Y-91724414D02*
X214922054Y-91638700D01*
X214922054Y-91638700D02*
X214922054Y-91552985D01*
X214922054Y-91552985D02*
X214969673Y-91467271D01*
X214969673Y-91467271D02*
X215017292Y-91424414D01*
X215017292Y-91424414D02*
X215112530Y-91381557D01*
X215112530Y-91381557D02*
X215350625Y-91381557D01*
X215350625Y-91381557D02*
X215493482Y-91424414D01*
X216493482Y-92195842D02*
X216445863Y-92238700D01*
X216445863Y-92238700D02*
X216303006Y-92281557D01*
X216303006Y-92281557D02*
X216207768Y-92281557D01*
X216207768Y-92281557D02*
X216064911Y-92238700D01*
X216064911Y-92238700D02*
X215969673Y-92152985D01*
X215969673Y-92152985D02*
X215922054Y-92067271D01*
X215922054Y-92067271D02*
X215874435Y-91895842D01*
X215874435Y-91895842D02*
X215874435Y-91767271D01*
X215874435Y-91767271D02*
X215922054Y-91595842D01*
X215922054Y-91595842D02*
X215969673Y-91510128D01*
X215969673Y-91510128D02*
X216064911Y-91424414D01*
X216064911Y-91424414D02*
X216207768Y-91381557D01*
X216207768Y-91381557D02*
X216303006Y-91381557D01*
X216303006Y-91381557D02*
X216445863Y-91424414D01*
X216445863Y-91424414D02*
X216493482Y-91467271D01*
X217398244Y-92281557D02*
X216922054Y-92281557D01*
X216922054Y-92281557D02*
X216922054Y-91381557D01*
X214922054Y-95136600D02*
X215064911Y-95179457D01*
X215064911Y-95179457D02*
X215303006Y-95179457D01*
X215303006Y-95179457D02*
X215398244Y-95136600D01*
X215398244Y-95136600D02*
X215445863Y-95093742D01*
X215445863Y-95093742D02*
X215493482Y-95008028D01*
X215493482Y-95008028D02*
X215493482Y-94922314D01*
X215493482Y-94922314D02*
X215445863Y-94836600D01*
X215445863Y-94836600D02*
X215398244Y-94793742D01*
X215398244Y-94793742D02*
X215303006Y-94750885D01*
X215303006Y-94750885D02*
X215112530Y-94708028D01*
X215112530Y-94708028D02*
X215017292Y-94665171D01*
X215017292Y-94665171D02*
X214969673Y-94622314D01*
X214969673Y-94622314D02*
X214922054Y-94536600D01*
X214922054Y-94536600D02*
X214922054Y-94450885D01*
X214922054Y-94450885D02*
X214969673Y-94365171D01*
X214969673Y-94365171D02*
X215017292Y-94322314D01*
X215017292Y-94322314D02*
X215112530Y-94279457D01*
X215112530Y-94279457D02*
X215350625Y-94279457D01*
X215350625Y-94279457D02*
X215493482Y-94322314D01*
X215922054Y-95179457D02*
X215922054Y-94279457D01*
X215922054Y-94279457D02*
X216160149Y-94279457D01*
X216160149Y-94279457D02*
X216303006Y-94322314D01*
X216303006Y-94322314D02*
X216398244Y-94408028D01*
X216398244Y-94408028D02*
X216445863Y-94493742D01*
X216445863Y-94493742D02*
X216493482Y-94665171D01*
X216493482Y-94665171D02*
X216493482Y-94793742D01*
X216493482Y-94793742D02*
X216445863Y-94965171D01*
X216445863Y-94965171D02*
X216398244Y-95050885D01*
X216398244Y-95050885D02*
X216303006Y-95136600D01*
X216303006Y-95136600D02*
X216160149Y-95179457D01*
X216160149Y-95179457D02*
X215922054Y-95179457D01*
X216874435Y-94922314D02*
X217350625Y-94922314D01*
X216779197Y-95179457D02*
X217112530Y-94279457D01*
X217112530Y-94279457D02*
X217445863Y-95179457D01*
D12*
X88938095Y-109704819D02*
X88938095Y-108704819D01*
X88938095Y-109181009D02*
X89509523Y-109181009D01*
X89509523Y-109704819D02*
X89509523Y-108704819D01*
X89890476Y-108704819D02*
X90509523Y-108704819D01*
X90509523Y-108704819D02*
X90176190Y-109085771D01*
X90176190Y-109085771D02*
X90319047Y-109085771D01*
X90319047Y-109085771D02*
X90414285Y-109133390D01*
X90414285Y-109133390D02*
X90461904Y-109181009D01*
X90461904Y-109181009D02*
X90509523Y-109276247D01*
X90509523Y-109276247D02*
X90509523Y-109514342D01*
X90509523Y-109514342D02*
X90461904Y-109609580D01*
X90461904Y-109609580D02*
X90414285Y-109657200D01*
X90414285Y-109657200D02*
X90319047Y-109704819D01*
X90319047Y-109704819D02*
X90033333Y-109704819D01*
X90033333Y-109704819D02*
X89938095Y-109657200D01*
X89938095Y-109657200D02*
X89890476Y-109609580D01*
X138790833Y-101909580D02*
X138743214Y-101957200D01*
X138743214Y-101957200D02*
X138600357Y-102004819D01*
X138600357Y-102004819D02*
X138505119Y-102004819D01*
X138505119Y-102004819D02*
X138362262Y-101957200D01*
X138362262Y-101957200D02*
X138267024Y-101861961D01*
X138267024Y-101861961D02*
X138219405Y-101766723D01*
X138219405Y-101766723D02*
X138171786Y-101576247D01*
X138171786Y-101576247D02*
X138171786Y-101433390D01*
X138171786Y-101433390D02*
X138219405Y-101242914D01*
X138219405Y-101242914D02*
X138267024Y-101147676D01*
X138267024Y-101147676D02*
X138362262Y-101052438D01*
X138362262Y-101052438D02*
X138505119Y-101004819D01*
X138505119Y-101004819D02*
X138600357Y-101004819D01*
X138600357Y-101004819D02*
X138743214Y-101052438D01*
X138743214Y-101052438D02*
X138790833Y-101100057D01*
X139743214Y-102004819D02*
X139171786Y-102004819D01*
X139457500Y-102004819D02*
X139457500Y-101004819D01*
X139457500Y-101004819D02*
X139362262Y-101147676D01*
X139362262Y-101147676D02*
X139267024Y-101242914D01*
X139267024Y-101242914D02*
X139171786Y-101290533D01*
X208638095Y-89654819D02*
X208638095Y-90464342D01*
X208638095Y-90464342D02*
X208685714Y-90559580D01*
X208685714Y-90559580D02*
X208733333Y-90607200D01*
X208733333Y-90607200D02*
X208828571Y-90654819D01*
X208828571Y-90654819D02*
X209019047Y-90654819D01*
X209019047Y-90654819D02*
X209114285Y-90607200D01*
X209114285Y-90607200D02*
X209161904Y-90559580D01*
X209161904Y-90559580D02*
X209209523Y-90464342D01*
X209209523Y-90464342D02*
X209209523Y-89654819D01*
X209638095Y-89750057D02*
X209685714Y-89702438D01*
X209685714Y-89702438D02*
X209780952Y-89654819D01*
X209780952Y-89654819D02*
X210019047Y-89654819D01*
X210019047Y-89654819D02*
X210114285Y-89702438D01*
X210114285Y-89702438D02*
X210161904Y-89750057D01*
X210161904Y-89750057D02*
X210209523Y-89845295D01*
X210209523Y-89845295D02*
X210209523Y-89940533D01*
X210209523Y-89940533D02*
X210161904Y-90083390D01*
X210161904Y-90083390D02*
X209590476Y-90654819D01*
X209590476Y-90654819D02*
X210209523Y-90654819D01*
X141038095Y-72134819D02*
X141038095Y-72944342D01*
X141038095Y-72944342D02*
X141085714Y-73039580D01*
X141085714Y-73039580D02*
X141133333Y-73087200D01*
X141133333Y-73087200D02*
X141228571Y-73134819D01*
X141228571Y-73134819D02*
X141419047Y-73134819D01*
X141419047Y-73134819D02*
X141514285Y-73087200D01*
X141514285Y-73087200D02*
X141561904Y-73039580D01*
X141561904Y-73039580D02*
X141609523Y-72944342D01*
X141609523Y-72944342D02*
X141609523Y-72134819D01*
X142609523Y-73134819D02*
X142038095Y-73134819D01*
X142323809Y-73134819D02*
X142323809Y-72134819D01*
X142323809Y-72134819D02*
X142228571Y-72277676D01*
X142228571Y-72277676D02*
X142133333Y-72372914D01*
X142133333Y-72372914D02*
X142038095Y-72420533D01*
X148638095Y-109704819D02*
X148638095Y-108704819D01*
X148638095Y-109181009D02*
X149209523Y-109181009D01*
X149209523Y-109704819D02*
X149209523Y-108704819D01*
X150114285Y-109038152D02*
X150114285Y-109704819D01*
X149876190Y-108657200D02*
X149638095Y-109371485D01*
X149638095Y-109371485D02*
X150257142Y-109371485D01*
X125666666Y-101174819D02*
X125666666Y-101889104D01*
X125666666Y-101889104D02*
X125619047Y-102031961D01*
X125619047Y-102031961D02*
X125523809Y-102127200D01*
X125523809Y-102127200D02*
X125380952Y-102174819D01*
X125380952Y-102174819D02*
X125285714Y-102174819D01*
X126666666Y-102174819D02*
X126095238Y-102174819D01*
X126380952Y-102174819D02*
X126380952Y-101174819D01*
X126380952Y-101174819D02*
X126285714Y-101317676D01*
X126285714Y-101317676D02*
X126190476Y-101412914D01*
X126190476Y-101412914D02*
X126095238Y-101460533D01*
X119566666Y-71474819D02*
X119566666Y-72189104D01*
X119566666Y-72189104D02*
X119519047Y-72331961D01*
X119519047Y-72331961D02*
X119423809Y-72427200D01*
X119423809Y-72427200D02*
X119280952Y-72474819D01*
X119280952Y-72474819D02*
X119185714Y-72474819D01*
X119995238Y-71570057D02*
X120042857Y-71522438D01*
X120042857Y-71522438D02*
X120138095Y-71474819D01*
X120138095Y-71474819D02*
X120376190Y-71474819D01*
X120376190Y-71474819D02*
X120471428Y-71522438D01*
X120471428Y-71522438D02*
X120519047Y-71570057D01*
X120519047Y-71570057D02*
X120566666Y-71665295D01*
X120566666Y-71665295D02*
X120566666Y-71760533D01*
X120566666Y-71760533D02*
X120519047Y-71903390D01*
X120519047Y-71903390D02*
X119947619Y-72474819D01*
X119947619Y-72474819D02*
X120566666Y-72474819D01*
X148638095Y-65004819D02*
X148638095Y-64004819D01*
X148638095Y-64481009D02*
X149209523Y-64481009D01*
X149209523Y-65004819D02*
X149209523Y-64004819D01*
X149638095Y-64100057D02*
X149685714Y-64052438D01*
X149685714Y-64052438D02*
X149780952Y-64004819D01*
X149780952Y-64004819D02*
X150019047Y-64004819D01*
X150019047Y-64004819D02*
X150114285Y-64052438D01*
X150114285Y-64052438D02*
X150161904Y-64100057D01*
X150161904Y-64100057D02*
X150209523Y-64195295D01*
X150209523Y-64195295D02*
X150209523Y-64290533D01*
X150209523Y-64290533D02*
X150161904Y-64433390D01*
X150161904Y-64433390D02*
X149590476Y-65004819D01*
X149590476Y-65004819D02*
X150209523Y-65004819D01*
X91106419Y-105583333D02*
X91106419Y-106059523D01*
X91106419Y-106059523D02*
X90106419Y-106059523D01*
X91106419Y-105249999D02*
X90106419Y-105249999D01*
X91106419Y-104202381D02*
X90630228Y-104535714D01*
X91106419Y-104773809D02*
X90106419Y-104773809D01*
X90106419Y-104773809D02*
X90106419Y-104392857D01*
X90106419Y-104392857D02*
X90154038Y-104297619D01*
X90154038Y-104297619D02*
X90201657Y-104250000D01*
X90201657Y-104250000D02*
X90296895Y-104202381D01*
X90296895Y-104202381D02*
X90439752Y-104202381D01*
X90439752Y-104202381D02*
X90534990Y-104250000D01*
X90534990Y-104250000D02*
X90582609Y-104297619D01*
X90582609Y-104297619D02*
X90630228Y-104392857D01*
X90630228Y-104392857D02*
X90630228Y-104773809D01*
X90201657Y-103821428D02*
X90154038Y-103773809D01*
X90154038Y-103773809D02*
X90106419Y-103678571D01*
X90106419Y-103678571D02*
X90106419Y-103440476D01*
X90106419Y-103440476D02*
X90154038Y-103345238D01*
X90154038Y-103345238D02*
X90201657Y-103297619D01*
X90201657Y-103297619D02*
X90296895Y-103250000D01*
X90296895Y-103250000D02*
X90392133Y-103250000D01*
X90392133Y-103250000D02*
X90534990Y-103297619D01*
X90534990Y-103297619D02*
X91106419Y-103869047D01*
X91106419Y-103869047D02*
X91106419Y-103250000D01*
X90106419Y-102630952D02*
X90106419Y-102535714D01*
X90106419Y-102535714D02*
X90154038Y-102440476D01*
X90154038Y-102440476D02*
X90201657Y-102392857D01*
X90201657Y-102392857D02*
X90296895Y-102345238D01*
X90296895Y-102345238D02*
X90487371Y-102297619D01*
X90487371Y-102297619D02*
X90725466Y-102297619D01*
X90725466Y-102297619D02*
X90915942Y-102345238D01*
X90915942Y-102345238D02*
X91011180Y-102392857D01*
X91011180Y-102392857D02*
X91058800Y-102440476D01*
X91058800Y-102440476D02*
X91106419Y-102535714D01*
X91106419Y-102535714D02*
X91106419Y-102630952D01*
X91106419Y-102630952D02*
X91058800Y-102726190D01*
X91058800Y-102726190D02*
X91011180Y-102773809D01*
X91011180Y-102773809D02*
X90915942Y-102821428D01*
X90915942Y-102821428D02*
X90725466Y-102869047D01*
X90725466Y-102869047D02*
X90487371Y-102869047D01*
X90487371Y-102869047D02*
X90296895Y-102821428D01*
X90296895Y-102821428D02*
X90201657Y-102773809D01*
X90201657Y-102773809D02*
X90154038Y-102726190D01*
X90154038Y-102726190D02*
X90106419Y-102630952D01*
X90106419Y-101964285D02*
X90106419Y-101345238D01*
X90106419Y-101345238D02*
X90487371Y-101678571D01*
X90487371Y-101678571D02*
X90487371Y-101535714D01*
X90487371Y-101535714D02*
X90534990Y-101440476D01*
X90534990Y-101440476D02*
X90582609Y-101392857D01*
X90582609Y-101392857D02*
X90677847Y-101345238D01*
X90677847Y-101345238D02*
X90915942Y-101345238D01*
X90915942Y-101345238D02*
X91011180Y-101392857D01*
X91011180Y-101392857D02*
X91058800Y-101440476D01*
X91058800Y-101440476D02*
X91106419Y-101535714D01*
X91106419Y-101535714D02*
X91106419Y-101821428D01*
X91106419Y-101821428D02*
X91058800Y-101916666D01*
X91058800Y-101916666D02*
X91011180Y-101964285D01*
X90201657Y-100964285D02*
X90154038Y-100916666D01*
X90154038Y-100916666D02*
X90106419Y-100821428D01*
X90106419Y-100821428D02*
X90106419Y-100583333D01*
X90106419Y-100583333D02*
X90154038Y-100488095D01*
X90154038Y-100488095D02*
X90201657Y-100440476D01*
X90201657Y-100440476D02*
X90296895Y-100392857D01*
X90296895Y-100392857D02*
X90392133Y-100392857D01*
X90392133Y-100392857D02*
X90534990Y-100440476D01*
X90534990Y-100440476D02*
X91106419Y-101011904D01*
X91106419Y-101011904D02*
X91106419Y-100392857D01*
X88938095Y-65004819D02*
X88938095Y-64004819D01*
X88938095Y-64481009D02*
X89509523Y-64481009D01*
X89509523Y-65004819D02*
X89509523Y-64004819D01*
X90509523Y-65004819D02*
X89938095Y-65004819D01*
X90223809Y-65004819D02*
X90223809Y-64004819D01*
X90223809Y-64004819D02*
X90128571Y-64147676D01*
X90128571Y-64147676D02*
X90033333Y-64242914D01*
X90033333Y-64242914D02*
X89938095Y-64290533D01*
D13*
%TO.C,C1*%
X135017500Y-102390000D02*
X135017500Y-105810000D01*
X135017500Y-105810000D02*
X141957500Y-105810000D01*
X141957500Y-102390000D02*
X135017500Y-102390000D01*
%TO.C,U2*%
X211270000Y-84990000D02*
X212650000Y-84990000D01*
X211270000Y-86370000D02*
X211270000Y-84990000D01*
X211270000Y-87640000D02*
X211270000Y-95370000D01*
X211270000Y-87640000D02*
X214030000Y-87640000D01*
X211270000Y-95370000D02*
X214030000Y-95370000D01*
X214030000Y-87640000D02*
X214030000Y-95370000D01*
%TO.C,U1*%
X128100000Y-95180000D02*
X141500000Y-95180000D01*
X130800000Y-72980000D02*
X138800000Y-72980000D01*
X130800000Y-74180000D02*
X128200000Y-74180000D01*
X130800000Y-74180000D02*
X130800000Y-72980000D01*
X138800000Y-72980000D02*
X138800000Y-74180000D01*
X141400000Y-74180000D02*
X138800000Y-74180000D01*
X125987108Y-75675320D02*
G75*
G02*
X128199532Y-74180001I2135279J-774913D01*
G01*
X128100000Y-95180000D02*
G75*
G02*
X126000000Y-93680000I74105J2323747D01*
G01*
X141400000Y-74180001D02*
G75*
G02*
X143604030Y-75678538I64720J-2274909D01*
G01*
X143600000Y-93680000D02*
G75*
G02*
X141500000Y-95180003I-2174110J823750D01*
G01*
%TO.C,J1*%
X124620000Y-102720000D02*
X126000000Y-102720000D01*
X124620000Y-104100000D02*
X124620000Y-102720000D01*
X124620000Y-105370000D02*
X124620000Y-105480000D01*
X124620000Y-105370000D02*
X127380000Y-105370000D01*
X124620000Y-105480000D02*
X127380000Y-105480000D01*
X127380000Y-105370000D02*
X127380000Y-105480000D01*
%TO.C,J2*%
X118520000Y-73020000D02*
X119900000Y-73020000D01*
X118520000Y-74400000D02*
X118520000Y-73020000D01*
X118520000Y-75670000D02*
X118520000Y-75780000D01*
X118520000Y-75670000D02*
X121280000Y-75670000D01*
X118520000Y-75780000D02*
X121280000Y-75780000D01*
X121280000Y-75670000D02*
X121280000Y-75780000D01*
D14*
%TO.C,LIR2032*%
X104000000Y-107350000D02*
X105000000Y-107350000D01*
X104500000Y-72350000D02*
X104500000Y-71600000D01*
X104500000Y-106850000D02*
X104500000Y-107850000D01*
%TD*%
M02*
